<svg xmlns="http://www.w3.org/2000/svg" version="1.1" xmlns:xlink="http://www.w3.org/1999/xlink" width="512" height="512" x="0" y="0" viewBox="0 0 64 64" style="enable-background:new 0 0 512 512" xml:space="preserve" class=""><g><path d="M62 11a12.057 12.057 0 0 1-10.051-5.379l-.117-.176a1.039 1.039 0 0 0-1.664 0l-.117.176A12.057 12.057 0 0 1 40 11a1 1 0 0 0-1 1v6.3a17.763 17.763 0 0 0 11.658 16.639.989.989 0 0 0 .684 0A17.763 17.763 0 0 0 63 18.3V12a1 1 0 0 0-1-1Zm-1 7.3a15.763 15.763 0 0 1-10 14.632A15.763 15.763 0 0 1 41 18.3v-5.33a14.039 14.039 0 0 0 10-5.261 14.039 14.039 0 0 0 10 5.256Z" fill="currentColor" opacity="1" data-original="currentColor"></path><path d="M46.707 19.293a1 1 0 0 0-1.414 0l-2 2a1 1 0 0 0 0 1.414l5 5a1 1 0 0 0 1.414 0l10-10a1 1 0 0 0 0-1.414l-2-2a1 1 0 0 0-1.414 0L49 21.586ZM57 16.414l.586.586L49 25.586 45.414 22l.586-.586 2.293 2.293a1 1 0 0 0 1.414 0ZM54 38h-5.675a7.665 7.665 0 0 0-.618-.707A1 1 0 0 0 46.4 37.2l-2.386 1.789a5.13 5.13 0 0 1-4.629.752l-1.455-.485a6.979 6.979 0 0 0-3.047-4.869A14.159 14.159 0 0 0 27 32a6.96 6.96 0 0 0-2.223.368l.87-1.368H29a3 3 0 0 0 0-6h-5a2.994 2.994 0 0 0-2.525 1.393h-.006L17 33.411V33a1 1 0 0 0-.8-.98l-5-1A1 1 0 0 0 10 32v5a1 1 0 0 0 1.2.98l3.319-.663-2.506 3.937A8.973 8.973 0 0 0 10 41a9.008 9.008 0 1 0 7.085 3.455l1.489-2.339 5.5 13.267A1 1 0 0 0 25 56h19.311a8.96 8.96 0 0 0 13.381 0H59a1 1 0 0 0 .8-1.6l-.58-.772A8.8 8.8 0 0 0 59.768 48H62a1 1 0 0 0 1-1 9 9 0 0 0-9-9Zm-42-4.78 3 .6v1.362l-3 .6Zm33.214 7.369 1.64-1.23a5.822 5.822 0 0 1 1.007 2.217 9.03 9.03 0 0 0-4.232 3.276L38 42.35v-.963l.751.251a7.157 7.157 0 0 0 6.463-1.049ZM31.778 42H25v-1.73A30.024 30.024 0 0 1 31.778 42ZM32 44v1.586l-.414.414h-5.172L26 45.586V44Zm-3.586 6L27 48.586V48h4v.586L29.586 50Zm4.293-.293A1 1 0 0 0 33 49v-1.586l.252-.252a28.821 28.821 0 0 0 8.812 1.8A9.023 9.023 0 0 0 42 50h-9.586Zm3.9-5.785 6.056 2.691c-.049.12-.091.244-.135.367A26.835 26.835 0 0 1 34 45.306v-2.429Zm-2.838-7.871A4.988 4.988 0 0 1 36 40.212v1.311L32.942 40.3A31.973 31.973 0 0 0 22.1 38.019 5.009 5.009 0 0 1 27 34a12.168 12.168 0 0 1 6.773 2.051ZM11.225 46.212l10.421-16.375a2.992 2.992 0 0 0 1.682 1.081L12.916 47.281a3.987 3.987 0 0 0-1.691-1.069ZM10 48a2 2 0 1 1-2 2 2 2 0 0 1 2-2Zm20-20a1 1 0 0 1-1 1h-2.184a2.809 2.809 0 0 0 0-2H29a1 1 0 0 1 1 1Zm-6-1a1 1 0 1 1-1 1 1 1 0 0 1 1-1Zm-7 23a7 7 0 1 1-7-7 6.987 6.987 0 0 1 .856.067l-1.982 3.114a4.068 4.068 0 1 0 5.065 3.219l1.988-3.124A6.968 6.968 0 0 1 17 50Zm7.009 0-4.124-9.944.312-.491A.981.981 0 0 0 21 40c.67 0 1.336.03 2 .074V43a1 1 0 0 0 .293.707l.707.707V46a1 1 0 0 0 .293.707l.707.707V49a1 1 0 0 0 .293.707l.293.293Zm.829 2H55.5l1.5 2H25.668ZM49 50a2 2 0 0 1 4 0Zm2 7a6.961 6.961 0 0 1-3.6-1h7.2a6.984 6.984 0 0 1-3.6 1Zm5.8-6.6a1 1 0 0 0-.8-.4h-1a4 4 0 0 0-8 0h-3a7 7 0 1 1 13.786 1.715Zm2.25-4.4a8.884 8.884 0 0 0-9.25-4.91 7.75 7.75 0 0 0-.336-1.09H54a7 7 0 0 1 6.929 6Z" fill="currentColor" opacity="1" data-original="currentColor"></path></g></svg>