<svg xmlns="http://www.w3.org/2000/svg" version="1.1" xmlns:xlink="http://www.w3.org/1999/xlink" width="512" height="512" x="0" y="0" viewBox="0 0 512 512" style="enable-background:new 0 0 512 512" xml:space="preserve" class=""><g><path fill-rule="evenodd" d="M454.93 185.607H486c4.6 0 8.186 3.674 7.968 8.7V486a7.969 7.969 0 0 1-7.968 7.969V494H26c-4.6 0-8.186-3.674-7.968-8.7V193.607A7.969 7.969 0 0 1 26 185.638v-.031h31v-31.07a8 8 0 0 1 8-8h94.152a97.854 97.854 0 0 1 193.626 0h94.153a8 8 0 0 1 8 8v31.07zM278.193 310.686a14.758 14.758 0 0 0 14.694-14.693V281.3h-73.842v14.694a14.757 14.757 0 0 0 14.693 14.693zm-52.112 15.029a30.79 30.79 0 0 1-23.036-29.722V273.3c-.256-41.615-44.012-53.558-44.9-110.762H73v276.393h143.931a46.89 46.89 0 0 1 31.033 11.68V348.326a30.745 30.745 0 0 1-21.883-22.611zm82.805-52.415v22.694a30.79 30.79 0 0 1-23.036 29.722 30.746 30.746 0 0 1-21.886 22.612v102.347a46.892 46.892 0 0 1 31.106-11.744h143.861V162.537h-85.139c-.893 57.161-44.906 69.6-44.906 110.762zm-49.574-59.148h-6.694V265.3h6.694v-51.149zm-22.693 0h-3.347a19.347 19.347 0 1 1 19.346-19.352v3.347h6.694V194.8a19.347 19.347 0 1 1 19.347 19.347h-3.347V265.3h18c4.563-42.406 44.5-54.819 44.5-104.536a81.842 81.842 0 0 0-163.684 0c0 49.717 39.936 62.131 44.5 104.536h18v-51.149zm38.693-19.352v3.347h3.347a3.347 3.347 0 1 0-3.347-3.347zm-42.04 3.347h3.347V194.8a3.347 3.347 0 1 0-3.347 3.347zm-90.015 36.9 19.452-11.23a7.981 7.981 0 0 0-8-13.813l-19.452 11.23a7.981 7.981 0 0 0 8 13.813zm-7.969-134.763 19.452 11.231a7.965 7.965 0 0 0 7.937-13.813l-19.451-11.23a7.965 7.965 0 1 0-7.938 13.812zM247.965 26a8 8 0 1 1 16 0v22.461a8 8 0 1 1-16 0zm120.74 60.475-19.452 11.231a7.965 7.965 0 1 0 7.938 13.812l19.451-11.23a7.965 7.965 0 0 0-7.937-13.813zm7.937 134.763-19.451-11.23a7.966 7.966 0 0 0-7.938 13.813l19.452 11.23a7.965 7.965 0 1 0 7.937-13.813zm-133 105.448a14.708 14.708 0 0 0 24.655 0zm-26.746 49.42H104.067a8 8 0 0 0 0 16h112.825a8 8 0 1 0 0-16zM407.86 331.8h-84.619a8 8 0 0 0 0 16h84.619a8 8 0 0 0 0-16zm0-44.3h-56.413a8 8 0 0 0 0 16h56.413a8 8 0 0 0 0-16zm0 88.607H295.034a8 8 0 0 0 0 16H407.86a8 8 0 0 0 0-16zM160.48 287.5h-56.413a8 8 0 0 0 0 16h56.413a8 8 0 1 0 0-16zm28.206 44.3h-84.619a8 8 0 0 0 0 16h84.619a8 8 0 1 0 0-16zM57 201.607H33.969V478H246.96a31.081 31.081 0 0 0-30.029-23.07H65a8 8 0 0 1-8-8zM265.041 478h212.99V201.607h-23.1V446.93a8 8 0 0 1-8 8H295.07A31.08 31.08 0 0 0 265.041 478z" fill="currentColor" opacity="1" data-original="currentColor" class=""></path></g></svg>