<svg xmlns="http://www.w3.org/2000/svg" version="1.1" xmlns:xlink="http://www.w3.org/1999/xlink" width="512" height="512" x="0" y="0" viewBox="0 0 512.002 512.002" style="enable-background:new 0 0 512 512" xml:space="preserve" class=""><g><path d="M499.548 281.948c-2.954-3.251-4.259-7.755-5.944-11.744-2.223-5.261-4.9-10.283-7.462-15.381-4.891-9.733-11.175-18.551-16.34-28.116-5.385-9.974-11.166-19.694-16.657-29.606-5.216-9.415-8.407-19.64-14.257-28.703-2.865-4.438-5.666-8.7-7.474-13.687-1.957-5.39-4.023-9.852-7.581-14.389-6.779-8.645-8.639-19.353-14.177-28.661-2.814-4.73-3.91-9.135-5.825-14.192-1.864-4.921-5.082-9.182-7.779-13.659-2.532-4.205-3.852-8.343-5.403-12.944-1.411-4.183-4.168-7.686-5.276-11.962-2.981-11.507-10.195-21.148-14.072-32.406-.877-2.549-.976-5.266-2.005-7.768-.913-2.216-2.533-3.963-3.555-6.111-1.915-4.022-2.685-8.173-5.806-11.547-.82-.887-2.339-1.321-3.495-.924-3.54 1.214-7.546-.188-11.248.139-2.994.265-5.956.886-8.944 1.205-2.808.301-5.605.68-8.41.994-4.304.481-8.528-.357-12.838-.055-7.464.521-14.789 2.3-22.237 2.994-8.586.8-17.052 1.431-25.588 2.785-16.817 2.669-33.582 6.059-50.168 9.914-6.814 1.585-13.29 4.157-20.251 5.026-8.572 1.071-17.042 2.969-25.522 4.599-15.529 2.984-31.349 4.817-46.668 8.813-6.972 1.819-13.859 3.777-20.93 5.211-7.724 1.567-15.652 1.501-23.001 4.517-12.667 5.2-25.835 12.621-35.774 22.096-9.891 9.43-19.592 19.615-23.536 32.951-2.304 7.787-5.967 14.97-8 22.939-2.229 8.73-2.884 16.161-2.272 25.098.216 3.142-.054 6.242.073 9.367.058 1.459.271 2.842.93 4.155.676 1.348 1.132 2.092 1.485 3.362 1.202 4.306 3.003 8.124 5.717 11.363.019.08.032.166.052.245 1.461 5.645 3.383 9.689 6.177 14.776 4.807 8.754 9.316 18.966 8.523 28.998-.813 10.284-.184 19.798 9.802 25.263 3.961 2.167 7.048 5.2 11.24 7.156 2.279 1.064 5.236 2.065 6.991 3.986 2.024 2.213 2.601 5.885 3.24 8.728 2.725 12.107 5.279 23.575 10.574 34.862 2.236 4.767 4.025 9.705 6.181 14.506 2.583 5.75 6.128 10.91 9.026 16.489 1.561 3.005 3.841 6.206 3.343 9.461-.761 4.968-2.546 8.448-1.486 13.694 2.018 9.982 8.45 17.095 16.038 23.247 5.396 4.371 6.671 10.713 8.689 17.07 1.997 6.296 3.422 12.692 5.431 18.981 1.857 5.812 4.068 11.455 5.937 17.255 1.579 4.901 3.357 9.416 6.5 13.336.678 2.621 1.589 5.173 3.048 7.645 3.269 5.535 7.855 11.005 12.767 15.143 4.546 3.83 10.025 5.157 14.869 8.345 2.416 1.588 4.36 3.668 6.948 5.033 2.964 1.563 6.262 2.739 9.393 3.913 12.701 4.763 26.307 2.249 39.246-.132 6.379-1.174 12.919-2.462 19.098-4.461 3.38-1.092 6.617-2.578 10.004-3.647 2.964-.936 6.005-1.133 8.679-2.786a3.282 3.282 0 0 0 1.588-2.769c.445 5.529.1 11.274-.921 16.384-1.148 5.743-5.209 12.849-3.093 18.75 4.004 11.166 15.714.379 20.437-3.96 4.394-4.036 8.828-8.234 11.121-13.848 1.114-2.723 1.872-5.647 2.395-8.615 4.203 8.842 11.524 20.438 18.897 16.306 5.77-3.232 4.201-13.655 3.514-18.843a354.376 354.376 0 0 0-2.383-15.479c1.768-.339 3.595-.516 5.296-.972 4.222-1.133 8.264-2.969 12.471-4.195 8.956-2.609 18.044-4.8 27.027-7.323 17.574-4.933 34.794-10.55 52.498-15.052 18.352-4.666 36.94-8.892 55.07-14.347 6.571-1.977 14.114-4.171 18.77-9.565 3.941-4.565 8.155-11.959 7.176-18.153-.971-6.141-5.69-12.281-10.565-15.956-3.195-2.408-8.27-4.365-12.023-7.13a2.082 2.082 0 0 0-.515-1.142 4.852 4.852 0 0 0-.843-1.524c-.21-.267-.315-.447-.707-1.057a57.998 57.998 0 0 1-1.864-3.048c-.227-.581-.556-1.123-1.041-1.749-.316-.405-.632-.811-.959-1.208-.959-1.17-2.626-1.47-4.086-1.133.141-2.322.477-4.693 1.007-7.243 2.657-12.799 9.355-24.187 16.849-34.821 6.189-1.48 12.118-3.621 16.964-8.079 5.978-5.501 10.316-12.957 9.327-21.201.46-1.954.12-4.106-1.427-5.807zM318.886 13.973c7.063-.127 13.69-1.064 20.658-2.282 3.762-.657 7.279-2.087 11.073-2.562 1.909-.239 3.645-.515 5.343-1.041 1.348 3.041 1.468 6.836 2.676 9.832 1.909 4.736 1.763 9.511 3.313 14.397 1.097 3.46 2.486 6.802 3.936 10.113-5.764-1.063-11.577-1.374-17.301-2.975-5.92-1.657-10.651-4.906-15.966-7.834-5.33-2.936-10.508-5.123-13.709-10.635-1.32-2.275-2.345-4.591-3.509-6.808a48.59 48.59 0 0 1 3.486-.205zM116.858 372.71c-1.372-1.089-2.82-2.104-4.288-3.141-4.892-3.451-8.333-7.831-10.107-13.65-1.953-6.405 1.453-7.386 4.069-12.135 1.215-2.206 1.393-4.383 1.015-6.525 3.289-7.632 6.632-15.257 10.095-22.833 1.503-3.286 2.501-6.914 4.429-9.968 2.091-3.312 4.921-6.249 7.336-9.334 4.726-6.036 10.822-10.423 15.668-16.314.902-1.097.43-3.208-1.28-3.092-7.048.483-14.326 7.839-18.662 12.928-2.673 3.138-5.374 6.277-7.954 9.492-2.836 3.533-4.174 7.175-6.059 11.229-2.72 5.845-5.347 11.714-7.968 17.593-4.622-8.7-9.786-17.023-14.072-25.942-2.37-4.931-5.367-9.485-7.94-14.299-3.351-6.273-5.122-13.099-6.641-20.005-.61-2.776-1.161-5.698-2.072-8.464 1.02-.812 1.083-2.515.359-3.641.838-2.848 2.048-5.49 2.791-8.396.928-3.634 1.139-7.386 2.537-10.896 1.195-3.002 2.032-5.934 3.118-8.944 1.304-3.616 4.409-7.693 6.36-11.142 4.323-7.646 11.732-14.073 18.031-20.075 6.214-5.919 13.851-10.196 19.973-16.065 1.284-1.23.273-3.364-1.412-3.408-9.574-.252-18.159 7.22-24.954 13.08-7.207 6.216-16.141 12.652-20.931 21.036-1.401 2.452-2.401 4.806-4.017 7.16-1.264 1.84-2.392 3.496-3.075 5.663-1.065 3.377-2.067 6.548-3.314 9.884-1.713 4.586-1.689 9.494-2.789 14.197-.094.401-.172.782-.248 1.163-1.884-1.394-3.904-2.639-5.83-3.987-2.072-1.451-3.206-3.246-4.953-4.961-1.494-1.466-3.904-2.178-5.213-3.749-2.997-3.601-1.386-10.145-1.054-14.33.272-3.411.144-6.826-.855-9.984 2.121-3.605 3.465-7.682 5.613-11.767 4.996-9.502 10.957-19.318 17.327-27.973 5.838-7.93 16.452-13.352 25.275-17.343 4.402-1.99 12.848-4.568 11.958-10.671-.321-2.199-3.075-2.238-4.424-1.169-2.435 1.932-6.161 2.067-9.045 3.029-4.024 1.341-8.187 2.99-11.772 5.276-7.549 4.811-14.562 8.899-19.9 16.255-5.932 8.175-11.345 17.294-15.873 26.302-1.63 3.243-2.978 6.454-3.872 9.939-2.572-4.044-4.549-8.296-7.069-12.545-1.638-2.76-3.76-5.17-5.406-7.913-.289-.48-.54-.975-.793-1.469.499-1.159.456-2.582-.519-3.672-4.864-5.437-3.055-11.621-4.937-17.98-.341-1.153-.504-1.321-.572-1.138l-.039-.703c-.051-.852.17-1.833.195-2.678.114-3.638-.358-7.286-.465-10.917-.416-13.993 6.798-26.11 10.536-39.118 3.588-12.485 14.574-23.125 24.312-31.339 5.081-4.285 11.133-6.999 16.871-10.266 1.317-.75 2.603-1.475 3.885-2.174.247 7.34 5.151 15.498 8.208 21.615 2.202 4.402 4.951 8.398 7.376 12.667 2.657 4.675 4.235 9.893 6.47 14.776 4.609 10.066 11.431 18.88 16.507 28.689 2.244 4.338 3.824 8.761 6.672 12.763 3.302 4.638 6.21 8.528 7.955 14.063 7.262 23.02 13.908 46.375 20.335 69.649 3.216 11.645 6.746 23.197 10.154 34.785 3.13 10.639 5.563 21.739 9.378 32.146.695 1.896 1.564 3.672 2.505 5.405-8.842 1.659-15.395 3.61-22.052 10.538-6.689 6.961-12.413 14.553-17.469 22.766-2.715 4.41-5.1 9.058-7.899 13.402-2.187 3.393-4.726 6.455-6.385 10.168-1.364 3.042-2.393 5.651-3.134 8.457zm142.713 96.323c-4.559-2.916-10.111-.627-14.797 1.033-5.872 2.079-11.683 3.761-17.836 4.814-12.125 2.077-26.687 4.723-38.723 1.287-5.699-1.626-10.46-3.948-15.231-7.368-4.663-3.344-10.45-4.341-14.982-7.928-4.359-3.451-9.121-7.759-12.597-12.339 2.844-1.693 4.533-5.14 2.139-8.416-3.051-4.175-4.139-9.152-5.881-13.943-1.902-5.233-3.922-10.38-5.792-15.631-1.988-5.583-3.023-11.477-5.284-16.96-2.216-5.374-5.307-10.612-8.527-15.444-.124-.188-.263-.357-.392-.537 1.563-3.518 2.937-7.174 4.761-10.633 2.021-3.831 4.913-7.092 7.138-10.793 2.188-3.641 4.207-7.365 6.46-10.976 4.989-7.995 10.538-15.141 16.963-22.033 5.312-5.699 12.233-8.62 18.083-13.508 1.387 2.387 2.84 4.74 4.104 7.244 2.739 5.429 4.378 11.306 6.94 16.814 2.495 5.362 5.259 10.776 8.189 15.91 2.509 4.396 6.178 6.996 9.299 10.73 2.621 3.137 6.622-.386 6.13-3.569-.544-3.522-3.019-6.177-4.867-9.108-2.873-4.559-5.279-9.392-7.802-14.153-4.761-8.988-7.458-18.769-12.952-27.397-5.891-9.253-7.629-20.818-11.03-31.147-3.552-10.789-7.417-21.476-11.086-32.226-7.765-22.755-15.624-45.638-22.078-68.805-1.311-4.705-2.291-9.511-4.109-14.062-1.745-4.367-4.502-7.789-7.201-11.571-5.68-7.961-9.271-17.795-14.239-26.295-3.35-5.733-6.598-11.481-9.058-17.662-1.965-4.942-3.78-9.806-6.618-14.328-3.067-4.888-5.914-9.698-8.567-14.833-1.324-2.564-2.526-5.253-3.957-7.757-1.573-2.75-4.214-5.033-5.076-8.129 4.004-1.984 8.08-3.483 12.872-3.875 14.387-1.18 28.047-6.388 42.099-9.253 14.573-2.971 29.399-4.741 44.04-7.363 6.833-1.224 13.61-2.354 20.494-3.218 7.509-.943 14.645-3.886 22.029-5.51 15.173-3.338 30.366-6.454 45.68-9.076 8.862-1.517 17.684-2.339 26.581-3.487 5.324-.686 10.69-1.977 16.065-2.805 1.17 4.284 1.705 8.8 4.357 12.555 3.614 5.119 9.436 7.597 14.646 10.695 11.291 6.713 23.903 12.846 37.539 10.755a2.546 2.546 0 0 0 1.008-.377c1.97 4.504 3.806 9.043 4.93 13.835.965 4.113 3.314 7.363 4.803 11.232 1.758 4.568 2.61 9.22 4.87 13.648 2.248 4.404 5.307 8.387 7.447 12.838 2.373 4.932 2.81 10.328 5.53 15.221 2.652 4.767 4.944 9.201 6.806 14.347 1.881 5.202 3.957 10.462 7.077 15.061 3.195 4.715 6.288 8.353 8.193 13.822 1.707 4.904 3.904 9.364 6.672 13.757 2.785 4.42 5.746 8.692 7.727 13.552 2.183 5.353 4.307 10.637 7.002 15.769 5.277 10.054 11.276 19.702 16.548 29.766 4.187 7.993 9.075 15.534 13.558 23.335-.265.15-.525.305-.779.486-2.569 1.832-4.464 4.78-6.68 7.017-2.164 2.185-4.388 4.37-6.183 6.88-2.095 2.929-2.706 5.894-4.118 9.114-1.072 2.444-3.145 4.243-4.287 6.677-1.335 2.849-2.066 6.165-2.752 9.208-1.046 4.637-2.836 11.092-1.43 16.003-1.955.623-3.911 1.247-5.894 1.787-4.894 1.334-9.624 1.409-14.619 1.797-9.572.744-19.233 3.749-28.255 6.863-9.286 3.205-18.491 4.554-27.959 6.882-4.571 1.123-9.053 2.577-13.468 4.202-2.361.869-4.7 2.001-7.124 2.682-2.807.789-5.738.782-8.585 1.392-4.071.871-7.671 3.164-11.641 4.411a125.139 125.139 0 0 1-13.95 3.491c-9.448 1.808-19.191 3.182-28.712 4.644-5.114.786-10.21 1.172-15.259 2.387-5.143 1.237-10.123 3.05-15.258 4.341-3.997 1.005-7.884 1.85-11.658 3.294-1.421-.102-2.847-.134-4.288.059-9.502 1.284-19.305 6.005-28.277 9.314-15.733 5.802-32.571 14.024-41.845 28.872-4.329 6.932-4.855 14.961-5.057 22.896-.22 8.685-.152 16.264 3.841 24.187 6.787 13.464 25.11 17.715 38.984 17.527.856-.012 1.539-.294 2.062-.722 3.898.193 7.814.322 11.581.07 7.083-.477 13.894-2.537 20.72-4.333 3.797-.999 7.617-1.939 11.524-2.391 2.578-.298 4.293-.41 5.699-2.154 1.296 3.868 2.589 7.736 3.664 11.66.708 2.587 1.164 5.365 1.425 8.203a3.38 3.38 0 0 0-1.519-2.251zm46.983 21.209c-.139-.099-.523-.188-1.077-.563-1.78-1.207-3.339-3.025-4.673-4.698-3.526-4.42-6.262-8.845-9.068-13.724-1.294-2.251-4.187-.597-3.88 1.636 1.695 12.315-9.592 19.895-18.431 26.127-.657.464-1.67 1.001-2.648 1.573.188-1.05.34-2.13.443-2.543 1.455-5.783 2.294-11.217 2.425-17.176.134-6.032.042-12.069-1.523-17.935-1.711-6.414-4.593-12.479-6.649-18.787-1.739-5.337-3.58-11.623-6.923-16.214a15.883 15.883 0 0 0-1.1-1.335 42.663 42.663 0 0 0 7.216-2.378c5.121-2.203 10.242-3.528 15.5-4.837.074-.01.146-.023.22-.031 3.382-.43 6.754-.9 10.122-1.393 1.091 1.34 1.5 4.304 2.215 5.846 3.294 7.094 7.191 13.758 10.014 21.1 1.367 3.555 2.278 7.148 3.006 10.785a23.538 23.538 0 0 0-2.808 1.941c-4.224 3.381.115 8.892 4.57 8.223l.027.168c1.069 6.42 3.13 12.712 3.263 19.268.018.792.176 3.711-.241 4.947zm158.734-103.579c.185-2.719-1.174-5.522-4.59-6.584.543.17-.71-1.456-1.111-2.552-.692-1.892-1.039-3.922-1.522-5.872-.147-.599-.266-1.178-.388-1.759.209.206.412.418.634.611 1.133.987 2.6 1.934 4.082 2.212 1.751 2.684 4.211 4.984 6.743 7.015 2.366 1.896 5.16 3.52 7.021 5.973 3.386 4.46 3.724 8.516.807 13.118-2.457 3.876-4.235 5.971-8.483 7.875-4.835 2.168-9.877 3.974-14.908 5.624-10.819 3.547-21.826 6.549-32.873 9.291-10.683 2.652-21.379 5.324-32.034 8.089-10.489 2.723-20.626 6.675-31.055 9.625-10.753 3.041-21.668 5.599-32.369 8.804-4.971 1.488-9.693 3.589-14.802 4.555-.432.082-.845.171-1.258.26-.151-.672-.282-1.36-.44-2.027-.898-3.787-2.169-7.509-3.657-11.166 1.828-.282 3.771-.506 4.251-.622 2.898-.695 5.875.168 8.624-.591 6.049-1.668 12.1-3.356 18.334-4.732 15.475-3.418 30.914-7.13 45.986-12.056 14.813-4.843 29.254-11.212 44.213-15.518 11.788-3.393 23.404-7.08 34.415-12.205 1.479.198 3.016-.372 3.915-2.037l.48-.889c.871-1.618.735-3.213-.015-4.442zm-19.549-29.666c-1.33 7.312-.296 14.38 1.063 21.604.628 3.343 1.732 6.789 3.695 9.486-2.177 1.063-4.376 2.124-6.804 2.87-6.947 2.133-13.869 4.329-20.831 6.405-15.265 4.55-30.026 11.04-45.173 16.023-14.712 4.839-29.765 8.577-44.852 12.032-3.723.852-7.475 1.587-11.191 2.469-1.279.303-2.795.483-3.987 1.057-.579.278-1.755 1.421-2.26 1.595-2.109.725-4.219.267-6.436 1.306-2.034.952-3.974 2.095-5.929 3.198-1.944-4.239-4.087-8.388-6.206-12.424-.875-1.668-1.576-3.802-2.411-5.878 1.053-.168 2.106-.32 3.161-.493 28.766-4.711 57.231-10.538 85.146-18.99 1.752-.53 1.423-3.155-.432-3.193-6.374-.128-12.611 1.81-18.745 3.34-6.701 1.67-13.472 2.933-20.15 4.716-14.372 3.838-29.053 6.117-43.711 8.589-2.608.44-5.216.858-7.822 1.271-1.189-1.507-2.711-2.596-4.838-2.822-3.182-.338-6.455 1.224-9.485 1.95-4.78 1.145-9.535 2.004-14.172 3.704-3.251 1.191-6.374 2.791-9.663 3.881a1102.6 1102.6 0 0 1-6.895 1.34c-.782.077-1.529.153-2.247.282-.711-.384-1.418-.764-2.115-1.142-1.136-.618-2.376.88-1.407 1.823.055.054.112.106.169.159a171.94 171.94 0 0 0-4.05.882c-3.702.867-7.443 1.665-11.124 2.603-3.426.873-6.644 2.747-10.168 3.176-1.438.175-1.537 2.33 0 2.322 5.971-.032 12.182-1.536 18.046-2.627 1.58-.294 3.158-.594 4.737-.892.699 2.005 2.917 3.498 4.993 1.953 1.06-.789 2.376-1.1 3.758-1.261.351.464.685.938.971 1.437 2.098 3.659 3.155 8.286 4.314 12.301.316 1.096.649 2.186.99 3.275a3.326 3.326 0 0 0-1.362-.171c-11.604 1.136-22.3 6.315-33.832 7.488-5.361.546-10.765-.012-16.13.471-.668.059-1.524.216-2.473.401-5.135-1.845-10.256-3.859-15.263-5.901-5.02-2.047-8.108-5.148-10.333-10.084-2.939-6.518-2.102-13.968-1.945-20.944.164-7.33 2.041-13.159 7.161-18.469 4.764-4.942 9.666-9.864 15.581-13.43 6.821-4.113 14.627-6.731 22.025-9.603 6.904-2.681 13.724-5.809 20.717-8.223 3.292-1.136 6.782-1.435 10.054-2.545.805-.273 1.58-.674 2.344-1.127 2.537-.399 5.076-.783 7.587-1.311 4.434-.932 8.71-2.458 13.168-3.309 5.118-.976 10.319-1.088 15.464-1.851 9.907-1.47 19.999-2.465 29.833-4.344 9.472-1.809 18.441-6.01 27.928-6.902 10.198-.958 19.788-5.87 30.066-7.14 10.43-1.289 19.841-3.848 29.967-6.592 4.749-1.286 9.628-2.179 14.479-2.994 4.841-.814 9.733-.366 14.605-1.012 10.039-1.33 19.649-5.2 29.573-7.274.988-.207 1.983-.403 2.981-.597-10.7 10.14-17.405 23.137-20.134 38.136zm40.983-63.677c-2.358 3.178-4.722 6.337-8.461 7.982-8.288 3.648-18.44 4.222-27.229 6.395.654-3.831.228-8.18.933-11.816.528-2.725 1.006-5.854 2.173-8.403.99-2.161 2.688-3.859 3.639-6.053 1.127-2.601 1.359-5.43 2.735-7.953 1.511-2.767 3.774-4.956 5.781-7.344 1.856-2.208 3.207-4.74 4.988-6.972.187-.234.389-.458.593-.678.81 1.481 1.601 2.972 2.36 4.483 4.644 9.244 7.557 20.278 15.4 27.213-1.033 1-2.065 2.003-2.912 3.146z" fill="currentColor" opacity="1" data-original="currentColor"></path><path d="M363.785 133.022c-5.072-7.336-7.125-16.054-11.138-23.954-4.25-8.369-11.414-15.147-16.061-23.38-3.579-6.341-5.731-15.756-11.499-20.478-1.279-1.047-2.871-1.407-4.376-.565-2.318 1.297-5.246.077-7.672.023-2.227-.05-4.466.351-6.664.666-5.541.792-10.827 2.31-16.252 3.62-11.326 2.735-22.965 3.615-34.4 5.746-23.744 4.427-46.779 14.174-70.92 15.635-.655.04-1.115.334-1.391.732-.374-.795-1.097-1.442-2.175-1.568-1.932-.225-2.18-.156-4.076.258-1.05.229-1.995 1.431-1.919 2.52.244 3.477 1.422 6.092 2.911 9.219 2.003 4.205 2.246 8.482 3.838 12.763 1.151 3.091 3.09 5.302 3.735 8.623.631 3.25 1.035 6.677 2.188 9.798 1.075 2.91 3.024 5.143 4.637 7.74 2.439 3.929 3.236 8.515 4.969 12.756 1.385 3.388 3.422 6.493 4.71 9.915 1.613 4.287 1.795 9.037 2.834 13.473.246 1.052 1.193 1.982 2.237 2.238 2.241.549 3.966.53 6.208-.077 3.103-.842 5.542-.819 8.697-.994 2.679-.149 5.257-1.224 7.905-1.602 3.44-.491 6.939-.162 10.4-.607 14.353-1.852 28.671-4.435 42.936-6.869 13.996-2.388 27.857-5.379 41.555-9.115 7.008-1.911 14.022-3.546 21.167-4.852 3.625-.662 7.247-1.61 10.938-1.719 3.45-.101 6.58.264 10.025-.244 1.325-.196 2.399-1.552 2.75-2.75 1.834-6.248-2.756-12.119-6.097-16.951zm-8.767 12.245c-2.958.266-5.845.956-8.754 1.519-6.773 1.312-13.484 2.664-20.146 4.48-13.322 3.63-26.663 6.902-40.252 9.392-13.336 2.444-26.738 4.583-40.13 6.71-6.575 1.044-13.452.581-19.882 2.225-3.092.791-5.813.654-8.914 1.021-1.98.235-4.068 1.589-6.129 1.97-.529-3.162-.815-6.387-1.674-9.462-.89-3.183-2.467-6.052-3.874-9.018-1.789-3.771-2.816-7.786-4.429-11.621-1.505-3.576-3.842-6.141-5.908-9.333-3.477-5.373-2.86-12.295-5.986-17.828-2.063-3.651-2.607-6.525-3.72-10.455-.995-3.514-3.268-6.676-4.273-10.16l.29-.011c1.264.138 2.039-.522 2.338-1.415.283.308.692.53 1.228.579 5.442.499 10.64 1.07 16.072.214 6.426-1.014 12.815-2.395 19.224-3.523 13.051-2.298 25.869-5.746 38.948-7.885 12.198-1.994 24.542-3.119 36.529-6.242 5.589-1.456 11.665-3.387 17.465-3.566 3.466-.107 6.205.272 8.957-.75 1.637 2.123 2.725 5.742 3.749 7.671 1.809 3.411 3.149 7.069 5.108 10.4 4.127 7.021 9.667 13.093 13.876 19.978 4.304 7.041 5.807 15.413 9.676 22.653 1.698 3.177 6.866 8.246 7.866 12.509-2.414.016-4.845-.27-7.255-.052zM363.802 380.302c-2.813 1.297-5.896 1.335-8.887 1.945-3.006.613-5.954 1.503-8.961 2.123-6.414 1.322-12.768 2.013-19.059 3.919-6.088 1.845-12.381 2.463-18.599 3.701-6.948 1.384-13.794 2.967-20.822 3.955-6.038.848-11.394 2.789-17.275 4.228-5.967 1.46-12.123 1.994-18.157 3.091-13.199 2.399-26.929 3.894-39.867 7.432-.582.159-.335 1.01.247.895 13.245-2.62 27.046-3.42 40.439-5.355 6.687-.966 13.515-1.432 20.059-3.203 6.351-1.718 12.313-3.119 18.864-4.051 13.453-1.914 26.952-4.805 40.062-8.268 6.266-1.656 12.792-2.15 19.103-3.654 4.618-1.1 10.821-1.411 14.428-4.716 1.158-1.061-.312-2.623-1.575-2.042zM412.623 348.348c-2.606 1.787-7.844 2.445-10.834 3.475-3.294 1.135-6.636 2.121-9.997 3.03a377.793 377.793 0 0 1-22.404 5.346c-7.777 1.606-15.329 3.654-23.165 5.084-8.596 1.569-17.129 3.476-25.705 5.147-16.906 3.294-33.887 6.214-50.696 9.988-8.187 1.838-16.311 4.025-24.565 5.545-6.607 1.216-14.492.851-20.546 3.829-1.539.757-.193 2.99 1.336 2.286 3.802-1.751 9.934-1.734 14.039-2.237 3.526-.432 7.028-.943 10.522-1.599 8.297-1.558 16.481-3.701 24.745-5.424 17.237-3.595 34.623-6.403 51.904-9.766 8.162-1.588 16.296-3.336 24.511-4.638 7.738-1.228 15.174-3.446 22.856-4.968 7.486-1.482 14.982-3.579 22.292-5.77 5.305-1.591 12.983-3.565 17.087-7.541.905-.879-.295-2.531-1.38-1.787zM418.175 340.203c-15.663-2.65-33.269 2.725-48.354 6.482-17.047 4.246-34.051 8.169-50.867 13.323-1.538.471-.892 2.868.666 2.418 16.193-4.693 32.558-8.309 48.949-12.187 7.846-1.857 15.644-3.815 23.596-5.181 8.621-1.481 17.432-1.633 26.011-3.244.789-.148.805-1.475-.001-1.611zM441.233 365.129c-3.475 1.961-9.535 1.768-13.495 2.601-5.202 1.096-10.371 2.408-15.563 3.556-10.252 2.265-20.608 4.87-31.077 5.973-2.26.239-2.297 3.804 0 3.576 11.237-1.116 22.18-3.866 33.21-6.136 5.877-1.209 11.671-2.696 17.497-4.122 3.424-.839 8.17-1.133 10.609-3.915.714-.814-.18-2.096-1.181-1.533zM286.242 363.911c-5.378-.843-10.191 1.255-15.37 2.417-6.854 1.537-13.615 2.7-20.348 4.817-13.516 4.249-28.574 6.419-41.318 12.626-1.644.8-.206 3.214 1.431 2.445 12.333-5.799 26.831-7.412 39.797-11.619 5.851-1.898 11.734-3.481 17.792-4.56 6.045-1.078 11.604-3.9 17.775-4.347.945-.07 1.314-1.61.241-1.779zM216.155 401.772c-4.434-.836-8.728 2.027-12.829 3.347-6.493 2.091-12.705 5.266-19.557 5.585-.574.026-.56.83 0 .882 2.4.221 4.743.708 7.141.309 2.853-.477 5.617-1.934 8.417-2.681 2.729-.728 5.528-1.262 8.196-2.211 2.798-.995 5.342-2.711 8.341-3.088 1.1-.137 1.62-1.892.291-2.143zM228.941 420.659c-6.983.073-13.793 2.222-20.488 4.007-7.508 2.003-15.206 3.198-22.653 5.434-1.598.48-.927 2.959.692 2.507 13.994-3.903 28.576-6.443 42.764-9.622 1.312-.295 1.01-2.34-.315-2.326zM235.547 434.017c-2.765 1.856-6.757.975-9.908 1.522-5.026.87-10.122 2.127-15.009 3.578-2.23.662-1.272 4.18.963 3.491 5.345-1.642 10.969-3.13 16.501-3.953 3.135-.466 6.487-.439 8.719-2.998.734-.841-.223-2.342-1.266-1.64zM39.554 136.399c-.428-2.442-3.882-1.652-4.031.559l-.051-.006c-.267 2.223-1.583 4.579-2.23 6.735-.824 2.748-1.513 5.528-2.41 8.253-1.321 4.02-3.256 8.287-.338 11.873.536.66 1.681.56 2.232 0 3.262-3.311 4.206-10.079 5.132-14.536.848-4.073 2.422-8.734 1.696-12.878zM43.73 144.801c-2.221 4.358-4.423 8.671-6.578 13.057-1.468 2.989-4.52 7.226-2.129 10.379.533.7 1.303.978 2.129.557 3.016-1.535 4.695-6.779 5.933-9.795 1.689-4.117 3.46-8.177 5.188-12.284 1.087-2.589-3.274-4.403-4.543-1.914zM52.354 158.145c-1.344-2.136-3.882-2.073-5.463-.377-1.11 1.192-.201 3.157 1.14 3.343-.121.384-.259.764-.399 1.14a48.792 48.792 0 0 1-1.054 2.571c-.902 2.048-2.618 5.317-.546 7.23.669.618 1.832.562 2.298-.296 1.613-2.973 3.136-5.972 4.05-9.251.384-1.375.791-3.062-.026-4.36zM94.373 242.343c-.069-2.821-3.949-2.663-4.272 0-1.023 8.437-7.515 16.995-4.902 25.594.716 2.354 3.766 2.134 4.567 0 1.582-4.212 2.142-8.797 3.172-13.175.975-4.15 1.54-8.144 1.435-12.419zM103.531 251.718l-.789-.379c-1.781-.858-3.812 1.157-2.692 2.75-.805 2.014-2.096 3.76-2.914 5.793-1.068 2.651-1.98 5.137-3.352 7.652-1.841 3.374-3.061 6.701-.928 10.228a2.299 2.299 0 0 0 3.566.46l.398-.385c.504-.489.479-1.154.225-1.745-1.014-2.362 3.097-7.6 3.905-9.906.749-2.13.901-4.419 1.645-6.548.688-1.969 1.542-3.468 1.904-5.54.151-.867-.085-1.955-.968-2.38zM101.338 273.25c-.076 2.853-1.14 5.563-1.072 8.397.063 2.607.38 5.37 1.486 7.748.561 1.205 2.104.626 2.503-.327 1.047-2.493 1.116-5.554 1.833-8.18.66-2.418.876-5.146.821-7.638-.078-3.586-5.475-3.589-5.571 0zM142.115 360.988c-.862 1.762-2.139 3.134-2.683 5.062-.632 2.236-.676 4.504-1.506 6.708-1.329 3.525-3.767 7.42-1.173 10.935.932 1.262 2.799 1.484 3.69 0 1.606-2.681 2.46-6.306 3.438-9.294.467-1.429.695-2.844.909-4.326.367-2.559 1.208-4.007 2.178-6.248 1.403-3.244-3.237-6.138-4.853-2.837zM153.247 381.426c-.025-3.572-5.358-3.541-5.525 0-.252 5.373-2.506 11.273.191 16.262.574 1.065 2.179 1.016 2.766 0 2.69-4.658 2.608-10.988 2.568-16.262zM292.72 326.432c-5.991 2.443-12.307 2.244-18.629 3.05-6.893.878-13.982 2.227-20.724 3.894-6.847 1.695-13.693 3.399-20.547 5.059-3.762.912-7.975 1.048-10.857 3.914-1.346 1.34.669 3.309 2.068 2.068 3.408-3.021 12.355-2.896 16.728-3.57 6.861-1.059 13.574-2.747 20.42-3.888 6.69-1.115 13.338-2.399 20.062-3.273 4.769-.619 9.163-1.658 12.992-4.657 1.198-.935-.104-3.171-1.513-2.597zM409.629 305.445c-12.74 1.215-24.89 4.64-37.406 7.123-6.595 1.308-13.357 1.451-19.924 2.594-6.457 1.122-12.802 3.777-19.088 5.595-1.577.456-.917 2.873.679 2.463 25.054-6.448 52.165-4.927 76.291-15.742.972-.437.502-2.134-.552-2.033zM434.434 225.521c-1.931-5.106-3.893-11.708-7.751-15.685-.447-.46-1.308.158-.913.704 3.93 5.411 4.617 13.375 7.03 19.546 1.085 2.778 3.923 7.588 1.996 10.303-1.241 1.749-1.864 1.113-3.696.214-1.003-.492-1.916-1.189-2.807-1.852-10.541-7.862-16.249-20.119-21.049-31.991-2.238-5.534-5.177-10.869-7.112-16.495-1.106-3.214-2.174-6.477-3.055-9.758-.322-1.198-2.744-7.655-2.256-8.423 1.22-1.927 3.925 2.236 4.628 2.929 2.518 2.492 5.091 4.245 7.157 7.222 3.437 4.953 5.467 10.856 8.996 15.618 1.015 1.371 3.343.062 2.325-1.36-2.683-3.747-4.315-8.549-6.796-12.527-2.25-3.607-4.275-6.551-7.455-9.41-3.293-2.96-6.892-9.606-12.04-6.962-.481.247-.875.894-.827 1.443.542 6.275 3.501 13.136 5.826 18.982 2.391 6.015 5.75 11.469 8.306 17.396 5.247 12.168 10.008 23.973 19.533 33.465 2.912 2.902 10.802 9.359 13.623 3.04 2.305-5.163-1.905-11.745-3.663-16.399zM379.296 101.09c-.777-.417-2.082.302-1.671 1.285 1.322 3.163 1.808 5.963 1.76 9.401-.007.441.095 3.128-.428 3.349-.575.244-3.513-3.601-3.834-3.999-4.951-6.149-8.428-13.42-11.581-20.606-.877-1.999-3.777-.269-2.927 1.711 2.586 6.017 5.396 11.987 9.058 17.438 1.891 2.814 5.498 9.095 9.443 9.365 6.867.467 4.448-15.661.18-17.944z" fill="currentColor" opacity="1" data-original="currentColor"></path></g></svg>