<svg xmlns="http://www.w3.org/2000/svg" version="1.1" xmlns:xlink="http://www.w3.org/1999/xlink" width="512" height="512" x="0" y="0" viewBox="0 0 682.667 682.667" style="enable-background:new 0 0 512 512" xml:space="preserve" class=""><g><defs><clipPath id="a" clipPathUnits="userSpaceOnUse"><path d="M0 512h512V0H0Z" fill="currentColor" opacity="1" data-original="currentColor" class=""></path></clipPath></defs><g clip-path="url(#a)" transform="matrix(1.33333 0 0 -1.33333 0 682.667)"><path d="M0 0v-241.26C0-254.371-10.628-265-23.74-265h-94.46c-13.111 0-23.74 10.629-23.74 23.74V0a66.117 66.117 0 0 0 21.79 49.06 66.096 66.096 0 0 1 21.8 49.06v103.73a3.59 3.59 0 0 0 3.59 3.59h47.571a3.59 3.59 0 0 0 3.589-3.59V98.12c0-9.35 1.98-18.48 5.7-26.84a66.075 66.075 0 0 1 16.11-22.22A66.139 66.139 0 0 0 0 0Z" style="stroke-width:15;stroke-linecap:round;stroke-linejoin:round;stroke-miterlimit:10;stroke-dasharray:none;stroke-opacity:1" transform="translate(319.47 272.5)" fill="none" stroke="currentColor" stroke-width="15" stroke-linecap="round" stroke-linejoin="round" stroke-miterlimit="10" stroke-dasharray="none" stroke-opacity="" data-original="currentColor"></path><path d="M0 0h-37.047a3.59 3.59 0 0 1-3.59-3.59v-22.971H3.59V-3.59A3.59 3.59 0 0 1 0 0Z" style="stroke-width:15;stroke-linecap:round;stroke-linejoin:round;stroke-miterlimit:10;stroke-dasharray:none;stroke-opacity:1" transform="translate(267.021 504.5)" fill="none" stroke="currentColor" stroke-width="15" stroke-linecap="round" stroke-linejoin="round" stroke-miterlimit="10" stroke-dasharray="none" stroke-opacity="" data-original="currentColor"></path><path d="M0 0v-75.869l-54.754-9.454V0a3.59 3.59 0 0 0 3.59 3.59H-3.59A3.59 3.59 0 0 0 0 0Z" style="stroke-width:15;stroke-linecap:round;stroke-linejoin:round;stroke-miterlimit:10;stroke-dasharray:none;stroke-opacity:1" transform="translate(275.875 474.35)" fill="none" stroke="currentColor" stroke-width="15" stroke-linecap="round" stroke-linejoin="round" stroke-miterlimit="10" stroke-dasharray="none" stroke-opacity="" data-original="currentColor"></path><path d="M0 0v-105.316c0-8.57-6.95-15.52-15.52-15.52h-59.82v194.97h59.82c8.57 0 15.52-6.95 15.52-15.52V36.249" style="stroke-width:15;stroke-linecap:round;stroke-linejoin:round;stroke-miterlimit:10;stroke-dasharray:none;stroke-opacity:1" transform="translate(252.87 184.186)" fill="none" stroke="currentColor" stroke-width="15" stroke-linecap="round" stroke-linejoin="round" stroke-miterlimit="10" stroke-dasharray="none" stroke-opacity="" data-original="currentColor"></path><path d="M0 0c0-9.35 1.98-18.48 5.7-26.84a66.075 66.075 0 0 1 16.11-22.22A66.139 66.139 0 0 0 43.6-98.12v-215.167c0-13.111-10.629-23.74-23.74-23.74H-89.6c-13.111 0-23.74 10.629-23.74 23.74V-98.12a66.117 66.117 0 0 0 21.79 49.06A66.096 66.096 0 0 1-69.75 0v122.675c0 5.93 4.807 10.738 10.737 10.738h48.276c5.929 0 10.737-4.808 10.737-10.738V74.868" style="stroke-width:15;stroke-linecap:round;stroke-linejoin:round;stroke-miterlimit:10;stroke-dasharray:none;stroke-opacity:1" transform="translate(432.81 344.527)" fill="none" stroke="currentColor" stroke-width="15" stroke-linecap="round" stroke-linejoin="round" stroke-miterlimit="10" stroke-dasharray="none" stroke-opacity="" data-original="currentColor"></path><path d="M0 0v-14.712c0-9.35 1.98-18.48 5.7-26.84a66.075 66.075 0 0 1 16.11-22.22 66.139 66.139 0 0 0 21.79-49.06v-5.95l-70.925-21.539a25.98 25.98 0 0 0-15.09 0l-70.925 21.539v5.95a66.117 66.117 0 0 0 21.79 49.06 66.096 66.096 0 0 1 21.8 49.06V74.24H0V35.666" style="stroke-width:15;stroke-linecap:round;stroke-linejoin:round;stroke-miterlimit:10;stroke-dasharray:none;stroke-opacity:1" transform="translate(432.81 359.24)" fill="none" stroke="currentColor" stroke-width="15" stroke-linecap="round" stroke-linejoin="round" stroke-miterlimit="10" stroke-dasharray="none" stroke-opacity="" data-original="currentColor"></path><path d="M0 0c0-32.682-14.55-59.176-32.498-59.176-17.948 0-32.498 26.494-32.498 59.176s14.55 59.175 32.498 59.175C-14.55 59.175 0 32.682 0 0Z" style="stroke-width:15;stroke-linecap:round;stroke-linejoin:round;stroke-miterlimit:10;stroke-dasharray:none;stroke-opacity:1" transform="translate(430.438 117.438)" fill="none" stroke="currentColor" stroke-width="15" stroke-linecap="round" stroke-linejoin="round" stroke-miterlimit="10" stroke-dasharray="none" stroke-opacity="" data-original="currentColor"></path><path d="M0 0h33.877" style="stroke-width:15;stroke-linecap:round;stroke-linejoin:round;stroke-miterlimit:10;stroke-dasharray:none;stroke-opacity:1" transform="translate(381.002 266.55)" fill="none" stroke="currentColor" stroke-width="15" stroke-linecap="round" stroke-linejoin="round" stroke-miterlimit="10" stroke-dasharray="none" stroke-opacity="" data-original="currentColor"></path><path d="M0 0v229.5a66.12 66.12 0 0 0 5.69 26.84 66.046 66.046 0 0 0 16.1 22.22 66.096 66.096 0 0 1 21.8 49.06v18.18" style="stroke-width:15;stroke-linecap:round;stroke-linejoin:round;stroke-miterlimit:10;stroke-dasharray:none;stroke-opacity:1" transform="translate(35.59 93.57)" fill="none" stroke="currentColor" stroke-width="15" stroke-linecap="round" stroke-linejoin="round" stroke-miterlimit="10" stroke-dasharray="none" stroke-opacity="" data-original="currentColor"></path><path d="M0 0v-18.18c0-9.35 1.98-18.48 5.7-26.84a66.075 66.075 0 0 1 16.11-22.22A66.139 66.139 0 0 0 43.6-116.3v-291.83c0-13.11-10.63-23.74-23.74-23.74H-74.6c-13.11 0-23.74 10.63-23.74 23.74v28.022" style="stroke-width:15;stroke-linecap:round;stroke-linejoin:round;stroke-miterlimit:10;stroke-dasharray:none;stroke-opacity:1" transform="translate(133.93 439.37)" fill="none" stroke="currentColor" stroke-width="15" stroke-linecap="round" stroke-linejoin="round" stroke-miterlimit="10" stroke-dasharray="none" stroke-opacity="" data-original="currentColor"></path><path d="M0 0v22.54c0 1.98 1.61 3.59 3.59 3.59h47.57c1.98 0 3.59-1.61 3.59-3.59V0" style="stroke-width:15;stroke-linecap:round;stroke-linejoin:round;stroke-miterlimit:10;stroke-dasharray:none;stroke-opacity:1" transform="translate(79.18 472.82)" fill="none" stroke="currentColor" stroke-width="15" stroke-linecap="round" stroke-linejoin="round" stroke-miterlimit="10" stroke-dasharray="none" stroke-opacity="" data-original="currentColor"></path><path d="M0 0h-51.455c-8.859 0-16.042 7.182-16.042 16.042v1.527c0 8.859 7.183 16.041 16.042 16.041H0c8.859 0 16.042-7.182 16.042-16.041v-1.527C16.042 7.182 8.859 0 0 0Z" style="stroke-width:15;stroke-linecap:round;stroke-linejoin:round;stroke-miterlimit:10;stroke-dasharray:none;stroke-opacity:1" transform="translate(132.288 439.291)" fill="none" stroke="currentColor" stroke-width="15" stroke-linecap="round" stroke-linejoin="round" stroke-miterlimit="10" stroke-dasharray="none" stroke-opacity="" data-original="currentColor"></path><path d="m0 0-141.94-32.268v170.55L0 170.551Z" style="stroke-width:15;stroke-linecap:round;stroke-linejoin:round;stroke-miterlimit:10;stroke-dasharray:none;stroke-opacity:1" transform="translate(177.53 125.838)" fill="none" stroke="currentColor" stroke-width="15" stroke-linecap="round" stroke-linejoin="round" stroke-miterlimit="10" stroke-dasharray="none" stroke-opacity="" data-original="currentColor"></path><path d="M0 0c0-16.894-13.695-30.589-30.589-30.589-16.893 0-30.589 13.695-30.589 30.589" style="stroke-width:15;stroke-linecap:round;stroke-linejoin:round;stroke-miterlimit:10;stroke-dasharray:none;stroke-opacity:1" transform="translate(138.149 173.332)" fill="none" stroke="currentColor" stroke-width="15" stroke-linecap="round" stroke-linejoin="round" stroke-miterlimit="10" stroke-dasharray="none" stroke-opacity="" data-original="currentColor"></path><path d="M0 0c0 16.894 13.695 30.589 30.589 30.589 16.893 0 30.589-13.695 30.589-30.589" style="stroke-width:15;stroke-linecap:round;stroke-linejoin:round;stroke-miterlimit:10;stroke-dasharray:none;stroke-opacity:1" transform="translate(76.971 216.627)" fill="none" stroke="currentColor" stroke-width="15" stroke-linecap="round" stroke-linejoin="round" stroke-miterlimit="10" stroke-dasharray="none" stroke-opacity="" data-original="currentColor"></path></g></g></svg>