<svg xmlns="http://www.w3.org/2000/svg" version="1.1" xmlns:xlink="http://www.w3.org/1999/xlink" width="512" height="512" x="0" y="0" viewBox="0 0 68 68" style="enable-background:new 0 0 512 512" xml:space="preserve" class=""><g><path d="M58.21 61.035H9.79a3.012 3.012 0 0 1-2.983-2.662L3.359 33.2a1 1 0 0 1 .99-1.135h59.3a1 1 0 0 1 .992 1.135l-3.45 25.19a3.006 3.006 0 0 1-2.981 2.645zM5.496 34.065l3.295 24.054c.063.53.491.916.999.916h48.42c.508 0 .936-.386.997-.898l3.296-24.072z" fill="currentColor" opacity="1" data-original="currentColor" class=""></path><path d="M65.54 34.065H2.46c-1.654 0-3-1.346-3-3v-4.57c0-1.654 1.346-3 3-3h63.08c1.654 0 3 1.346 3 3v4.57c0 1.654-1.346 3-3 3zm-63.08-8.57c-.551 0-1 .449-1 1v4.57c0 .551.449 1 1 1h63.08c.551 0 1-.449 1-1v-4.57c0-.551-.449-1-1-1z" fill="currentColor" opacity="1" data-original="currentColor" class=""></path><path d="M58.5 25.5h-5a1 1 0 0 1-1-1V13.964h-37V24.5a1 1 0 0 1-1 1h-5a1 1 0 0 1-1-1V12.625c0-3.12 2.54-5.66 5.66-5.66h39.68c3.12 0 5.66 2.54 5.66 5.66v11.874a1 1 0 0 1-1 1zm-4-2h3V12.624a3.664 3.664 0 0 0-3.66-3.66H14.16a3.664 3.664 0 0 0-3.66 3.66v10.874h3V12.965a1 1 0 0 1 1-1h39a1 1 0 0 1 1 1zM19.89 55.62a3.645 3.645 0 0 1-3.64-3.64V41.12c0-2.007 1.633-3.64 3.64-3.64s3.641 1.633 3.641 3.64v10.86a3.645 3.645 0 0 1-3.64 3.64zm0-16.14c-.904 0-1.64.736-1.64 1.64v10.86c0 .904.736 1.64 1.64 1.64s1.641-.736 1.641-1.64V41.12c0-.904-.736-1.64-1.64-1.64zM34 55.62a3.645 3.645 0 0 1-3.641-3.64V41.12A3.645 3.645 0 0 1 34 37.48a3.645 3.645 0 0 1 3.64 3.64v10.86A3.645 3.645 0 0 1 34 55.62zm0-16.14c-.905 0-1.641.736-1.641 1.64v10.86c0 .904.736 1.64 1.641 1.64s1.64-.736 1.64-1.64V41.12c0-.904-.735-1.64-1.64-1.64zM48.109 55.62a3.645 3.645 0 0 1-3.64-3.64V41.12a3.645 3.645 0 0 1 3.64-3.64 3.645 3.645 0 0 1 3.641 3.64v10.86a3.645 3.645 0 0 1-3.641 3.64zm0-16.14c-.905 0-1.64.736-1.64 1.64v10.86c0 .904.735 1.64 1.64 1.64s1.641-.736 1.641-1.64V41.12c0-.904-.736-1.64-1.641-1.64z" fill="currentColor" opacity="1" data-original="currentColor" class=""></path></g></svg>