<svg xmlns="http://www.w3.org/2000/svg" version="1.1" xmlns:xlink="http://www.w3.org/1999/xlink" width="512" height="512" x="0" y="0" viewBox="0 0 64 64" style="enable-background:new 0 0 512 512" xml:space="preserve" class=""><g><g data-name="Layer 1"><path d="M54 18h-1v-5a5 5 0 0 0-5-5H16a5 5 0 0 0-5 5v5h-1a3 3 0 0 0-3 3v7a3 3 0 0 0 3 3h1v16a5 5 0 0 0 4 4.9V54a2 2 0 0 0 2 2h6a2 2 0 0 0 2-2v-2h14v2a2 2 0 0 0 2 2h6a2 2 0 0 0 2-2v-2.1a5 5 0 0 0 4-4.9V31h1a3 3 0 0 0 3-3v-7a3 3 0 0 0-3-3ZM16 36a3 3 0 0 1-3-3V19a1 1 0 0 1 1-1h17v18Zm17-18h17a1 1 0 0 1 1 1v14a3 3 0 0 1-3 3H33Zm-17-8h32a3 3 0 0 1 3 3v3.18a3 3 0 0 0-1-.18H14a3 3 0 0 0-1 .18V13a3 3 0 0 1 3-3Zm-6 19a1 1 0 0 1-1-1v-7a1 1 0 0 1 1-1h1v9Zm13 25h-6v-2h6Zm18 0v-2h6v2Zm7-4H16a3 3 0 0 1-3-3V37a4.92 4.92 0 0 0 3 1h32a4.92 4.92 0 0 0 3-1v10a3 3 0 0 1-3 3Zm7-22a1 1 0 0 1-1 1h-1v-9h1a1 1 0 0 1 1 1Z" fill="currentColor" opacity="1" data-original="currentColor" class=""></path><path d="M24 14h16a1 1 0 0 0 0-2H24a1 1 0 0 0 0 2ZM22.87 41.5l-4.22-.94A3 3 0 0 0 15 43.49V45a3 3 0 0 0 3 3h6a2 2 0 0 0 2-2v-.59a4 4 0 0 0-3.13-3.91ZM18 46a1 1 0 0 1-1-1v-1.51a1 1 0 0 1 .37-.78 1 1 0 0 1 .85-.19l4.21.93a2 2 0 0 1 1.57 2V46ZM45.35 40.56l-4.22.94A4 4 0 0 0 38 45.41V46a2 2 0 0 0 2 2h6a3 3 0 0 0 3-3v-1.51a3 3 0 0 0-3.65-2.93ZM47 45a1 1 0 0 1-1 1h-6v-.59a2 2 0 0 1 1.57-2l4.21-.93a1 1 0 0 1 .85.19 1 1 0 0 1 .37.78ZM35 45h-6a1 1 0 0 0 0 2h6a1 1 0 0 0 0-2ZM36 41h-8a1 1 0 0 0 0 2h8a1 1 0 0 0 0-2Z" fill="currentColor" opacity="1" data-original="currentColor" class=""></path></g></g></svg>