<svg xmlns="http://www.w3.org/2000/svg" version="1.1" xmlns:xlink="http://www.w3.org/1999/xlink" width="512" height="512" x="0" y="0" viewBox="0 0 496 496" style="enable-background:new 0 0 512 512" xml:space="preserve" class=""><g><path d="M144.008 300.832c-28.961-16.8-67.086-16.785-96-.016-14.617 8.407-26.785 20.567-35.168 35.168C4.44 350.464 0 367.063 0 384s4.441 33.535 12.824 47.984a95.48 95.48 0 0 0 35.168 35.176C62.472 475.56 79.07 480 96 480s33.527-4.441 47.992-12.824c14.617-8.406 26.785-20.567 35.168-35.168C187.56 417.535 192 400.938 192 384s-4.441-33.535-12.824-47.984a95.56 95.56 0 0 0-35.168-35.184zm-1.336 148.031-7.742-13.422-13.86 8 7.73 13.399c-7.84 3.48-16.226 5.633-24.8 6.465V448H88v15.297c-8.566-.824-16.953-2.977-24.8-6.465l7.73-13.398-13.86-8-7.742 13.421a79.295 79.295 0 0 1-18.191-18.19l13.422-7.743-8-13.86-13.422 7.747c-3.528-7.825-5.754-16.184-6.617-24.809H32v-16H16.52a79.56 79.56 0 0 1 6.617-24.816l13.422 7.746 8-13.86-13.422-7.742a79.45 79.45 0 0 1 18.191-18.191l7.742 13.422 13.86-8-7.746-13.422A79.659 79.659 0 0 1 88 304.52V320h16v-15.48a79.56 79.56 0 0 1 24.816 6.617l-7.746 13.422 13.86 8 7.742-13.422a79.295 79.295 0 0 1 18.191 18.191l-13.422 7.742 8 13.86 13.422-7.746c3.528 7.824 5.754 16.191 6.617 24.816H160v16h15.48a79.56 79.56 0 0 1-6.617 24.816l-13.422-7.746-8 13.86 13.422 7.742a79.295 79.295 0 0 1-18.191 18.191zm0 0" fill="currentColor" opacity="1" data-original="currentColor" class=""></path><path d="M96 344c-22.055 0-40 17.945-40 40s17.945 40 40 40 40-17.945 40-40-17.945-40-40-40zm0 64c-13.23 0-24-10.77-24-24s10.77-24 24-24 24 10.77 24 24-10.77 24-24 24zm0 0" fill="currentColor" opacity="1" data-original="currentColor" class=""></path><path d="M88 376h16v16H88zM495.719 239.281a58.3 58.3 0 0 0-.84-5.57l-15.2-76.078c-4.128-20.656-19.382-36.738-38.695-42.856C450.207 106.023 456 93.687 456 80V48c0-12.77-4.969-24.824-14.055-34.008C432.825 4.97 420.77 0 408 0c-26.473 0-48 21.527-48 48h-24v16h24v16c0 20.71 13.207 38.344 31.625 45.063l-72.45 72.449-73.167-11.696-27.848-62.695 39.2-63.305C274.335 32.375 303.733 16 336 16V0c-37.84 0-72.328 19.207-92.238 51.39l-69.563 112.32L56 51.735C42.258 38.641 26.113 32 8 32H0v290.77l13.863-14.922C35.336 284.727 64.496 272 96 272c7.434 0 14.871.727 22.105 2.168 41.52 8.36 75.344 40.184 86.168 81.121 2.47 9.2 3.727 18.863 3.727 28.711v24h174.246l-5.101 25.586c-.137.629-.52 1.156-1.04 1.414l-22.234 11.129c-6.086 3.039-9.871 9.144-9.871 15.95 0 9.882 8.04 17.921 17.922 17.921H480c8.824 0 16-7.176 16-16V244.8c0-1.863-.09-3.64-.281-5.519zM395.367 424l3.52-17.625c5.37-2.598 9.113-8.094 9.113-14.613l-2.398-79.922c0-9.55-5.48-17.848-13.602-21.703v-18.32a233.155 233.155 0 0 0 26.566-2.391C427.441 312.793 432 357.266 432 401.762V424zm38.938-157.441c15.351-3.207 30.437-7.872 44.941-14.102l.754-.32V424h-32v-22.238c0-45.57-4.664-91.106-13.695-135.203zM464 160.777l14.871 74.453-5.95 2.54a220.657 220.657 0 0 1-49.495 14.687c-10.762 1.984-21.899 2.95-33.137 3.262-.883-4.078-1.992-8.11-3.57-12-2.414-6.168-5.758-11.918-9.903-17.23l62.192-62.192c5.719-5.711 8.992-13.602 8.992-21.656 0-2.512-.398-4.946-.984-7.32 8.511 5.863 14.847 14.777 16.984 25.456zM376 270.56v15.847l-72-13.094V256h70.023a55.597 55.597 0 0 1 1.704 8.969c.21 1.863.273 3.726.273 5.59zm45.586-141.903c2.262.64 4.375 1.895 6.117 3.64A14.518 14.518 0 0 1 432 142.642c0 3.84-1.566 7.605-4.297 10.343l-62.137 62.137c-8.023-6.648-17.277-11.367-27.367-14.008l68.824-68.824c3.747-3.746 9.168-5.336 14.563-3.633zM408 16a32.047 32.047 0 0 1 22.633 9.305C436.672 31.415 440 39.48 440 48h-64c0-17.648 14.352-32 32-32zm-32 64V64h64v16c0 17.648-14.352 32-32 32s-32-14.352-32-32zm-168.047 59.602 19.2 43.207-39.458-6.313-1.632-1.543zM44.977 63.328 163.937 176h-25.265l-29.406-22.063-78.243-78.234c-4.28-4.262-9.398-7.43-15.023-9.414V48.594c10.68 1.62 20.39 6.558 28.977 14.734zM32 164c0 1.344.137 2.68.328 4H16V84.047c1.313.875 2.566 1.832 3.703 2.96L68.687 136H60c-15.441 0-28 12.559-28 28zm28-12h24.688l13.656 13.656L112.078 176H60a12.106 12.106 0 0 1-8.535-3.535 8.64 8.64 0 0 1-1.082-1.29C48.848 169.146 48 166.595 48 164c0-6.617 5.383-12 12-12zM16 284.098V184h24.406c5.258 5.145 12.196 8 19.594 8h67.809a200.715 200.715 0 0 1-13.625 65.434C108.16 256.586 102.09 256 96 256c-29.145 0-57.434 10.07-80 28.098zm114.105-23.496c8.254-22 12.856-45.008 13.704-68.602h39.574l145.441 23.258c11.992 1.91 22.809 7.543 31.29 16.316 2.566 2.64 4.831 5.45 6.773 8.426H288v46.68l94.785 17.222c3.95.61 6.817 3.946 6.824 8.176l.95 31.922h-173c-13.32-40.383-46.48-72-87.454-83.398zM221.735 360h169.304l.961 32H224v-8c0-8.145-.777-16.184-2.266-24zM360 462.078c0-.687.398-1.324 1.016-1.637l22.242-11.129c3.894-1.953 6.84-5.25 8.496-9.312h30.351l-12.242 6.129c-6.078 3.039-9.863 9.144-9.863 15.95V464h-38.078c-1.113 0-1.922-.809-1.922-1.922zM416 464v-1.922c0-.687.398-1.324 1.016-1.637l21.113-10.562c4.176-2.086 7.144-5.672 8.68-9.871H480v24h-64zm0 0" fill="currentColor" opacity="1" data-original="currentColor" class=""></path></g></svg>