<svg xmlns="http://www.w3.org/2000/svg" version="1.1" xmlns:xlink="http://www.w3.org/1999/xlink" width="512" height="512" x="0" y="0" viewBox="0 0 511.999 511.999" style="enable-background:new 0 0 512 512" xml:space="preserve" class=""><g><path d="M494.603 317.884c-1.891-15.498-7.108-28.575-21.387-38.894-11.315-8.883-26.753-11.327-68.88-21.813v-19.244c.255-.127.081-.037.353-.176l.001.001c.754-.361 2.882-1.514 4.024-2.206l.125-.074c19.038-10.961 32.894-29.918 38.018-48.873 8.823 16.291 6.687 31.552 5.962 44.043-.615 10.585 8.93 18.868 19.308 16.718l18.472-3.831a19.898 19.898 0 0 0 13.133-9.458 19.836 19.836 0 0 0 1.741-16.05c-10.96-34.002-25.162-50.895-32.556-57.879.423-4.906-.553-9.624-2.705-13.865 1.821-3.065 2.999-6.467 3.372-10.072a7.454 7.454 0 0 0 .428-2.479c-1.333-14.029 5.805-48.789-16.431-83.321l-.014.009c-4.243-5.944-13.638-2.939-13.638 4.359 0 2.767.932 3.274 3.532 7.947 13.704 24.651 11.254 46.217 11.556 47.856-3.427-1.872-7.295-3.177-11.437-3.763a11.31 11.31 0 0 0-11.091-4.011c-38.088 7.696-53.302-9.941-58.076-17.882-2.481-4.128-6.837-6.593-11.649-6.594h-.002c-4.812 0-9.168 2.465-11.65 6.593l-.001.001c-4.773 7.939-19.987 25.574-58.076 17.882a11.318 11.318 0 0 0-11.092 4.012c-4.141.586-8.009 1.891-11.435 3.763v-3.113c0-76.101 87.016-119.581 148.566-73.062 3.262 2.552 7.956 1.963 10.506-1.298 2.552-3.261 1.959-7.987-1.302-10.539-71.68-54.698-169.077-2.988-172.663 80.208-.174 4.067-.07 4.642-.101 30.953 0 .874.157 1.709.432 2.489.36 3.465 1.462 6.742 3.167 9.713-2.265 4.297-3.322 9.142-2.885 14.213-7.394 6.984-21.598 23.878-32.556 57.879-3.618 11.229 3.345 23.117 14.874 25.508 18.491 3.731 18.913 4.172 21.778 4.172 3.807 0 7.488-1.354 10.445-3.907 6.483-5.598 5.638-12.281 5.295-17.006-.797-11.001-1.846-25.612 6.477-40.643 6.813 20.396 16.074 35.174 35.035 47.411 4.241 2.734 7.219 4.17 7.319 4.225v19.389c-47.588 11.846-59.011 12.808-72.93 25.053-13.817-12.129-24.75-13.067-72.903-25.053v-19.406c.117-.069 4.601-2.233 10.097-6.107 37.683-26.584 35.192-67.629 35.35-68.208 20.506-4.468 30.035-25.243 18.887-40.871.207-32.639-.049-59.397-25.915-88.137C159.146-35.456 42.926 8.88 42.926 102.469v20.058l.003.057c-2.986 4.184-4.718 9.123-4.718 14.411 0 12.769 10.067 23.511 23.608 26.46.221 6.924.333 11.85 2.478 20.32 5.933 23.878 22.212 43.524 43.33 54.173v19.227c-43.846 10.915-57.579 12.947-68.879 21.812-10.951 7.914-17.589 18.806-20.06 30.759C17.351 316.208.333 470.046.324 470.149c-2.055 23.748 11.544 41.849 35.018 41.849h65.587a7.497 7.497 0 1 0 0-14.994H72.711l7.434-140.616a7.498 7.498 0 0 0-7.091-7.882c-4.144-.259-7.664 2.956-7.883 7.091l-1.477 27.955H25.099c6.988-60.676 6.927-66.868 9.102-74.046 6.987-23.06 33.171-26.612 33.837-27.024 16.802 26.264 45.911 42.356 77.308 42.356s60.505-16.093 77.308-42.356c1.625.47 9.326 1.779 17.377 6.604a7.65 7.65 0 0 0 1.016.509c1.005.667 3.702 2.698 5.235 4.058-.894 2.092-5.569 7.204-7.657 24.303l-7.34 65.595h-3.978l-1.477-27.955c-.219-4.135-3.739-7.337-7.883-7.091a7.498 7.498 0 0 0-7.091 7.882l7.434 140.616h-82.374a7.497 7.497 0 1 0 0 14.994h182.771a7.496 7.496 0 0 0 7.497-7.497 7.496 7.496 0 0 0-7.497-7.497h-24.708l7.434-140.616a7.497 7.497 0 0 0-7.091-7.882c-4.116-.232-7.664 2.956-7.882 7.091l-.43 8.125-36.493-8.257c5.306-34.986.291-53.09 22.417-66.379 9.096-5.45 17.577-6.472 20.785-7.452 4.172 39.187 36.22 55.984 36.415 56.163l.104.062c3.597 1.82 7.453 4.556 18.395 7.656 10.655 2.831 19.73 2.478 19.535 2.478 14.363 0 28.67-4.497 39.731-11.729l.104-.067c.985-.718 8.538-5.157 16.297-14.182 10.095-11.767 15.94-25.843 17.495-40.312 3.04.931 11.566 2.025 20.511 7.384 22.309 13.399 16.825 31.003 22.418 66.387l-36.201 8.238-.429-8.114a7.496 7.496 0 0 0-7.881-7.09 7.496 7.496 0 0 0-7.091 7.882l7.433 140.616h-85.882a7.496 7.496 0 0 0-7.497 7.497 7.496 7.496 0 0 0 7.497 7.497h122.953c21.992 0 35.463-16.535 35.235-35.796.095-6.452.487 1.657-17.258-158.319zM466.53 175.05c7.966 9.09 17.351 24.857 24.674 47.576a4.767 4.767 0 0 1-.428 3.904 4.822 4.822 0 0 1-3.22 2.321l-18.472 3.831c-.725.148-1.338-.439-1.295-1.166.066-1.143.155-2.359.248-3.644.819-11.303 2.115-29.221-7.651-47.764a25.444 25.444 0 0 0 6.144-5.058zm-16.418-52.129c11.749 4.844 11.176 17.011 0 21.62v-21.62zm0 37.279c2.411-.521 5.419-1.522 7.905-2.762.22 5.16-3.249 9.634-8.042 10.887.013-.222.121-7.153.137-8.125zm-186.048 72.483-18.471-3.831c-2.829-.587-4.527-3.496-3.648-6.227 7.322-22.719 16.707-38.485 24.674-47.576a25.499 25.499 0 0 0 6.144 5.06c-14.949 28.38-3.677 53.612-8.699 52.574zm19.353-109.759v21.617c-11.293-4.662-11.61-16.829 0-21.617zm-8.274 34.33c2.624 1.352 5.82 2.419 8.275 2.948.082 7.669.05 6.663.141 8.21-.065-.013-8.744-5.843-8.416-11.158zM62.592 398.547l-5.205 98.457c-17.7-.958-28.508 2.742-36.446-5.305-3.366-3.412-5.764-8.633-5.844-15.619-.092-5.293.218-3.714 8.322-77.534h39.173zm165.92-250.742v-21.617c11.451 4.723 11.452 16.892 0 21.617zm-166.695.001c-11.456-4.724-11.458-16.894 0-21.62v21.62zm2.854-37.769a34.319 34.319 0 0 0-6.751 1.598c.015-6.963-.098-11.268.256-15.893 4.428-49.342 45.292-81.749 89.521-80.478l.813.032c44.245 1.614 81.846 37.045 83.811 83.41.144 8.76.06.926.086 12.928a34.122 34.122 0 0 0-5.993-1.483c-1.438-2.283-3.57-4.118-6.266-5.288-.994-.433-1.248-.348-3.02-.92-5.604-1.813-16.217-7.363-24.984-24.186-2.254-4.326-6.687-7.004-11.571-6.869a12.7 12.7 0 0 0-11.303 7.28c-7.106 14.948-39.173 41.056-92.928 26.351-4.153-1.133-8.643.082-11.671 3.518zm29.275 98.742c-21.033-24.487-17.134-43.531-17.134-86.658 31.074 7.476 54.456 2.219 68.828-3.695 15.509-6.382 28.35-16.71 35.193-28.132 9.357 16.105 21.536 24.919 32.682 28.227.001 8.284-.002 37.721.002 38.292-.519 2.55 3.991 31.229-20.171 55.185-21.656 21.023-42.882 19.004-51.43 19.806a69.067 69.067 0 0 1-6.705-.641c-16.375-2.397-31.058-10.74-41.265-22.384zm82.609 62.229 2.276.567c-19.066 17.217-47.905 17.218-66.973 0l2.276-.567c.439-.11.868-.259 1.281-.445 4.376-1.981 7.205-7.025 7.205-12.851v-13.937c13.715 4 29.844 4.284 45.451-.101v14.037c0 7.11 4.128 12.203 8.484 13.297zm-92.995 7.611 11.579-2.883c25.945 31.564 74.315 31.751 100.413 0l11.579 2.883c-30.643 41.533-92.827 41.671-123.571 0zm201.645 100.295-6.243 118.091c-22.169-.124-31.785 1.936-38.515-7.415-3.768-5.265-4.462-11.625-3.919-18.059l11.311-101.071 37.366 8.454zM404.59 237.808l-.252-.518v-.232l.353.697-.101.053zm-89.708-29.782c-20.598-23.973-16.47-46.49-16.468-89.753 15.497 2.388 50.112 4.043 68.35-23.716 18.24 27.76 52.858 26.1 68.353 23.716v45.255c.001 62.342-77.721 92.647-120.235 44.498zm51.724 100.354c-13.829-.277-20.547-7.428-21.275-7.743-3.21-2.84-4.051-3.991-3.961-3.891-4.177-4.907-6.444-9.997-7.559-15.701-.686-3.407-.568-6.558-.576-9.496 1.855-.488 2.481-.546 3.453-.987 4.375-1.98 7.203-7.025 7.203-12.85v-14.028c14.609 4.143 30.416 4.323 45.451.083v13.945c0 7.109 4.129 12.205 8.486 13.297l2.463.613c-.267 1.094 1.887 14.533-8.974 26.064-2.445 2.609-4.686 4.326-7.671 6.139-8.785 5.124-17.312 4.574-16.484 4.554l-.556.001zm25.405 19.02c-.498.065-15.814 8.586-36.763 4.496-26.347-5.226-45.953-27.459-47.805-53.927l10.803-2.689c.496 47.763 63.02 66.227 89.203 26.031 2.133-3.964 7.654-12.022 7.836-25.959l10.799 2.688c-1.15 18.109-12.311 39.121-34.073 49.36zm99.011 164.3c-7.949 8.056-18.751 4.346-36.454 5.305l-6.244-118.099 37.075-8.437c12.252 111.011 11.316 97.894 11.464 105.925.053 4.497-1.456 10.862-5.841 15.306z" fill="currentColor" opacity="1" data-original="currentColor"></path></g></svg>