<svg xmlns="http://www.w3.org/2000/svg" version="1.1" xmlns:xlink="http://www.w3.org/1999/xlink" width="512" height="512" x="0" y="0" viewBox="0 0 60 60" style="enable-background:new 0 0 512 512" xml:space="preserve" class=""><g><g fill="#000" fill-rule="nonzero"><path d="M8.994 30.818h.027a3 3 0 0 0 2.323-1.1L14 26.47V32.214C13.955 33.381 13.444 39 8.019 39a1 1 0 0 0 0 2c5.4 0 5.932 5.63 5.983 6.789V57a3 3 0 0 0 3 3H55.5a4.481 4.481 0 0 0 2.794-8 4.443 4.443 0 0 0 0-7 4.481 4.481 0 0 0-2.794-8H46V26.473l2.663 3.254a3 3 0 0 0 2.32 1.092h.027a2.977 2.977 0 0 0 2.31-1.119l5.5-6.868a3 3 0 0 0 .077-3.659L50.376 7.547a12.087 12.087 0 0 0-4.308-3.631L39.708.731c-.087-.043-.178-.074-.267-.113h-.01A7.05 7.05 0 0 0 36.58 0H23.42c-.98.004-1.95.213-2.845.612l-.018.008c-.092.04-.184.072-.275.116l-6.349 3.18a12.075 12.075 0 0 0-4.309 3.633L1.106 19.165a3 3 0 0 0 .073 3.66l5.5 6.868a2.978 2.978 0 0 0 2.315 1.125zM11.988 40a7.638 7.638 0 0 0 3.021-3.471A7.64 7.64 0 0 0 18.031 40a7.64 7.64 0 0 0-3.022 3.471A7.638 7.638 0 0 0 11.988 40zM16 57v-2h11.051a4.342 4.342 0 0 0-.051.5c0 .89.265 1.761.762 2.5H17a1 1 0 0 1-1-1zm42-1.5a2.5 2.5 0 0 1-2.5 2.5h-24a2.5 2.5 0 1 1 0-5h24a2.5 2.5 0 0 1 2.5 2.5zm0-7a2.5 2.5 0 0 1-2.5 2.5h-24a2.5 2.5 0 1 1 0-5h24a2.5 2.5 0 0 1 2.5 2.5zm0-7a2.5 2.5 0 0 1-2.5 2.5h-24a2.5 2.5 0 1 1 0-5h24a2.5 2.5 0 0 1 2.5 2.5zm-.74-19.925-5.5 6.871a1 1 0 0 1-.771.373 1.075 1.075 0 0 1-.785-.362l-.784-.959 6.711-8.721 1.156 1.577a1 1 0 0 1-.027 1.221zM30 9c4.633 0 8.594-2.564 9.687-6.043l1.807.905C39.993 8.041 35.3 11 30 11s-9.993-2.959-11.494-7.138l1.808-.905C21.406 6.436 25.367 9 30 9zm6.58-7a5 5 0 0 1 1.255.165C37.113 4.929 33.852 7 30 7s-7.113-2.071-7.835-4.835c.41-.108.831-.163 1.255-.165zM11.236 8.733A10.066 10.066 0 0 1 14.828 5.7l1.883-.943C18.579 9.6 23.955 13 30 13s11.421-3.4 13.289-8.239l1.884.944a10.073 10.073 0 0 1 3.591 3.026L54.9 17.1l-6.78 8.811-.57-.7A2 2 0 0 0 44 26.47V37H31.5a4.481 4.481 0 0 0-2.794 8 4.443 4.443 0 0 0 0 7 4.5 4.5 0 0 0-.944 1H16v-4.954c0-.016.009-.03.009-.046 0-.286.068-7 5.991-7a1 1 0 0 0 0-2c-5.894 0-5.99-6.716-5.991-7 0-.016-.008-.03-.009-.046V26.47a2 2 0 0 0-3.544-1.263l-.574.7L5.1 17.1zM2.74 21.574a1 1 0 0 1-.023-1.223l1.154-1.574 6.71 8.72-.782.956a1.113 1.113 0 0 1-.787.366.992.992 0 0 1-.771-.374z" fill="currentColor" opacity="1" data-original="currentColor"></path><path d="M19 27c5.894 0 5.99 6.716 5.991 7a1 1 0 0 0 2 0c0-.286.068-7 5.99-7a1 1 0 0 0 0-2c-5.894 0-5.989-6.716-5.99-7a1 1 0 0 0-2 0c0 .286-.068 7-5.991 7a1 1 0 0 0 0 2zm6.991-4.471A7.638 7.638 0 0 0 29.012 26a7.638 7.638 0 0 0-3.021 3.471A7.64 7.64 0 0 0 22.969 26a7.64 7.64 0 0 0 3.022-3.471z" fill="currentColor" opacity="1" data-original="currentColor"></path></g></g></svg>