<svg xmlns="http://www.w3.org/2000/svg" version="1.1" xmlns:xlink="http://www.w3.org/1999/xlink" width="512" height="512" x="0" y="0" viewBox="0 0 96 96" style="enable-background:new 0 0 512 512" xml:space="preserve" fill-rule="evenodd" class=""><g><path d="M19.175 44.42C8.868 44.42.5 52.788.5 63.095c0 10.306 8.368 18.674 18.675 18.674S37.85 73.401 37.85 63.095c0-10.307-8.368-18.675-18.675-18.675zm0 3c8.651 0 15.675 7.023 15.675 15.675 0 8.651-7.024 15.674-15.675 15.674S3.5 71.746 3.5 63.095c0-8.652 7.024-15.675 15.675-15.675zm6.547 8.715a9.535 9.535 0 0 1 3.01 6.96c0 5.274-4.283 9.556-9.557 9.556-5.275 0-9.557-4.282-9.557-9.556 0-5.275 4.282-9.557 9.557-9.557 1.037 0 2.037.165 2.972.471a1.501 1.501 0 0 0 1.893-.958 1.502 1.502 0 0 0-.959-1.893 12.553 12.553 0 0 0-3.906-.62c-6.93 0-12.557 5.626-12.557 12.557 0 6.93 5.627 12.556 12.557 12.556s12.557-5.626 12.557-12.556c0-3.603-1.52-6.853-3.954-9.144a1.5 1.5 0 1 0-2.056 2.184zM76.825 44.42c-10.307 0-18.675 8.368-18.675 18.675 0 10.306 8.368 18.674 18.675 18.674S95.5 73.401 95.5 63.095c0-10.307-8.368-18.675-18.675-18.675zm0 3c8.651 0 15.675 7.023 15.675 15.675 0 8.651-7.024 15.674-15.675 15.674S61.15 71.746 61.15 63.095c0-8.652 7.024-15.675 15.675-15.675zm-1.629 6.256a9.618 9.618 0 0 1 1.629-.138c5.275 0 9.557 4.282 9.557 9.557 0 5.274-4.282 9.556-9.557 9.556-5.274 0-9.557-4.282-9.557-9.556a9.545 9.545 0 0 1 3.85-7.664 1.501 1.501 0 0 0-1.795-2.404 12.539 12.539 0 0 0-5.055 10.068c0 6.93 5.627 12.556 12.557 12.556s12.557-5.626 12.557-12.556c0-6.931-5.627-12.557-12.557-12.557-.728 0-1.442.062-2.137.181a1.5 1.5 0 0 0 .508 2.957z" fill="currentColor" opacity="1" data-original="currentColor" class=""></path><path d="M20.6 63.561 34.812 20.13a4.498 4.498 0 0 0-4.277-5.899h-7.741a1.5 1.5 0 0 0 0 3h7.741a1.502 1.502 0 0 1 1.426 1.966L17.749 62.628a1.5 1.5 0 1 0 2.851.933zM45.407 70.2l13.857-42.348a1.5 1.5 0 0 0-2.851-.933L42.556 69.267a1.5 1.5 0 0 0 2.851.933z" fill="currentColor" opacity="1" data-original="currentColor" class=""></path><path d="M73.837 61.595h-26.56c-2.862-12.42-9.607-19.812-21.042-21.066a1.5 1.5 0 1 0-.327 2.982c10.449 1.146 16.3 8.245 18.691 19.885a1.5 1.5 0 0 0 1.469 1.199h28.765a2.5 2.5 0 0 0 2.005-3.994L56.717 33.592a1.498 1.498 0 0 0-.915-.576l-25.356-4.959a1.501 1.501 0 0 0-.576 2.945l24.788 4.847zM41.158 71.233h6.322a1.5 1.5 0 0 0 0-3h-6.322a1.5 1.5 0 0 0 0 3zM66.188 24.979l4.047-5.617a1.5 1.5 0 0 0-1.217-2.377h-5.576c-1.963 0-3.846.78-5.234 2.168l-1.299 1.298h-2.373a4.644 4.644 0 0 0-4.643 4.643v1.362a1.5 1.5 0 0 0 1.5 1.5h8.981a7.167 7.167 0 0 0 5.814-2.977zm-13.289-.023a1.64 1.64 0 0 1 1.637-1.505h2.994a1.5 1.5 0 0 0 1.061-.439l1.738-1.738a4.405 4.405 0 0 1 3.113-1.289h2.647l-2.335 3.24a4.167 4.167 0 0 1-3.38 1.731z" fill="currentColor" opacity="1" data-original="currentColor" class=""></path></g></svg>