<svg xmlns="http://www.w3.org/2000/svg" version="1.1" xmlns:xlink="http://www.w3.org/1999/xlink" width="512" height="512" x="0" y="0" viewBox="0 0 512 512" style="enable-background:new 0 0 512 512" xml:space="preserve" class=""><g><path d="M335.37 79.19c9.69-11.48 24.21-14.4 36.6-4.08 12.84-10.63 29.23-8.76 38.1 4.99 16.1 24.89-3.88 44.05-20.58 60.07-3.8 3.63-7.37 7.09-10.09 10.2-3.86 4.48-10.49 4.48-14.37 0-2.07-2.41-4.9-5.24-7.99-8.36-16.24-16.38-38.86-39.2-21.91-62.48.07-.11.15-.22.24-.34zm11.59 5.22c-.82.71-1.62 1.53-2.38 2.44-10.54 14.97 7.77 33.45 20.92 46.72 2.44 2.47 4.73 4.76 6.72 6.92 2.69-2.92 5.75-5.87 8.96-8.93 13.46-12.93 29.59-28.37 18.85-44.99-6.09-9.44-16.33-7.57-23.5.79-2.38 2.78-6.69 2.86-9.1.06-6.07-7.01-13.21-9.28-20.47-3.01zM245.91 40.5c9.69-11.45 24.21-14.37 36.6-4.05 12.81-10.66 29.23-8.79 38.1 4.96 16.1 24.89-3.88 44.08-20.58 60.09-3.8 3.63-7.37 7.06-10.09 10.18-3.86 4.48-10.52 4.48-14.37 0-2.1-2.41-4.9-5.24-7.99-8.36-16.24-16.38-38.89-39.2-21.91-62.48.07-.11.15-.23.24-.34zm11.59 5.22c-.82.71-1.62 1.53-2.38 2.44-10.54 14.97 7.77 33.45 20.92 46.71 2.44 2.47 4.71 4.76 6.72 6.92 2.69-2.89 5.75-5.84 8.96-8.93 13.46-12.9 29.59-28.37 18.85-44.99-6.09-9.41-16.36-7.57-23.5.79-2.38 2.78-6.69 2.86-9.1.06-6.07-7-13.21-9.27-20.47-3zm-38.1 78.68c-17.43-23.78-54.91-17.77-63.81 10.63a36.31 36.31 0 0 0-1.11 17.26c2.95-11.45 5.81-24.83 28.2-24.83 9.01 0 26.45-.2 33.22-2.07 1.97-.64 1.97-.36 3.5-.99zm-15.81-24.83a48.114 48.114 0 0 1 28.29 22.08c2.89 4.56-.77 9.35-4.82 11.93 9.55 19.36 2.86 42.8-15.36 54.28 11.99 4.34 22.14 12.53 22.14 25.14v10.69c6.92-5.39 15.17-8.08 23.16-9.75-12.7-12.25-15.59-31.52-7-46.94-1.62-2.07-2.81-4.17-3.57-6.15-.74-1.93-.43-4 .68-5.56 6.01-10.37 15.56-17.43 26.28-20.52a44.7 44.7 0 0 1 34.55 4.03c18.43-13.8 44.96-.65 44.96 22.51 0 5.41-1.53 10.43-4.17 14.74-2.64 17.15-.17 34.27 6.55 49.55a88.895 88.895 0 0 0 33.22 38.89 5.978 5.978 0 0 1 2.3 7.34c-6.12 16.72-14.06 29.28-23.84 37.64-10.18 8.73-22.2 12.84-36 12.33-2.52-.09-4.62-1.76-5.41-4h-.03c-11.54-32.8-20.32-67.78-20.1-99.24-4 2.61-8.48 4.51-13.29 5.5 4.31 4.79 7.28 10.71 9.01 17.21 3.09 11.74 2.1 25.71-3.32 38.44l-.03.08c10.15 2.13 17.63 11.14 17.63 21.71v10.03c0 8.56-4.9 16.16-12.27 19.84 44.16 29.06 67.24 80.59 78.8 137.96.74 3.71-2.15 7.17-5.9 7.14l-197.55-.85c-3.29 0-5.95-2.66-5.95-5.98h-.03c0-30.76 7.54-53.23 17.77-71.15l-7.28-25.43-14.97 37.08L149.53 442c2.98.94 5.78 1.98 8.28 3.37 9.69 5.36 13.8 13.61 4.62 30.47a5.966 5.966 0 0 1-5.47 3.57H114.3v-.03c-15.6.38-25.52-15.38-19.48-28.88l29.68-66.39 7.63-61.14V290.2c-6.63 4.73-15.25 6.26-23.39 3.57-22.2-7.4-18.82-29.88-11-48.56l12.47-28.52 5.53-12.27c5.58-12.36 19.67-18.31 32.37-13.89 4.42-2.27 9.58-4 15.11-5.19a42.135 42.135 0 0 1-11.76-14.43c-1.79-.31-3.37-1.45-4.28-3.17-11.88-23.36-2.92-51.96 20.18-64.37 11.56-6.18 24.52-7.2 36.23-3.8zm12.04 38.04c-9.24 1.76-22.11 1.84-32.94 1.84-18.48 0-14.06 16.55-20.58 25.99 9.07 18.57 33.79 22.71 48.44 8.08 9.48-9.49 11.57-24.2 5.08-35.91zm102.42 8.99c7.8 8.02 12.25 18.68 12.64 29.74 10.74-4.25 13.69-18.2 5.47-26.42-4.76-4.77-11.93-6.07-18.11-3.32zm11.22 42.49c-.79 3.09-1.93 6.15-3.43 9.1-1.36 2.64-3.66 3.06-6.24 3.8-.45.99-.94 1.98-1.47 2.92-1.5 13.97-.77 29.82 2.18 47.57 2.89 17.35 7.94 36.45 15.11 57.34 21.46-1.08 34.24-17.43 42.55-38.01-27.3-19.5-43.06-51.22-42.24-84.56-2.03.85-4.19 1.47-6.46 1.84zm-24.97 14.77c-8.02-1.28-9.52-7.68-11.14-14.57-.88-3.74-1.84-7.82-9.13-7.82-9.84 0-18.2-2.44-24.72-6.35-7.68 17.63 5.16 37.79 24.77 37.79 7.92-.01 15.15-3.38 20.22-9.05zm-27.61-57.6a32.861 32.861 0 0 0-17.8 12.73c5.02 7.31 15.79 10.49 25.14 10.49 16.81 0 18.88 8.9 20.81 17.09.79 3.43 1.53 6.58 11.37 3.91 6.49-15.53.17-33.59-14.83-41.61a32.712 32.712 0 0 0-24.69-2.61zm.77 180.85c-3.97-4-6.41-9.5-6.41-15.56v-10.03c0-9.21 5.7-17.32 14-20.64l1.62-5.56c10.43-24.29 1.64-57.34-29.59-49.1-4.59 1.22-8.79 2.35-12.98 4.93 4.82-.23 9.78-.65 14.91-1.3 18.11-2.27 30.39 18.71 18.91 33.42-3.26 4.2-8.14 7.14-13.83 7.85-14.29 1.79-27.67 2.24-40.59 1.3 11.74 26.33 44.99 22.51 27.18 64.29-14.74 34.5-63.44 55.19-66.02 127.02l184.03.79c-12.47-56.21-36.57-105.76-84.13-130.14-3.22-1.66-5.6-4.09-7.1-7.27zm22.96-32.8c-6.46-6.49-17.38-1.73-17.38 7.2v10.03c0 8.9 10.91 13.66 17.38 7.2 1.87-1.87 3-4.39 3-7.2v-10.03c0-2.8-1.13-5.35-3-7.2zm-139.33-63.63-.03.06-1.64 3.69-1.25 2.75-.17.37c30.44 22.08 67.32 26.33 104.63 21.69 7.88-.99 10.4-10.94 4.34-15.68a8.713 8.713 0 0 0-6.52-1.79c-34.16 4.25-68.23.57-95.47-21.03-.8 3.53-2.38 6.56-3.89 9.94zm-18.14 11.22-25.06-12.98c-3.8 8.59-9.33 20.64-11.57 27.44-3.74 11.23-4.99 22.34 6.18 26.05 7.4 2.44 15.34-1.56 17.8-8.96 2.07-6.32 2.15-7.14 4.48-12.67h.03zm-20.15-23.92 25.03 12.98.74-1.64 1.73-3.86c2.32-5.13 4.71-9.18 2.38-15.34-4.25-11.23-20.58-12.81-26.19-.34zm36.91-19.31 1.59 2.18c5.44 6.04 11.42 11.17 17.94 15.36 12.78 8.25 27.16 12.7 42.6 14.34V213c0-7.17-7.57-11.62-15.08-14.17-13.72-4.66-33.28-4.72-47.05-.16zm-6.64 50.03-8.96 21v47.59h77.73v-25.91c-.11-.28-8.36-8.42-11.57-20.41-20.74-3.16-40.13-10.36-57.2-22.27zm45.87 136.44c8.5-11.88 16.92-20.69 25.71-31.01l-2.27-24.8h-78.97l-7.11 57.12c-.08.77-.34 1.47-.68 2.13l-29.88 66.81c-2.38 5.36 1.16 12.16 8.56 12.1v-.03h39c3.06-6.75 1.81-9.86-1.3-11.59-3.15-1.76-8.11-3.03-13.07-4.37-3.77-1.02-5.73-5.39-3.46-9.04l22-37.93 20.95-52.07c2.13-5.3 9.75-4.85 11.31.6zm36.42-45.1c1.67-2.64 3.12-5.3 4.28-7.99 7.63-17.86 1.9-23.73-5.81-29.96v21.2z" fill="currentColor" opacity="1" data-original="currentColor"></path></g></svg>