<svg xmlns="http://www.w3.org/2000/svg" version="1.1" xmlns:xlink="http://www.w3.org/1999/xlink" width="512" height="512" x="0" y="0" viewBox="0 0 512 512" style="enable-background:new 0 0 512 512" xml:space="preserve" class=""><g><path d="M275.576 347.588a7 7 0 0 0-9.9 0l-28.991 28.991a7 7 0 0 0 0 9.9l28.991 28.991a7 7 0 0 0 9.9 0l28.992-28.991a7 7 0 0 0 0-9.9zm-4.949 53.032-19.091-19.092 19.091-19.091 19.092 19.091zm44.181-122.684a7 7 0 0 0-9.9 0l-18.385 18.384a7 7 0 0 0 0 9.9l18.385 18.38a7 7 0 0 0 9.9 0l18.385-18.384a7 7 0 0 0 0-9.9zm-4.95 31.819-8.485-8.485 8.485-8.485 8.486 8.485zm-51.336-73.872a7 7 0 0 0-2.049-4.95l-26.952-26.951a7 7 0 0 0-9.9 0l-26.951 26.951a7 7 0 0 0 0 9.9l26.951 26.951a7 7 0 0 0 9.9 0l26.952-26.951a7 7 0 0 0 2.049-4.95zm-33.951 17.051-17.052-17.051 17.052-17.052 17.052 17.052zM438.212 27.1h-50.16A37.7 37.7 0 0 0 350.8 59.688c-.01.07-.019.14-.026.21L349.257 74.6H213.29l34.859-34.859a7 7 0 0 0 0-9.9c-7.776-7.774-14.641-8.706-19.882-7.321A103.328 103.328 0 0 0 82.906 163.362c1.439 2.257 1.283 2.72 1.225 2.9-3.48 10.415 4.3 18.195 6.855 20.751a7 7 0 0 0 9.9 0L142.1 145.79l29.939 316.928v19.036a25.671 25.671 0 0 0 25.646 25.646h145.883a25.672 25.672 0 0 0 25.643-25.643v-19.039l35.94-380.455a7 7 0 0 0-6.969-7.659h-13.418l.99-10.317a2.37 2.37 0 0 1 2.3-1.936h50.16a7 7 0 0 0 7-7V34.1a7 7 0 0 0-7.002-7zm-252.8 428.289L160 186.412c14.594-6.031 63.631-22.874 107.178 1.74a123.641 123.641 0 0 0 61.467 16.275 130.692 130.692 0 0 0 25.366-2.506 138.344 138.344 0 0 0 26.535-8.1l-24.705 261.57zm166.18-267.314L361.883 88.6h7.473L360 186.092a125.22 125.22 0 0 1-8.407 1.985zm-14.28 1.98a109.435 109.435 0 0 1-63.242-14.093c-45.817-25.9-95.326-11.832-115.442-4.111L150.765 88.6h197.043zM162.982 74.6h-16.295L126.084 54a69.251 69.251 0 0 1 36.9-15.278zm-46.8-10.7 20.084 20.083 1.6 16.923h-36.98A68.892 68.892 0 0 1 116.182 63.9zm60.8 10.7V38.7A69.281 69.281 0 0 1 214.094 54l-20.6 20.6zm-79.568 96.082c2.058-6.173-.363-11.176-2.7-14.845-22.295-34.983-17.153-81.7 12.228-111.079 31.038-31.04 81-34.777 116.215-8.692a7 7 0 0 0 7.665.439 2.881 2.881 0 0 1 1.208-.438l-8.009 8.009A83.568 83.568 0 0 0 106.255 161.84zm18.768-18.769a68.892 68.892 0 0 1-15.3-37.007h38.3L140.4 127.7zM343.568 493.4H197.685a11.655 11.655 0 0 1-11.642-11.643v-12.366h169.168v12.363a11.656 11.656 0 0 1-11.643 11.646zM390.49 88.6l-8.416 89.1a103.91 103.91 0 0 1-7.534 3.447l8.88-92.547zm40.722-40.253h-43.16a16.385 16.385 0 0 0-16.188 14.162 7.435 7.435 0 0 0-.029.261L370.7 74.6h-7.369l1.361-13.153a23.659 23.659 0 0 1 23.36-20.347h43.16z" fill="currentColor" opacity="1" data-original="currentColor"></path></g></svg>