<svg xmlns="http://www.w3.org/2000/svg" version="1.1" xmlns:xlink="http://www.w3.org/1999/xlink" width="512" height="512" x="0" y="0" viewBox="0 0 511.999 511.999" style="enable-background:new 0 0 512 512" xml:space="preserve"><g><path d="M112.012 401.394c-8.003-8.003-18.643-12.41-29.959-12.41a42.19 42.19 0 0 0-18.938 4.458c-57.083-80.874-57.281-191.699.483-272.769 3.204-4.498 2.156-10.742-2.342-13.947-4.498-3.205-10.742-2.157-13.947 2.341C15.446 153.786-.9 206.594.038 261.781.931 314.3 17.421 364.12 47.802 406.413c-12.072 16.56-10.643 39.962 4.292 54.899 8.26 8.259 19.109 12.389 29.959 12.389 10.85 0 21.699-4.13 29.959-12.389 16.519-16.52 16.519-43.398 0-59.918zm-14.143 45.775c-8.723 8.721-22.912 8.721-31.633 0-8.722-8.722-8.722-22.913 0-31.634 4.225-4.225 9.842-6.552 15.816-6.552s11.592 2.327 15.816 6.552c8.723 8.722 8.723 22.913.001 31.634zM407.962 451.145c-3.231-4.476-9.481-5.484-13.96-2.249-28.588 20.657-60.725 34.342-95.519 40.675-8.062 1.468-16.284-.693-22.557-5.927a27.202 27.202 0 0 1-9.799-20.943v-73.298H267c11.579 0 21-9.42 21-21V351.52c33.873-12.93 58-45.756 58-84.116v-47.345c16.116-4.402 28-19.163 28-36.655 0-19.257-14.403-35.204-33-37.661V83.404c0-16.542-13.458-30-30-30s-30 13.458-30 30v62h-50v-62c0-16.542-13.458-30-30-30s-30 13.458-30 30v62.339c-18.597 2.457-33 18.403-33 37.661 0 17.492 11.884 32.253 28 36.655v47.345c0 38.36 24.127 71.186 58 84.116v16.884c0 11.58 9.421 21 21 21h1.127v73.298a47.152 47.152 0 0 0 16.985 36.299 47.348 47.348 0 0 0 30.379 11.023c2.849 0 5.717-.256 8.573-.776 37.752-6.872 72.625-21.723 103.649-44.141 4.477-3.235 5.483-9.486 2.249-13.962zM301.001 83.404c0-5.514 4.486-10 10-10s10 4.486 10 10v62h-20v-62zm-110 0c0-5.514 4.486-10 10-10s10 4.486 10 10v62h-20v-62zm-33 100c0-9.925 8.075-18 18-18h160c9.925 0 18 8.075 18 18s-8.075 18-18 18h-160c-9.925 0-18-8.075-18-18zm28 84v-46h140v46c0 38.598-31.402 70-70 70s-70-31.402-70-70zm70.379 102c-.084-.002-.167-.013-.251-.013-.084 0-.167.011-.251.013h-10.875a1.001 1.001 0 0 1-1.002-1v-11.802c3.927.526 7.932.802 12 .802s8.073-.276 12-.802v11.802c0 .551-.448 1-1 1H256.38zM436.772 424.041c-3.963-3.7-10.138-3.557-13.928.274-.077.078-.154.158-.227.235-3.769 4.038-3.55 10.365.487 14.134a9.965 9.965 0 0 0 6.821 2.689 9.972 9.972 0 0 0 7.334-3.198c3.769-4.038 3.55-10.365-.487-14.134z" fill="currentColor" opacity="1" data-original="currentColor"></path><path d="M511.321 238.712c-4.455-61.218-30.842-118.866-74.297-162.323-42.712-42.715-99.768-68.861-160.657-73.62-60.147-4.703-120.008 11.619-168.576 45.955-4.51 3.188-5.581 9.429-2.393 13.938 3.187 4.509 9.429 5.582 13.938 2.393C212.209-.602 342.705 10.349 422.882 90.531c82.857 82.861 92.876 211.536 23.821 305.96-3.26 4.458-2.289 10.714 2.169 13.975a9.955 9.955 0 0 0 5.896 1.929 9.986 9.986 0 0 0 8.08-4.098c35.668-48.774 52.884-109 48.473-169.585zM87.909 77.545c-3.923-3.887-10.255-3.861-14.143.063l-.163.166c-3.888 3.922-3.859 10.254.063 14.142a9.97 9.97 0 0 0 7.04 2.897 9.976 9.976 0 0 0 7.103-2.96l.163-.166c3.888-3.922 3.859-10.254-.063-14.142z" fill="currentColor" opacity="1" data-original="currentColor"></path><path d="M278.548 263.701a10 10 0 0 0-8.64-4.964h-7.146l13.162-16.626c3.428-4.33 2.696-10.62-1.634-14.047-4.33-3.429-10.62-2.696-14.048 1.633L234.25 262.53a10 10 0 0 0 7.841 16.207h10.66l-12.246 21.622c-2.722 4.806-1.032 10.908 3.772 13.629a10.001 10.001 0 0 0 13.632-3.773l20.701-36.55a9.998 9.998 0 0 0-.062-9.964z" fill="currentColor" opacity="1" data-original="currentColor"></path></g></svg>