<svg xmlns="http://www.w3.org/2000/svg" version="1.1" xmlns:xlink="http://www.w3.org/1999/xlink" width="512" height="512" x="0" y="0" viewBox="0 0 512 512" style="enable-background:new 0 0 512 512" xml:space="preserve"><g><path d="m494.84 311.54-49.28-105.75c-8.18-17.56-24.64-28.05-44.02-28.05h-29.91c-19.38 0-35.83 10.49-44.02 28.05l-49.28 105.75c-.67 1.44-1.18 2.93-1.54 4.45l-22.66 7.64h-32.3l-27.4-9.24-15.76-98.58c-3.53-22.06-22.3-38.08-44.65-38.08H76.29c-22.34 0-41.12 16.01-44.65 38.08l-16.35 102.3c-2 12.53 6.56 24.36 19.1 26.36 6.05.97 12.13-.49 17.12-4.1s8.27-8.94 9.24-14.99l1.58-9.9v27.24L51.65 472.1c-.54 6.6 1.56 12.84 5.92 17.58 4.35 4.72 10.37 7.32 16.95 7.32 13.2 0 24.82-10.73 25.91-23.92l4.72-57.17 4.72 57.17c1.09 13.19 12.71 23.92 25.91 23.92 6.58 0 12.6-2.6 16.95-7.32 4.36-4.74 6.47-10.98 5.92-17.58l-10.68-129.38v-27.24l1.58 9.9c2 12.53 13.83 21.1 26.36 19.1 1-.16 1.96-.4 2.91-.68l27.33 9.22v21.55l-6.42 102.07c-.34 5.4 1.48 10.51 5.11 14.38s8.6 6 13.99 6c8.16 0 15.49-5 18.9-12.1 3.4 7.1 10.73 12.1 18.9 12.1 5.39 0 10.36-2.13 13.99-5.99 3.64-3.87 5.45-8.98 5.11-14.38l-6.42-102.07v-21.4l26.37-8.89c9.98 1.59 20.23-3.51 24.7-13.11l17.44-37.42-13.66 85.89c-.28 1.73.22 3.5 1.36 4.84s2.81 2.1 4.56 2.1h10.03l-7.06 85.53c-.54 6.6 1.56 12.84 5.92 17.58 4.35 4.72 10.37 7.32 16.95 7.32 13.2 0 24.82-10.73 25.91-23.92l4.72-57.17 4.72 57.17c1.09 13.19 12.71 23.92 25.91 23.92 6.58 0 12.6-2.6 16.95-7.32 4.36-4.74 6.47-10.98 5.92-17.58l-7.06-85.53h10.03a6 6 0 0 0 4.56-2.1 5.988 5.988 0 0 0 1.36-4.84l-13.66-85.9 17.44 37.42c2.61 5.6 7.26 9.86 13.1 11.99s12.14 1.86 17.74-.75 9.86-7.26 11.99-13.1c2.16-5.87 1.9-12.17-.71-17.77zm-320.81 21.08c-6 .96-11.66-3.14-12.62-9.14l-13.51-84.49a5.984 5.984 0 0 0-6.4-5.03 5.996 5.996 0 0 0-5.52 5.98v103.03c0 .16.01.33.02.49l10.7 129.63c.27 3.22-.73 6.22-2.79 8.47-2.05 2.23-4.93 3.45-8.12 3.45-6.98 0-13.37-5.91-13.95-12.9l-10.7-129.63c-.26-3.11-2.86-5.51-5.98-5.51s-5.72 2.39-5.98 5.51L88.47 472.1c-.58 6.99-6.97 12.9-13.95 12.9-3.19 0-6.07-1.23-8.12-3.45-2.06-2.24-3.06-5.25-2.79-8.47l10.7-129.63c.01-.16.02-.33.02-.49V239.93c0-3.13-2.41-5.73-5.52-5.98a5.984 5.984 0 0 0-6.4 5.03l-13.51 84.5c-.96 6-6.62 10.1-12.62 9.14S26.18 326 27.14 320l16.35-102.3c2.59-16.21 16.38-27.97 32.8-27.97h57.73c16.41 0 30.21 11.76 32.8 27.97L183.17 320c.46 2.89-.24 5.8-1.97 8.19-1.74 2.4-4.29 3.97-7.17 4.43zm87.39 10.54a5.996 5.996 0 0 0-4.08 5.69v25.9c0 .13 0 .25.01.38l6.43 102.25c.13 2.06-.54 3.98-1.89 5.41-1.34 1.42-3.2 2.21-5.25 2.21-4.53 0-8.61-3.84-8.89-8.38l-4.02-63.86c-.2-3.16-2.82-5.62-5.99-5.62s-5.79 2.46-5.99 5.62l-4.02 63.86c-.29 4.54-4.36 8.38-8.89 8.38-2.04 0-3.91-.78-5.25-2.21-1.35-1.43-2.02-3.35-1.89-5.41l6.43-102.25c.01-.13.01-.25.01-.38V348.7c0-2.57-1.64-4.86-4.08-5.69l-23.15-7.81c1.78-2.47 3.04-5.2 3.73-8.07l24.26 8.18c.62.21 1.27.31 1.92.31h34.26c.65 0 1.3-.11 1.92-.31l20.3-6.85c.09.27.15.54.25.81.95 2.62 2.36 4.98 4.1 7.05zM369.9 472.1c-.58 6.99-6.97 12.9-13.95 12.9-3.19 0-6.07-1.23-8.12-3.45-2.06-2.24-3.06-5.25-2.79-8.47l7.14-86.52h24.78zm58.22.98c.27 3.22-.73 6.23-2.79 8.47-2.05 2.23-4.93 3.45-8.12 3.45-6.98 0-13.37-5.91-13.95-12.9l-7.06-85.53h24.78zm56.19-147.91c-1.03 2.83-3.08 5.08-5.78 6.33-2.7 1.26-5.74 1.38-8.57.35s-5.08-3.08-6.33-5.78l-35.53-76.24c-1.26-2.71-4.33-4.08-7.19-3.2s-4.64 3.73-4.17 6.68l19.29 121.25h-98.88l19.29-121.25c.47-2.96-1.31-5.8-4.17-6.68s-5.93.49-7.19 3.2l-35.53 76.24c-2.61 5.6-9.29 8.04-14.9 5.43-2.7-1.26-4.75-3.51-5.78-6.33-1.03-2.83-.9-5.87.35-8.57l49.28-105.75c6.16-13.22 18.55-21.12 33.14-21.12h29.91c14.59 0 26.98 7.9 33.14 21.12l49.28 105.75c1.25 2.7 1.37 5.75.34 8.57zM105.15 171.26c19.43 0 35.24-15.81 35.24-35.24s-15.81-35.24-35.24-35.24-35.24 15.81-35.24 35.24c.01 19.43 15.81 35.24 35.24 35.24zm0-58.48c12.81 0 23.24 10.42 23.24 23.24 0 12.81-10.42 23.24-23.24 23.24-12.81 0-23.24-10.42-23.24-23.24.01-12.81 10.43-23.24 23.24-23.24zm281.43 58.48c19.43 0 35.24-15.81 35.24-35.24s-15.81-35.24-35.24-35.24-35.24 15.81-35.24 35.24c.01 19.43 15.81 35.24 35.24 35.24zm0-58.48c12.81 0 23.24 10.42 23.24 23.24 0 12.81-10.42 23.24-23.24 23.24s-23.24-10.42-23.24-23.24c.01-12.81 10.43-23.24 23.24-23.24zM207.5 293.04c0 16.3 13.26 29.56 29.56 29.56s29.56-13.26 29.56-29.56-13.26-29.56-29.56-29.56-29.56 13.26-29.56 29.56zm47.12 0c0 9.68-7.88 17.56-17.56 17.56s-17.56-7.88-17.56-17.56 7.88-17.56 17.56-17.56 17.56 7.88 17.56 17.56zm-77.03-164.95c.49 22.82 24.25 44.62 43.34 62.13 4.43 4.07 8.62 7.91 11.86 11.2a5.99 5.99 0 0 0 4.28 1.79h.03c1.62-.01 3.17-.67 4.29-1.84 3.33-3.45 7.76-7.53 12.45-11.84 18.83-17.3 42.26-38.84 42.73-61.44.19-9.16-3.43-17.53-10.77-24.86-7.05-7.05-16.45-10.93-26.47-10.93h-.03c-8.13.01-15.85 2.57-22.24 7.3-14.66-10.83-35.48-9.62-48.74 3.64-7.32 7.32-10.93 15.68-10.73 24.85zm19.22-16.37c4.96-4.96 11.47-7.44 17.99-7.44 6.53 0 13.06 2.49 18.03 7.46 1.13 1.12 2.65 1.76 4.24 1.76s3.12-.63 4.24-1.76c4.79-4.79 11.19-7.43 18.01-7.44h.02c6.81 0 13.2 2.63 17.98 7.42 5 5 7.38 10.28 7.25 16.13-.37 17.49-22.61 37.93-38.86 52.86-3.06 2.81-6.02 5.53-8.68 8.09-2.48-2.35-5.19-4.84-8-7.42-16.49-15.13-39.07-35.85-39.45-53.55-.12-5.85 2.24-11.12 7.23-16.11zm34.27-60.99V21c0-3.31 2.69-6 6-6s6 2.69 6 6v29.73c0 3.31-2.69 6-6 6s-6-2.69-6-6zm-65.1-9.07c-1.66-2.87-.67-6.54 2.2-8.2s6.54-.67 8.2 2.2l14.86 25.75c1.66 2.87.67 6.54-2.2 8.2-.94.55-1.98.8-2.99.8-2.07 0-4.09-1.08-5.2-3zM282.92 61.4l14.86-25.75a6.012 6.012 0 0 1 8.2-2.2 6.012 6.012 0 0 1 2.2 8.2L293.31 67.4c-1.11 1.92-3.13 3-5.2 3a5.995 5.995 0 0 1-5.19-9z" fill="currentColor" opacity="1" data-original="currentColor"></path></g></svg>