<svg xmlns="http://www.w3.org/2000/svg" version="1.1" xmlns:xlink="http://www.w3.org/1999/xlink" width="512" height="512" x="0" y="0" viewBox="0 0 512 512" style="enable-background:new 0 0 512 512" xml:space="preserve" class=""><g><path d="M256 0C114.615 0 0 114.615 0 256s114.615 256 256 256 256-114.615 256-256S397.385 0 256 0zm175.488 111.056c-18.499-16.647-34.146-27.194-37.864-29.631-3.425-4.848-10.688-12.058-19.331-19.892a228.206 228.206 0 0 1 57.195 49.523zm-91.221 8.952c21.667 26.975 23.888 61.432 25.358 84.271l.036.544c-13.233 13.411-60.912 55.591-69.758 63.401-28.151-16.543-82.662-27.992-92.584-29.983-6.963-22.431-17.918-60.99-20.386-88.729l-.083-.927c6.218-8.77 29.972-39.42 69.553-57.21 10.122.206 60.822 7.76 87.864 28.633zM91.4 111.645c1.764-3.265 8.76-13.399 36.307-43.638a226.62 226.62 0 0 1 56.568-28.049c2.287-.027 4.648-.041 7.031-.041 20.169 0 38.731.989 46.115 1.438l8.916 42.964c-24.238 11.371-42.399 27.128-53.534 38.577-8.4 8.639-14.076 16.054-17.015 20.177-4.489-1.851-10.524-2.756-18.279-2.756-21.692 0-50.975 7.135-61.342 9.853-6.21-15.869-5.092-34.572-4.767-38.525zM28.983 272.222a231.51 231.51 0 0 1-.573-16.223c0-45.65 13.48-89.675 38.988-127.361 6.815-5.158 11.546-8.431 14.755-10.496-.107 9.036.771 23.99 6.501 37.267-15.703 31.843-24.663 57.32-26.638 75.752-.851 7.926-.229 13.115.686 16.403-12.448 7.844-24.376 21.339-30.282 28.553a56.432 56.432 0 0 0-3.437-3.895zm85.677 151.26-18.522-5.569c-20.715-20.451-37.087-44.214-48.673-70.649-13.106-42.969-11.652-58.645-11.143-61.682 2.895-3.754 16.682-21.133 30.603-30.108 7.019 10.448 28.584 39.721 56.067 49.932-.56 23.097 6.548 46.035 12.756 61.474 4.937 12.274 9.979 21.67 12.611 26.281-8.623 8.148-28.777 25.975-33.699 30.321zm42.918-32.279c-2.579-4.287-26.981-45.997-25.622-86.446 4.037-3.771 16.747-15.571 30.405-27.537 26.484-23.201 35.779-28.912 38.954-30.259 9.095 1.839 68.8 14.374 93.762 31.302 6.188 16.393 18.852 76.461 20.803 85.794-9.033 10.509-36.832 41.181-66.325 56.979-35.655-2.358-58.77-10.347-71.924-16.671-12.811-6.161-18.87-11.957-20.053-13.162zM256 483.591c-3.045 0-6.097-.061-9.148-.184 9.347-2.413 15.374-5.093 18.544-6.739 2.325.854 4.695 1.772 7.173 2.735 2.436.944 4.973 1.93 7.625 2.908-8.032.851-16.12 1.28-24.194 1.28zm155.752-79.616-.498 2.883c-1.458 8.438-5.773 17.403-12.83 26.651-28.466 22.867-62.313 38.665-97.977 45.733-9.219-2.189-17.056-5.231-24.643-8.176-2.711-1.052-5.294-2.056-7.87-2.991-10.417-16.399-11.832-34.48-12.007-40.336 30.58-17.129 58.694-48.448 67.252-58.459 11.243 1.611 21.851 2.428 31.567 2.428 27.688 0 42.575-6.616 49.121-10.694 4.177 8.492 9.162 22.741 9.364 42.598zm62.593-168.374c2.591 5.09 6.076 13.702 9.138 27.256-.734 24.818-5.449 49.117-14.02 72.232-8.225 22.188-19.843 42.894-34.541 61.563-4.68 1.878-9.175 3.386-12.794 4.499-.613-21.451-6.435-36.773-11.006-45.608 26.429-22.872 30.089-81.328 30.567-93.478 13.366-6.91 25.499-18.684 32.656-26.464zm-15.536-82.982c1.6 3.136 3.151 6.363 4.621 9.61 1.914 16.001 6.149 52.714 6.149 64.461l-.035.891c-6.228 6.999-18.139 19.169-31.169 26.127-17.575-23.213-50.775-42.813-63.822-49.956-1.399-21.711-3.697-57.351-24.758-86.016l39.662-28.339c7.368 4.94 41.745 28.88 69.352 63.222z" fill="currentColor" opacity="1" data-original="currentColor" class=""></path></g></svg>