<svg xmlns="http://www.w3.org/2000/svg" version="1.1" xmlns:xlink="http://www.w3.org/1999/xlink" width="512" height="512" x="0" y="0" viewBox="0 0 500 500" style="enable-background:new 0 0 512 512" xml:space="preserve"><g><path d="M240 486.86H68.72a41.547 41.547 0 0 1-41.5-41.5V54.64a41.547 41.547 0 0 1 41.5-41.5H240a41.565 41.565 0 0 1 40.729 33.5 6.5 6.5 0 0 1-12.758 2.5 28.54 28.54 0 0 0-27.971-23H68.72a28.532 28.532 0 0 0-28.5 28.5v390.72a28.532 28.532 0 0 0 28.5 28.5H240a28.532 28.532 0 0 0 28.5-28.5V399.6a6.5 6.5 0 0 1 13 0v45.76a41.547 41.547 0 0 1-41.5 41.5z" fill="currentColor" opacity="1" data-original="currentColor"></path><path d="M192.779 58.69h-75.3a21.4 21.4 0 0 1-19.95-13.49l-9.292-23.138a6.5 6.5 0 0 1 6.033-8.922h121.72a6.5 6.5 0 0 1 6.032 8.922L212.73 45.2a21.4 21.4 0 0 1-19.951 13.49zm-88.895-32.55 5.71 14.217a8.457 8.457 0 0 0 7.886 5.333h75.3a8.458 8.458 0 0 0 7.887-5.332l5.71-14.218zM388.036 436.833a38.485 38.485 0 0 1-12.23-2l-.588-.2a39.078 39.078 0 0 1-12.329-7.036 184.827 184.827 0 0 1-38.5-43.806 13.008 13.008 0 0 0-11.008-6h-76.76a13.006 13.006 0 0 0-11.008 6 184.824 184.824 0 0 1-38.5 43.805 39.079 39.079 0 0 1-12.329 7.037l-.585.2a38.7 38.7 0 0 1-32.824-3.926 39.488 39.488 0 0 1-18.345-28.3 68.032 68.032 0 0 1 .959-22.366c9.312-47.763 31.933-93.194 67.23-135a31.423 31.423 0 0 1 24.063-11.163h119.439a31.423 31.423 0 0 1 24.063 11.163A343.046 343.046 0 0 1 391.81 291.4a278.967 278.967 0 0 1 34.209 88.867 67.984 67.984 0 0 1 .954 22.341 39.488 39.488 0 0 1-18.345 28.3 38.946 38.946 0 0 1-20.592 5.925zM236.621 364.8h76.758a26.1 26.1 0 0 1 22.043 12.126 171.945 171.945 0 0 0 35.815 40.712 26.137 26.137 0 0 0 8.234 4.717l.464.157a25.741 25.741 0 0 0 21.824-2.637 26.53 26.53 0 0 0 12.331-19.009 54.334 54.334 0 0 0-.826-18.083 266.025 266.025 0 0 0-32.64-84.755 329.849 329.849 0 0 0-31.773-44.4 18.449 18.449 0 0 0-14.13-6.549H215.279a18.449 18.449 0 0 0-14.13 6.549c-34.328 40.662-55.4 82.9-64.408 129.131a54.4 54.4 0 0 0-.831 18.11 26.53 26.53 0 0 0 12.331 19.009 25.743 25.743 0 0 0 21.826 2.636l.461-.156a26.116 26.116 0 0 0 8.234-4.717 171.927 171.927 0 0 0 35.816-40.712 26.1 26.1 0 0 1 22.043-12.129z" fill="currentColor" opacity="1" data-original="currentColor"></path><path d="M231.963 349.691h-23.075a6.5 6.5 0 0 1-6.5-6.5v-13.558H188.83a6.5 6.5 0 0 1-6.5-6.5v-23.075a6.5 6.5 0 0 1 6.5-6.5h13.558V280a6.5 6.5 0 0 1 6.5-6.5h23.075a6.5 6.5 0 0 1 6.5 6.5v13.558h13.558a6.5 6.5 0 0 1 6.5 6.5v23.075a6.5 6.5 0 0 1-6.5 6.5h-13.558v13.558a6.5 6.5 0 0 1-6.5 6.5zm-16.575-13h10.075v-13.558a6.5 6.5 0 0 1 6.5-6.5h13.558v-10.075h-13.558a6.5 6.5 0 0 1-6.5-6.5V286.5h-10.075v13.558a6.5 6.5 0 0 1-6.5 6.5H195.33v10.075h13.558a6.5 6.5 0 0 1 6.5 6.5zM331.234 306.822a18.544 18.544 0 1 1 18.544-18.544 18.565 18.565 0 0 1-18.544 18.544zm0-24.088a5.544 5.544 0 1 0 5.544 5.544 5.551 5.551 0 0 0-5.544-5.544zM331.234 355.627a18.544 18.544 0 1 1 18.544-18.544 18.565 18.565 0 0 1-18.544 18.544zm0-24.087a5.544 5.544 0 1 0 5.544 5.543 5.55 5.55 0 0 0-5.544-5.543z" fill="currentColor" opacity="1" data-original="currentColor"></path><path d="M306.831 331.225a18.544 18.544 0 1 1 18.544-18.544 18.565 18.565 0 0 1-18.544 18.544zm0-24.088a5.544 5.544 0 1 0 5.544 5.544 5.55 5.55 0 0 0-5.544-5.544zM355.637 331.225a18.544 18.544 0 1 1 18.544-18.544 18.565 18.565 0 0 1-18.544 18.544zm0-24.088a5.544 5.544 0 1 0 5.544 5.544 5.55 5.55 0 0 0-5.544-5.544zM168.275 167.607A35.606 35.606 0 1 1 203.882 132a35.647 35.647 0 0 1-35.607 35.607zm0-58.212A22.606 22.606 0 1 0 190.882 132a22.632 22.632 0 0 0-22.607-22.6zM288.649 137.015a12.522 12.522 0 0 1-3.547-.515l-37.74-11.109a12.516 12.516 0 0 1-8.462-15.521l11.11-37.739a12.516 12.516 0 0 1 15.52-8.462l37.74 11.11a12.514 12.514 0 0 1 8.462 15.521l-11.109 37.74a12.518 12.518 0 0 1-11.974 8.975zm-37.135-23.953 36.78 10.827 10.826-36.78-36.779-10.828zM384.263 163.42a11.424 11.424 0 0 1-8.5-3.794l-5.275-5.834-7.8 1.038A11.5 11.5 0 0 1 351.2 137.7l3.919-6.821-3.4-7.094a11.5 11.5 0 0 1 12.739-16.22l7.7 1.62 5.7-5.424a11.5 11.5 0 0 1 19.364 7.1l.837 7.822 6.918 3.743a11.5 11.5 0 0 1-.772 20.611l-7.18 3.214-1.422 7.736a11.425 11.425 0 0 1-8.167 8.984 11.627 11.627 0 0 1-3.173.449zm-13.187-22.716a11.507 11.507 0 0 1 8.527 3.784l3.767 4.168 1.016-5.522a11.5 11.5 0 0 1 6.61-8.418l5.126-2.295-4.938-2.671a11.5 11.5 0 0 1-5.963-8.888l-.6-5.585-4.067 3.872a11.492 11.492 0 0 1-10.3 2.923l-5.494-1.156 2.424 5.066a11.493 11.493 0 0 1-.4 10.7l-2.8 4.868 5.567-.742a11.578 11.578 0 0 1 1.525-.108zM214.679 460.816H94.041a6.5 6.5 0 0 1 0-13h120.638a6.5 6.5 0 1 1 0 13zM311.363 220.461h-.226a6.486 6.486 0 0 1-6.274-6.67c.035-1.188 1.178-29.354 29.264-51.659a6.5 6.5 0 1 1 8.084 10.18c-23.162 18.4-24.316 40.943-24.355 41.894a6.515 6.515 0 0 1-6.493 6.255zM234.123 220.479a6.5 6.5 0 0 1-6.492-6.281c-.042-1.018-1.23-23.523-24.355-41.889a6.5 6.5 0 0 1 8.084-10.18c28.086 22.305 29.229 50.471 29.264 51.659a6.5 6.5 0 0 1-6.306 6.688q-.098.003-.195.003zM275.317 220.479a6.5 6.5 0 0 1-6.5-6.5v-60.511a6.5 6.5 0 1 1 13 0v60.511a6.5 6.5 0 0 1-6.5 6.5z" fill="currentColor" opacity="1" data-original="currentColor"></path></g></svg>