<svg xmlns="http://www.w3.org/2000/svg" version="1.1" xmlns:xlink="http://www.w3.org/1999/xlink" width="512" height="512" x="0" y="0" viewBox="0 0 68 68" style="enable-background:new 0 0 512 512" xml:space="preserve"><g><path d="m64.289 31.058-2.404-1.47V19.27c0-1.97-1.6-3.58-3.58-3.58H39.151L22.813 5.7a3.582 3.582 0 0 0-4.92 1.186l-5.38 8.803H9.694a3.59 3.59 0 0 0-3.58 3.58v6.884l-3.588 5.87a3.574 3.574 0 0 0 1.186 4.918l2.402 1.468v10.32a3.59 3.59 0 0 0 3.58 3.58h19.156l16.339 9.989a3.555 3.555 0 0 0 2.704.426 3.557 3.557 0 0 0 2.214-1.612l5.382-8.803h2.815c1.98 0 3.58-1.61 3.58-3.58v-6.881l3.59-5.872a3.583 3.583 0 0 0-1.186-4.92zM60.385 19.27v6.025H40.75l.108-.26a3.092 3.092 0 0 0-1.67-4.033l-1.665-.69a7.951 7.951 0 0 0-7.78.94V17.19h28.562c1.15 0 2.08.93 2.08 2.08zM24.16 50.809V34.246l1.646-1.646c.502.036.497.016.791 0l1.647 1.646V50.81zM39.472 24.46l-.69 1.664a6.455 6.455 0 0 1-3.517 3.518 6.442 6.442 0 0 1-4.975 0l-.087-.037.002-.006c.198-.666.203-1.355.12-1.75l4.76-1.97c.38-.16.56-.6.4-.98a.754.754 0 0 0-.98-.41l-4.65 1.93a4.314 4.314 0 0 0-1.292-1.413 6.504 6.504 0 0 1 5.907-3.803c.828 0 1.668.16 2.479.495l1.664.689a1.59 1.59 0 0 1 .859 2.073zM26.215 31.12c-1.48 0-2.68-1.19-2.69-2.67v-.01c0-1.468 1.212-2.66 2.69-2.66 1.47 0 2.66 1.211 2.66 2.66v.01c-.01 1.48-1.2 2.67-2.66 2.67zm-2.056-8.45v-5.478h4.084v5.478a8.017 8.017 0 0 0-1.062 1.739 3.493 3.493 0 0 0-.966-.13c-.34 0-.68.04-.99.13l-.003.002a8.014 8.014 0 0 0-1.063-1.74zm-.312 2.339h-.002c-.53.37-.97.85-1.29 1.41l-4.66-1.93a.754.754 0 0 0-.98.41c-.16.38.02.82.41.98l4.75 1.97c-.04.19-.05.39-.05.59 0 .41.06.8.17 1.17l-.083.034a6.508 6.508 0 0 1-8.493-3.518l-.69-1.664a1.588 1.588 0 0 1 .86-2.072l1.664-.69c3.237-1.342 6.95.143 8.394 3.31zm-11.515 1.899a7.932 7.932 0 0 0 2.592 3.195l-.89.89H7.623v-4.085h4.71zm3.93 3.978c.1.047.198.1.301.142a7.943 7.943 0 0 0 6.123.001l.19-.078c.35.47.8.859 1.309 1.148l-6.273 6.273-.68-3.303a.75.75 0 0 0-.584-.583l-3.304-.682zM28.217 32.1c.509-.28.958-.67 1.318-1.14l.003-.003.178.073c.987.409 2.024.614 3.062.614s2.074-.205 3.061-.615c.103-.042.2-.095.301-.142l2.918 2.918-3.304.681a.75.75 0 0 0-.583.584l-.681 3.303zm9.261-1.996a7.94 7.94 0 0 0 2.645-3.308h20.262v4.085h-22.13zM19.174 7.67a2.079 2.079 0 0 1 2.856-.69l14.246 8.71H14.271zm-9.479 9.52H22.66v4.062a7.951 7.951 0 0 0-7.78-.94l-1.665.691a3.09 3.09 0 0 0-1.67 4.032l.154.373H7.615V19.27c0-1.15.93-2.08 2.08-2.08zm-5.2 18.472a2.075 2.075 0 0 1-.688-2.855l2.308-3.776v7.622zm3.12 13.068V32.493h4.92L11.3 33.728a.75.75 0 0 0 .378 1.264l4.184.863.862 4.183a.75.75 0 0 0 1.264.38l4.67-4.671V50.81H9.696c-1.15 0-2.08-.93-2.08-2.08zm41.213 11.6c-.29.474-.746.806-1.285.937a2.067 2.067 0 0 1-1.571-.247l-14.247-8.71h22.007zm9.477-9.52H29.743V35.746l4.67 4.671a.75.75 0 0 0 1.265-.379l.862-4.183 4.183-.863a.75.75 0 0 0 .38-1.264l-1.348-1.348h20.63v16.35c0 1.15-.93 2.08-2.08 2.08zm5.891-15.616-2.31 3.78v-7.628l1.62.991a2.081 2.081 0 0 1 .69 2.857z" fill="#000000" opacity="1" data-original="#000000"></path><path d="M55.02 40.674H44.16a.75.75 0 0 0 0 1.5h10.86a.75.75 0 0 0 0-1.5zM55.02 44.72H44.16a.75.75 0 0 0 0 1.5h10.86a.75.75 0 0 0 0-1.5zM2.751 5.524h1.273v1.273a.75.75 0 0 0 1.5 0V5.524h1.274a.75.75 0 0 0 0-1.5H5.524V2.75a.75.75 0 0 0-1.5 0v1.274H2.751a.75.75 0 0 0 0 1.5zM59.302 61.969h-1.273v-1.273a.75.75 0 0 0-1.5 0v1.273h-1.273a.75.75 0 0 0 0 1.5h1.273v1.273a.75.75 0 0 0 1.5 0V63.47h1.273a.75.75 0 0 0 0-1.5zM5.355 60.5c-1.51 0-2.75 1.24-2.75 2.75 0 1.52 1.24 2.75 2.75 2.75 1.52 0 2.75-1.23 2.75-2.75 0-1.51-1.23-2.75-2.75-2.75zm0 4a1.25 1.25 0 1 1 .001-2.501 1.25 1.25 0 0 1 0 2.5zM49.965 11c1.52 0 2.75-1.23 2.75-2.74 0-1.52-1.23-2.76-2.75-2.76s-2.75 1.24-2.75 2.76c0 1.51 1.23 2.74 2.75 2.74zm0-4c.69 0 1.25.57 1.25 1.26 0 .69-.56 1.24-1.25 1.24s-1.25-.55-1.25-1.24.56-1.26 1.25-1.26zM9.928 12.085a.75.75 0 0 0 .75-.75v-.282a.75.75 0 0 0-1.5 0v.282c0 .414.336.75.75.75zM30.605 5.664a.75.75 0 0 0 .75-.75v-.282a.75.75 0 0 0-1.5 0v.282c0 .414.336.75.75.75zM39.38 11.286a.75.75 0 0 0 .75-.75v-.282a.75.75 0 0 0-1.5 0v.282c0 .414.335.75.75.75zM64.26 18.787a.75.75 0 0 0 .75-.75v-.282a.75.75 0 0 0-1.5 0v.282c0 .414.336.75.75.75zM59.302 5.664a.75.75 0 0 0 .75-.75v-.282a.75.75 0 0 0-1.5 0v.282c0 .414.336.75.75.75zM24.804 55.395a.75.75 0 0 0-.75.75v.282a.75.75 0 0 0 1.5 0v-.282a.75.75 0 0 0-.75-.75zM34 62.359a.75.75 0 0 0-.75.75v.282a.75.75 0 0 0 1.5 0v-.282a.75.75 0 0 0-.75-.75zM63.549 55.253a.75.75 0 0 0-.75.75v.283a.75.75 0 0 0 1.5 0v-.283a.75.75 0 0 0-.75-.75zM14.68 58.736a.75.75 0 0 0-.75.75v.283a.75.75 0 0 0 1.5 0v-.283a.75.75 0 0 0-.75-.75zM4.288 51.706v-.282a.75.75 0 0 0-1.5 0v.282a.75.75 0 0 0 1.5 0z" fill="#000000" opacity="1" data-original="#000000"></path></g></svg>