<svg xmlns="http://www.w3.org/2000/svg" version="1.1" xmlns:xlink="http://www.w3.org/1999/xlink" width="512" height="512" x="0" y="0" viewBox="0 0 682.667 682.667" style="enable-background:new 0 0 512 512" xml:space="preserve" class=""><g><defs><clipPath id="a" clipPathUnits="userSpaceOnUse"><path d="M0 512h512V0H0Z" fill="currentColor" opacity="1" data-original="currentColor"></path></clipPath></defs><g clip-path="url(#a)" transform="matrix(1.33333 0 0 -1.33333 0 682.667)"><path d="M0 0c-26.963 30.229-12.318 52.8 2.992 65.716 7.943 6.701 2.602 19.785-7.764 19.056-10.883-.765-24.107-5.54-37.924-19.355-34.427-34.428-22.559-83.792-73.572-94.046-33.276-6.688-52.575-16.085-66.602-26.937" style="stroke-width:15;stroke-linecap:round;stroke-linejoin:round;stroke-miterlimit:10;stroke-dasharray:none;stroke-opacity:1" transform="translate(227.005 279.608)" fill="none" stroke="currentColor" stroke-width="15" stroke-linecap="round" stroke-linejoin="round" stroke-miterlimit="10" stroke-dasharray="none" stroke-opacity="" data-original="currentColor"></path><path d="M0 0c-22.555-37.428-12.913-92.509 26.769-132.19 44.778-44.779 109.998-52.16 145.671-16.486 33.169 33.168 20.974 71.613 34.188 84.828 12.754 12.754 41.427 18.387 56.28 33.241.398.398.781.796 1.149 1.196 8.117 8.801-2.162 22.255-12.88 16.921-28.163-14.014-43.848 10.714-48.698 20.373" style="stroke-width:15;stroke-linecap:round;stroke-linejoin:round;stroke-miterlimit:10;stroke-dasharray:none;stroke-opacity:1" transform="translate(19.45 197.4)" fill="none" stroke="currentColor" stroke-width="15" stroke-linecap="round" stroke-linejoin="round" stroke-miterlimit="10" stroke-dasharray="none" stroke-opacity="" data-original="currentColor"></path><path d="m0 0-215.893-207.732a5.41 5.41 0 0 1-.075-7.725l26.359-26.359a5.41 5.41 0 0 1 7.724.075L26.723-24.938" style="stroke-width:15;stroke-linecap:round;stroke-linejoin:round;stroke-miterlimit:10;stroke-dasharray:none;stroke-opacity:1" transform="translate(384.234 429.11)" fill="none" stroke="currentColor" stroke-width="15" stroke-linecap="round" stroke-linejoin="round" stroke-miterlimit="10" stroke-dasharray="none" stroke-opacity="" data-original="currentColor"></path><path d="m0 0-32.52 32.52c-4.225 4.225-4.225 11.076 0 15.301l6.025 6.025c4.225 4.224 11.076 4.224 15.301 0l32.52-32.521c4.225-4.224 4.225-11.075 0-15.301L15.301 0C11.076-4.226 4.226-4.226 0 0Z" style="stroke-width:15;stroke-linecap:round;stroke-linejoin:round;stroke-miterlimit:10;stroke-dasharray:none;stroke-opacity:1" transform="translate(98.543 85.05)" fill="none" stroke="currentColor" stroke-width="15" stroke-linecap="round" stroke-linejoin="round" stroke-miterlimit="10" stroke-dasharray="none" stroke-opacity="" data-original="currentColor"></path><path d="m0 0-2.985 2.985c-4.225 4.226-11.076 4.226-15.301 0l-6.025-6.024c-4.225-4.225-4.225-11.076 0-15.301l32.52-32.519c4.226-4.226 11.076-4.226 15.302 0l6.024 6.023c4.225 4.226 4.225 11.076 0 15.302l-3.874 3.874" style="stroke-width:15;stroke-linecap:round;stroke-linejoin:round;stroke-miterlimit:10;stroke-dasharray:none;stroke-opacity:1" transform="translate(135.86 181.435)" fill="none" stroke="currentColor" stroke-width="15" stroke-linecap="round" stroke-linejoin="round" stroke-miterlimit="10" stroke-dasharray="none" stroke-opacity="" data-original="currentColor"></path><path d="m0 0 .217.237" style="stroke-width:15;stroke-linecap:round;stroke-linejoin:round;stroke-miterlimit:10;stroke-dasharray:none;stroke-opacity:1" transform="translate(175.527 103.547)" fill="none" stroke="currentColor" stroke-width="15" stroke-linecap="round" stroke-linejoin="round" stroke-miterlimit="10" stroke-dasharray="none" stroke-opacity="" data-original="currentColor"></path><path d="m0 0 .217.237" style="stroke-width:15;stroke-linecap:round;stroke-linejoin:round;stroke-miterlimit:10;stroke-dasharray:none;stroke-opacity:1" transform="translate(141.772 69.923)" fill="none" stroke="currentColor" stroke-width="15" stroke-linecap="round" stroke-linejoin="round" stroke-miterlimit="10" stroke-dasharray="none" stroke-opacity="" data-original="currentColor"></path><path d="m0 0 .223-.202" style="stroke-width:15;stroke-linecap:round;stroke-linejoin:round;stroke-miterlimit:10;stroke-dasharray:none;stroke-opacity:1" transform="translate(165.754 79.778)" fill="none" stroke="currentColor" stroke-width="15" stroke-linecap="round" stroke-linejoin="round" stroke-miterlimit="10" stroke-dasharray="none" stroke-opacity="" data-original="currentColor"></path><path d="m0 0-22.229-6.348a5.406 5.406 0 0 1-3.395-2.869l-11.369-23.792a5.41 5.41 0 0 1 1.056-6.157l23.977-23.978c1.936-1.935 5.037-2.145 7.167-.424 11.215 9.052 20.46 6.416 25.306 3.724 2.31-1.283 5.22-.622 6.839 1.467l21.404 27.622a34.471 34.471 0 0 0 10.68 9.115l20.498 11.237c3.163 1.733 3.775 6.018 1.225 8.569L63.954 15.371a5.411 5.411 0 0 1-5.311 1.377l-23.77-6.789" style="stroke-width:15;stroke-linecap:round;stroke-linejoin:round;stroke-miterlimit:10;stroke-dasharray:none;stroke-opacity:1" transform="translate(421.756 468.908)" fill="none" stroke="currentColor" stroke-width="15" stroke-linecap="round" stroke-linejoin="round" stroke-miterlimit="10" stroke-dasharray="none" stroke-opacity="" data-original="currentColor"></path><path d="m0 0 24.796-24.796" style="stroke-width:15;stroke-linecap:round;stroke-linejoin:round;stroke-miterlimit:10;stroke-dasharray:none;stroke-opacity:1" transform="translate(361.097 404.92)" fill="none" stroke="currentColor" stroke-width="15" stroke-linecap="round" stroke-linejoin="round" stroke-miterlimit="10" stroke-dasharray="none" stroke-opacity="" data-original="currentColor"></path><path d="m0 0 24.796-24.797" style="stroke-width:15;stroke-linecap:round;stroke-linejoin:round;stroke-miterlimit:10;stroke-dasharray:none;stroke-opacity:1" transform="translate(337.396 381.219)" fill="none" stroke="currentColor" stroke-width="15" stroke-linecap="round" stroke-linejoin="round" stroke-miterlimit="10" stroke-dasharray="none" stroke-opacity="" data-original="currentColor"></path><path d="m0 0 24.796-24.797" style="stroke-width:15;stroke-linecap:round;stroke-linejoin:round;stroke-miterlimit:10;stroke-dasharray:none;stroke-opacity:1" transform="translate(313.694 357.518)" fill="none" stroke="currentColor" stroke-width="15" stroke-linecap="round" stroke-linejoin="round" stroke-miterlimit="10" stroke-dasharray="none" stroke-opacity="" data-original="currentColor"></path><path d="m0 0 24.796-24.796" style="stroke-width:15;stroke-linecap:round;stroke-linejoin:round;stroke-miterlimit:10;stroke-dasharray:none;stroke-opacity:1" transform="translate(289.993 333.815)" fill="none" stroke="currentColor" stroke-width="15" stroke-linecap="round" stroke-linejoin="round" stroke-miterlimit="10" stroke-dasharray="none" stroke-opacity="" data-original="currentColor"></path><path d="m0 0 24.796-24.796" style="stroke-width:15;stroke-linecap:round;stroke-linejoin:round;stroke-miterlimit:10;stroke-dasharray:none;stroke-opacity:1" transform="translate(266.291 310.114)" fill="none" stroke="currentColor" stroke-width="15" stroke-linecap="round" stroke-linejoin="round" stroke-miterlimit="10" stroke-dasharray="none" stroke-opacity="" data-original="currentColor"></path><path d="m0 0 29.387-29.387" style="stroke-width:15;stroke-linecap:round;stroke-linejoin:round;stroke-miterlimit:10;stroke-dasharray:none;stroke-opacity:1" transform="translate(240.294 288.708)" fill="none" stroke="currentColor" stroke-width="15" stroke-linecap="round" stroke-linejoin="round" stroke-miterlimit="10" stroke-dasharray="none" stroke-opacity="" data-original="currentColor"></path><path d="m0 0 29.387-29.387" style="stroke-width:15;stroke-linecap:round;stroke-linejoin:round;stroke-miterlimit:10;stroke-dasharray:none;stroke-opacity:1" transform="translate(216.593 265.007)" fill="none" stroke="currentColor" stroke-width="15" stroke-linecap="round" stroke-linejoin="round" stroke-miterlimit="10" stroke-dasharray="none" stroke-opacity="" data-original="currentColor"></path><path d="m0 0 29.387-29.387" style="stroke-width:15;stroke-linecap:round;stroke-linejoin:round;stroke-miterlimit:10;stroke-dasharray:none;stroke-opacity:1" transform="translate(192.892 241.305)" fill="none" stroke="currentColor" stroke-width="15" stroke-linecap="round" stroke-linejoin="round" stroke-miterlimit="10" stroke-dasharray="none" stroke-opacity="" data-original="currentColor"></path></g></g></svg>