<svg xmlns="http://www.w3.org/2000/svg" version="1.1" xmlns:xlink="http://www.w3.org/1999/xlink" width="512" height="512" x="0" y="0" viewBox="0 0 512 512" style="enable-background:new 0 0 512 512" xml:space="preserve" class=""><g><path d="M510.9 204.5C496.2 111.9 426.1 31.9 356.2 79c-11.2 34.8 23.8 63.4 55.9 46.8 1.5 6.1 5.5 12.3 8.6 15.5-2.4 18.4 6 41 18 52.9-21.5 1.4-39.6-6.7-54.1 14-20.3-3.2-48.1 5.9-61.6 18-9.9-4.6-17.9-12.5-22.9-22.3 5.7-7.9 9.6-15.9 12.2-23 16.8-.8 25.5-22.5 14-34.7 37.2-79.5-52.1-144.4-116.9-83.3-28.8 13.7-40.9 51.7-24.8 83-12 12.3-3.3 34.2 13.8 35.1 3 8.4 7.1 16.2 12.2 23.1-4 9.9-11.6 17.9-21.3 22.2-17.2-13.9-39.7-20.4-61.7-18-14.5-20.8-32.6-12.6-54.1-14 11.9-11.8 20.4-34.5 18-52.9 3.1-3.2 7.1-9.4 8.6-15.5 15.8 8 34.7 5.9 46.8-6.1 10.1-10 13.7-26 9.1-40.7-.4-1.3-1.3-2.5-2.6-3.1C78 38.3 18.5 110.2 1.1 204.5c-.8 5.8 6.9 22.8 21 23.5 6.9 36.3 41.3 75.7 89.9 78.7-5 26.3 14.2 54.6 23.2 63.2 16.9 19.7 27.7 52.9 32.2 98.6.3 2.7 2.5 4.8 5.3 4.8h166.8c2.7 0 5-2.1 5.3-4.8 4.4-45.7 15.2-78.9 32.2-98.6 6.7-7.8 21.9-24.4 23.7-50.6.2-4.2.1-8.4-.5-12.7 48.6-3 83-42.6 89.9-78.7 14.5-.8 21.7-18.1 20.8-23.4zm-195.4-35.4c.5-1.3.2-5.7.3-7.1 1.6-1.8 2.9-3.8 4.4-5.7 1.9 4.8-.3 10.6-4.7 12.8zM189.4 160c0-1.4.3-2.8.8-4 1.4 2 2.8 3.9 4.3 5.9.1 1.4-.2 5.9.3 7.2-3.2-1.7-5.4-5.1-5.4-9.1zm11.2-9c-.2.2-.4.4-.5.6-20.5-27.4-14.7-66.1 14.8-79.8 14-14 32.5-22.6 51.1-22.3 52.1-.9 74.5 62.1 45.1 101.3-4.3-7.6-7-15.6-8.9-24.3-.3-.8-.4-1.6-1-2.1-3.1-3.7-9.1-1.9-13.4-3-20.6-2.2-40.7-7-60.1-14.2-1.4-.5-3-.4-4.3.3-3.1 1.6-3 5.5-4.1 8.3-3.8 13-10.2 24.8-18.7 35.2zm4.5 15.8v-4.6c11-12.4 19.6-27.1 24.4-43 20.6 7.2 41.6 11.5 63.3 13.5 2.5 10.4 6.9 20 12.5 29-.8 25.1-20.9 51.2-45.4 60.5-9.9 3.2-19.5-5.1-27.1-10.1-14.5-11.3-23.7-27.2-27.7-45.3zm-.3 295.9 3.1-59.4c.4-6.8 3.5-13.3 8.7-17.8l8.8-7.6c4.6-4 10.5-6.1 16.5-6.1h28c10-.7 18.4 7.6 25.3 13.7 5.2 4.5 8.4 11 8.7 17.8l3.1 59.4zm288-246.4c-3.9 2.4-11.2-.8-12.4 5.5-1.9 10.9-9.2 38.3-35.2 57.4-19.7 14.5-40.8 17-51.6 17.2-1.6 0-3.1.8-4.1 2-1 1.3-1.3 2.9-1 4.4 6.9 23.5-9.8 50.4-18.9 59.1-18.7 21.3-29.9 54.4-35 100.7h-16.9l-3.2-60c-.5-9.7-5-18.9-12.4-25.3l-8.8-7.6c-6.5-5.6-14.8-8.7-23.4-8.7h-28c-12.7-.6-23.4 8.1-32.2 16.3-7.4 6.4-11.9 15.6-12.4 25.3l-3.2 60h-16.9c-4.9-45.5-16.4-79-34.2-99.7-6-7-19.6-21.8-21.1-44.3-.3-5.2.2-10.5 1.4-15.9.8-3.2-1.8-6.5-5.1-6.5-45.5-.1-80.9-36.3-86.7-74.6-1.1-6.4-8.5-3.1-12.4-5.5-5.4-2.6-7.1-8.7-7.6-10.9 16-85.5 68-152.7 134.6-121.2 7.2 28.7-24.2 46.2-47.2 28.5-3.3-2.7-8.6-.1-8.5 4.1 0 2.7-.5 5.3-1.4 7.9-1.8 5.1-4.8 8.7-7 10.7-1.3 1.2-1.9 2.9-1.6 4.6 1.1 8.5.4 16.8-2 24.8-4.4 14.7-13.6 24.1-20.5 29.4-3.7 2.6-2.1 8.9 2.4 9.4 10 1.8 24.7 1.9 33.6 1.1 12.4-1.5 19.6 1.5 26.6 12.2 1.1 1.7 3.2 2.7 5.2 2.4 10.8-1.6 22-.7 32.4 2.4 9.7 3 18.9 8.1 26.6 14.8 1.5 1.3 3.5 1.6 5.3 1 11.9-4.3 21.9-13 27.9-24.2 10.1 9.6 22.7 19.4 37.2 20.6 14.6-1.3 27.5-11.2 37.6-21 6.8 11.1 17 19.8 29.1 24.6 1.9.7 3.9.4 5.4-.9 5.3-4.6 14.3-11 26.6-14.8 10.4-3.2 21.6-4 32.4-2.4 2.1.3 4.1-.6 5.2-2.4 7.1-10.7 14.2-13.8 26.6-12.3 8.8.9 23.6.7 33.6-1 4.5-.6 6.1-6.8 2.4-9.4-6.9-5.3-16.1-14.7-20.6-29.1-2.5-8-3.2-16.3-2.1-24.8.2-1.7-.4-3.4-1.6-4.6-2.2-2.1-5.2-5.6-7-10.7-.9-2.5-1.3-5.2-1.4-8 0-4.2-5.3-6.7-8.5-4.1-22.9 17.7-54.4.1-47.2-28.5 66.6-31.5 118.6 35.7 134.6 121.2-.3 2-2 8.2-7.4 10.8zM261.3 406.4v8.8c4.6 4.6 15.3 4.7 18.9 2.7 6.5-2.3 10.1 7.5 3.6 9.9-5.5 2.3-15.8 2.8-22.5-.4v8.8c4.6 4.6 15.3 4.7 18.9 2.7 6.5-2.3 10.1 7.5 3.6 9.9-5.6 2.3-15.8 2.8-22.5-.4v4.8c0 2.9-2.4 5.3-5.3 5.3s-5.3-2.4-5.3-5.3v-4.8c-6.6 3.3-17 2.8-22.5.4-6.5-2.4-2.9-12.3 3.6-9.9 3.5 2 14.2 1.9 18.9-2.7v-8.8c-6.6 3.3-17 2.8-22.5.4-6.5-2.4-2.9-12.3 3.6-9.9 3.6 1.9 14.2 1.9 18.9-2.7v-8.8c-6.6 3.3-17 2.8-22.5.4-6.5-2.4-2.9-12.3 3.6-9.9 3.6 1.9 14.2 1.9 18.9-2.7v-4.1c0-2.9 2.4-5.3 5.3-5.3s5.3 2.4 5.3 5.3v4.1c4.6 4.6 15.3 4.7 18.9 2.7 6.5-2.3 10.1 7.5 3.6 9.9-5.6 2.4-15.9 2.9-22.5-.4zm127.3-143.1c1.6 2.4.9 5.7-1.5 7.3l-8.4 5.5c-11.3 7.4-20.4 17.7-26.4 29.7L341 328.5c-4.7 9.4-14.2 15.5-24.7 16l-32.5 1.2c-11.8.6-23.2-6.7-27.7-17.6-4.5 11-16 18.2-27.7 17.6l-32.4-1.2c-10.6-.4-20-6.5-24.7-16L160 305.8c-7.3-15.3-20.5-26.7-34.9-35.3-5.7-3.8-.1-12.6 5.8-8.9l8.4 5.5c12.8 8.4 23.3 20.1 30.1 33.8l11.3 22.7c3 6 9 9.9 15.7 10.1l32.4 1.2c9.3.4 17.8-6.8 18.9-16l3.1-23.7c.5-2.4 2.7-4.7 5.2-4.5 2.6-.2 4.8 2.1 5.2 4.5l3.1 23.7c1.1 9.2 9.7 16.4 18.9 16l32.5-1.2c6.7-.3 12.7-4.1 15.7-10.1l11.3-22.7c6.9-13.7 17.3-25.4 30.1-33.8l8.4-5.5c2.6-1.4 5.8-.7 7.4 1.7zm-170.3 50.2c.1-7.7 11.6-7.7 11.7 0-.1 7.7-11.6 7.7-11.7 0zm63.7 0c.1-7.7 11.6-7.7 11.7 0-.1 7.7-11.6 7.7-11.7 0z" fill="currentColor" opacity="1" data-original="currentColor"></path></g></svg>