<svg xmlns="http://www.w3.org/2000/svg" version="1.1" xmlns:xlink="http://www.w3.org/1999/xlink" width="512" height="512" x="0" y="0" viewBox="0 0 512 512" style="enable-background:new 0 0 512 512" xml:space="preserve" class=""><g><path d="M398.328 167.715c1.664 1.664 3.84 2.492 6.016 2.492s4.355-.832 6.02-2.492l59.288-59.29c16.985-16.987 16.985-44.632 0-61.62-16.988-16.992-44.636-16.985-61.62 0l-3.688 3.68-3.68-3.68c-16.996-16.989-44.633-16.989-61.621 0-8.23 8.23-12.766 19.172-12.766 30.808s4.535 22.582 12.766 30.809zM351.078 58.84c5.18-5.18 11.977-7.762 18.774-7.762 6.796 0 13.601 2.586 18.777 7.762l9.7 9.703a8.523 8.523 0 0 0 6.015 2.492 8.525 8.525 0 0 0 6.02-2.492l9.702-9.703c10.36-10.363 27.2-10.352 37.551 0 10.352 10.351 10.352 27.2 0 37.55l-53.273 53.27-53.266-53.27c-5.016-5.015-7.781-11.687-7.781-18.773.004-7.094 2.765-13.765 7.781-18.777zm0 0" fill="currentColor" opacity="1" data-original="currentColor" class=""></path><path d="M484.148 493.652c-72.746 8.07-130.437-24.14-131.015-24.464a8.483 8.483 0 0 0-6.453-.82c-.918.245-92.422 24.773-166.121 8.413-45.946-10.215-89.282-42.578-120.926-66.207-4.25-3.172-8.278-6.183-12.059-8.945-5.164-3.777-13.375-6.918-20.613-9.692-3.25-1.242-7.703-2.949-8.66-3.546-.828-.649-1.281-1.602-1.281-2.692v-19.726c.41-15.61 65.855-255.793 76.003-286.348.25-.36 1.227-1.066 1.946-1.406l129.515-59.156 41.871 54.511c2.067 2.824 1.872 6.774-.457 9.38l-41.375 46.382c-2.707 3.039-7.265 3.371-10.093 1.008l-16.73-15.426c-1.962-1.805-4.75-2.402-7.364-1.922-2.621.469-4.965 2.336-6.176 4.711-1.398 2.754-14.066 6.129-26.988 6.227l-4.211-.426c-3.375-.403-6.649 1.36-8.297 4.332a8.511 8.511 0 0 0 .703 9.34 655.467 655.467 0 0 1 7.98 10.515l8.282 140.77c-5.133 19.992-9.836 25.672-11.004 26.808-3.45 1.09-5.953 4.313-5.953 8.118 0 4.699 3.812 8.511 8.512 8.511 9.652 0 17.855-12.683 24.441-37.445 67.691-50.648 126.766-2.848 131.398 1.086 21.5 21.578 22.832 35.91 22.875 36.547a8.513 8.513 0 0 0 8.512 8.32c4.7 0 8.512-3.808 8.512-8.508 0-1.957-.711-18.75-22.738-43.011 20.773-25.54 44.425-40.25 70.476-43.453 44.914-5.532 82.668 24.671 83.047 24.972a8.507 8.507 0 0 0 11.969-1.219 8.504 8.504 0 0 0-1.2-11.96c-1.757-1.434-43.55-35.055-95.722-28.708-30.496 3.7-57.871 20.192-81.469 49.059-19.152-13.023-74.066-42.5-135.48-3.95l-7.618-129.456a8.456 8.456 0 0 0-1.238-3.946c7.617-.902 16.688-2.89 23.266-7.218l10.965 10.105c10.207 8.567 25.156 7.5 34.039-2.445l41.375-46.387c7.633-8.55 8.27-21.48 1.383-30.91l-46.125-60.05A8.509 8.509 0 0 0 223.566.77L88 62.69c-1.418.622-8.61 4.102-10.973 11.211C72.207 88.372 0 345.882 0 365.945v19.758c0 6.34 2.848 12.203 7.805 16.09 2.48 1.941 6.187 3.41 13.074 6.043 5.625 2.156 13.324 5.098 16.648 7.531 3.743 2.735 7.72 5.707 11.922 8.848 32.88 24.555 77.906 58.18 127.422 69.183 70.488 15.665 153.234-3.273 170.969-7.742C359.684 491.777 403.137 512 460.023 512c8.395 0 17.086-.438 26.004-1.434 4.672-.515 8.035-4.726 7.52-9.394-.524-4.68-4.746-8.07-9.399-7.52zm0 0" fill="currentColor" opacity="1" data-original="currentColor" class=""></path><path d="M442.484 390.535a8.511 8.511 0 0 0-8.46-7.57 8.514 8.514 0 0 0-8.512 8.512c0 5.683 4.199 24.93 58.175 33.921.473.079.946.118 1.407.118 4.086 0 7.691-2.95 8.386-7.11a8.521 8.521 0 0 0-6.996-9.797c-37.746-6.289-43.496-16.941-44-18.074zM279.059 434.215c-111.465 23.875-159.164-52.39-161.137-55.645-2.434-4.02-7.649-5.312-11.668-2.898a8.509 8.509 0 0 0-2.918 11.676c.562.933 14.105 23.164 43.062 42.101 19.954 13.043 50.38 26.332 91.532 26.332 13.707 0 28.601-1.472 44.691-4.918 4.598-.984 7.527-5.511 6.543-10.105-.988-4.594-5.508-7.535-10.105-6.543zm0 0" fill="currentColor" opacity="1" data-original="currentColor" class=""></path></g></svg>