<svg xmlns="http://www.w3.org/2000/svg" version="1.1" xmlns:xlink="http://www.w3.org/1999/xlink" width="512" height="512" x="0" y="0" viewBox="0 0 32 32" style="enable-background:new 0 0 512 512" xml:space="preserve" class=""><g><path d="M23.996 22.506a.5.5 0 0 1-.399-.801A9.418 9.418 0 0 0 25.5 16c0-.652-.067-1.305-.199-1.94a.5.5 0 1 1 .979-.203c.146.702.22 1.423.22 2.143 0 2.295-.728 4.477-2.104 6.307a.5.5 0 0 1-.4.199zM6.216 18.584a.502.502 0 0 1-.489-.397A10.704 10.704 0 0 1 5.5 16c0-2.285.721-4.458 2.086-6.282a.5.5 0 1 1 .801.599A9.412 9.412 0 0 0 6.5 16c0 .665.069 1.332.206 1.981a.5.5 0 0 1-.49.603zM17.5 21h-3a.5.5 0 0 1-.5-.5V18h-2.5a.5.5 0 0 1-.5-.5v-3a.5.5 0 0 1 .5-.5H14v-2.5a.5.5 0 0 1 .5-.5h3a.5.5 0 0 1 .5.5V14h2.5a.5.5 0 0 1 .5.5v3a.5.5 0 0 1-.5.5H18v2.5a.5.5 0 0 1-.5.5zM15 20h2v-2.5a.5.5 0 0 1 .5-.5H20v-2h-2.5a.5.5 0 0 1-.5-.5V12h-2v2.5a.5.5 0 0 1-.5.5H12v2h2.5a.5.5 0 0 1 .5.5zM18.141 30H12.9a6.563 6.563 0 0 1-2.836-.648L6.561 27.65a6.52 6.52 0 0 0-2.84-.65H1.5a.5.5 0 0 1 0-1h2.221c1.136 0 2.238.252 3.275.75l3.502 1.701A5.576 5.576 0 0 0 12.9 29h5.141l4.367-1.802c0-.042.059-.429-.133-.758-.293-.504-.97-.52-1.483-.445-.745.115-1.361.322-1.904.505l-.206.069a.5.5 0 0 1-.315-.949l.202-.067c.582-.196 1.241-.418 2.075-.546 2.062-.3 2.577.988 2.688 1.389.183.661.031 1.488-.54 1.727l-4.461 1.841a.534.534 0 0 1-.19.036zM11.635 22.877a.501.501 0 0 1-.454-.289c-.98-2.109-3.526-2.411-5.419-1.626A.506.506 0 0 1 5.57 21H1.5a.5.5 0 0 1 0-1h3.973c2.707-1.075 5.536-.152 6.616 2.167a.501.501 0 0 1-.454.71z" fill="currentColor" opacity="1" data-original="currentColor"></path><path d="M16.374 27.623a.504.504 0 0 1-.191-.038l-5.726-2.377a.5.5 0 1 1 .384-.924l5.223 2.168c.219-1.031-.345-1.833-1.685-2.388l-2.943-1.222a.5.5 0 0 1 .384-.924l2.942 1.222c2.061.854 2.817 2.375 2.074 4.172a.497.497 0 0 1-.271.271.471.471 0 0 1-.191.04zM10.771 7.039c-1.573 0-2.003-1.074-2.103-1.434-.183-.661-.031-1.488.54-1.727l4.461-1.841a.514.514 0 0 1 .19-.037h5.24c.977 0 1.931.218 2.836.648l3.503 1.702c.899.431 1.856.65 2.841.65H30.5a.5.5 0 0 1 0 1h-2.221a7.509 7.509 0 0 1-3.275-.75l-3.502-1.7A5.562 5.562 0 0 0 19.1 3h-5.141L9.591 4.802c0 .042-.059.429.133.758.294.504.969.52 1.483.445.745-.115 1.361-.322 1.904-.505l.206-.069a.5.5 0 1 1 .315.949l-.202.067c-.582.196-1.241.418-2.075.546a3.88 3.88 0 0 1-.584.046zM24.259 12.445c-1.89 0-3.572-.944-4.348-2.612a.501.501 0 0 1 .908-.422c.979 2.108 3.524 2.409 5.419 1.626A.525.525 0 0 1 26.43 11h4.07a.5.5 0 0 1 0 1h-3.973c-.76.301-1.53.445-2.268.445z" fill="currentColor" opacity="1" data-original="currentColor"></path><path d="M20.372 10.12a.502.502 0 0 1-.192-.038L17.238 8.86c-2.061-.854-2.817-2.375-2.074-4.172a.497.497 0 0 1 .654-.271l5.726 2.377a.5.5 0 1 1-.384.924L15.937 5.55c-.219 1.031.345 1.833 1.685 2.388l2.943 1.222a.5.5 0 0 1 .27.654.504.504 0 0 1-.463.306zM22.515 24.035a.5.5 0 0 1-.354-.853c.196-.195.547-.23.742-.035s.23.477.035.672l-.07.07a.498.498 0 0 1-.353.146zM9.515 9.035a.5.5 0 0 1-.351-.856l.071-.07a.5.5 0 1 1 .702.712l-.071.07a.497.497 0 0 1-.351.144z" fill="currentColor" opacity="1" data-original="currentColor"></path></g></svg>