<svg xmlns="http://www.w3.org/2000/svg" version="1.1" xmlns:xlink="http://www.w3.org/1999/xlink" width="512" height="512" x="0" y="0" viewBox="0 0 427.904 427.904" style="enable-background:new 0 0 512 512" xml:space="preserve" class=""><g><path d="M425.963 140.292c-4.72-29.04-21.76-51.6-52.08-70.56l-.76-.28H359.323a4.003 4.003 0 0 0-3.36 1.8c-.36.56-11.6 17.92-28.56 42.24-8.04-15.76-22.32-29.56-45-43.76h-.28l-.76-.28H267.563a4.003 4.003 0 0 0-3.36 1.8c-1.2 1.88-120.88 186.76-175.56 201.4a155.99 155.99 0 0 0-67.24 28.84c-23.08 16.8-22.68 32-20.36 39.48a24.802 24.802 0 0 0 22.56 17.2c5.72 0 17.12.28 29.76.28 24.44 0 53.56-.28 55.36-.28a3.72 3.72 0 0 0 2-.64c1.466.372 2.968.587 4.48.64 5.72 0 21.56.28 40.28.28 36.36 0 83.4-.28 86.6-.28 2.08 0 50.36-5.36 64-44.6 7.32-21.16 28.96-57.24 55.28-86.12l.32 126.72a4 4 0 0 0 4 4h18.16a4 4 0 0 0 4-3.64c0-.56 5.6-58.64 16.36-115.24a414.756 414.756 0 0 1 14.96-54.68c7-4.72 11.52-15.28 6.8-44.32zm-64.64-63.24h3.48c-16.8 27.64-86.4 141.76-102.92 162.92-18.8 24-27.64 32-42.88 32.24h-20c57.96-36.44 150.12-176.4 162.32-195.16zm-91.44 0h3.44c-16.8 27.64-86.4 141.76-103 162.92-18.84 24-27.64 32-42.88 32.24h-20c57.92-36.44 150.08-176.4 162.44-195.16zm-243.76 231a150.678 150.678 0 0 1 63.76-27.84c2.52 0 20.96.24 37.72 0 19.48-.36 30.4-11.56 49.04-35.32 17.72-22.48 91.32-143.48 105.12-166.28 20.76 13.72 33.56 26.88 40.12 41.24.097.188.218.363.36.52-40 56.44-105.28 142.12-141.8 152a155.674 155.674 0 0 0-67.28 29.24c-18.04 13.12-21.68 25.2-21.36 33.48H8.043c-.48-8.52 5.92-18.16 18.08-27.04zm-2.24 42.12a17.043 17.043 0 0 1-13.04-7.2h82.6a24.812 24.812 0 0 0 4.64 7.28c-19.76.12-61.6.36-74.2-.08zm218 0h-.2c-1.08 0-109.6.56-126.2 0a17.043 17.043 0 0 1-13.04-7.2h164.24a93.068 93.068 0 0 1-24.8 7.2zm138.4 0h-10.6v-7.2h11.36c-.32 2.96-.56 5.4-.76 7.2zm15.92-112.44c-7.12 37.32-12 75.24-14.48 97.16h-12.24l-.28-115.36v-.44a147.536 147.536 0 0 1 40-29.88 445.508 445.508 0 0 0-13 48.52zm15-58c-48.28 18.52-100.48 95.6-112.84 131.4a50.04 50.04 0 0 1-18 24H99.643c-.44-8.52 5.92-18.16 18.08-27.04a150.756 150.756 0 0 1 63.6-27.72c2.48 0 20.92.28 37.68 0 19.48-.36 30.4-11.56 49.04-35.32 17.72-22.48 91.28-143.44 105.12-166.28 26 17.16 40.72 37.8 44.72 62.96 5.48 33.64-2.24 36.4-6.68 38z" fill="currentColor" opacity="1" data-original="currentColor"></path><path d="M386.643 102.252a4 4 0 1 0-5.081 6.16 49.002 49.002 0 0 1 18.28 37.84 4 4 0 0 0 8 0 56.835 56.835 0 0 0-21.199-44z" fill="currentColor" opacity="1" data-original="currentColor"></path></g></svg>