<svg xmlns="http://www.w3.org/2000/svg" version="1.1" xmlns:xlink="http://www.w3.org/1999/xlink" width="512" height="512" x="0" y="0" viewBox="0 0 682.667 682.667" style="enable-background:new 0 0 512 512" xml:space="preserve" class=""><g><defs><clipPath id="a" clipPathUnits="userSpaceOnUse"><path d="M0 512h512V0H0Z" fill="currentColor" opacity="1" data-original="currentColor"></path></clipPath></defs><path d="M0 0v166" style="stroke-width:20;stroke-linecap:round;stroke-linejoin:round;stroke-miterlimit:10;stroke-dasharray:none;stroke-opacity:1" transform="matrix(1.33333 0 0 -1.33333 101.333 509.547)" fill="none" stroke="currentColor" stroke-width="20" stroke-linecap="round" stroke-linejoin="round" stroke-miterlimit="10" stroke-dasharray="none" stroke-opacity="" data-original="currentColor"></path><path d="M0 0v-166.37" style="stroke-width:20;stroke-linecap:round;stroke-linejoin:round;stroke-miterlimit:10;stroke-dasharray:none;stroke-opacity:1" transform="matrix(1.33333 0 0 -1.33333 581.333 288)" fill="none" stroke="currentColor" stroke-width="20" stroke-linecap="round" stroke-linejoin="round" stroke-miterlimit="10" stroke-dasharray="none" stroke-opacity="" data-original="currentColor"></path><g clip-path="url(#a)" transform="matrix(1.33333 0 0 -1.33333 0 682.667)"><path d="M0 0s9.6 35 40 35c23.68 0 40-20.07 40-43.84C80-41.72 47.45-63.49 0-105-47.45-63.49-80-41.72-80-8.84-80 14.93-63.68 35-40 35-9.6 35 0 0 0 0Z" style="stroke-width:20;stroke-linecap:round;stroke-linejoin:round;stroke-miterlimit:10;stroke-dasharray:none;stroke-opacity:1" transform="translate(256 261)" fill="none" stroke="currentColor" stroke-width="20" stroke-linecap="round" stroke-linejoin="round" stroke-miterlimit="10" stroke-dasharray="none" stroke-opacity="" data-original="currentColor"></path><path d="M0 0v84.38h60V-46.08" style="stroke-width:20;stroke-linecap:round;stroke-linejoin:round;stroke-miterlimit:10;stroke-dasharray:none;stroke-opacity:1" transform="translate(376 417.62)" fill="none" stroke="currentColor" stroke-width="20" stroke-linecap="round" stroke-linejoin="round" stroke-miterlimit="10" stroke-dasharray="none" stroke-opacity="" data-original="currentColor"></path><path d="M0 0c-16.57 0-30 13.43-30 30 0 3.52.61 6.88 1.73 10 3.04 8.52 9.87 15.23 18.45 18.22-.03.6-.18 1.17-.18 1.78 0 7.28 1.95 14.11 5.35 20C2.27 91.96 15.2 100 30 100c3.2 0 6.27-.47 9.25-1.18C48.31 111.6 63.14 120 80 120c1.35 0 2.68-.05 4-.16 24.14-1.92 43.24-21.08 45.53-45.13C141.69 67.85 150 54.96 150 40c0-22.09-17.91-40-40-40h-412c-22.09 0-40 17.91-40 40 0 14.96 8.31 27.85 20.47 34.71 2.29 24.05 21.39 43.21 45.53 45.13 1.32.11 2.65.16 4 .16 16.86 0 31.69-8.4 40.75-21.18 2.98.71 6.05 1.18 9.25 1.18 14.8 0 27.73-8.04 34.65-20 3.4-5.89 5.35-12.72 5.35-20 0-.61-.15-1.18-.18-1.78 8.58-2.99 15.41-9.7 18.45-18.22 1.12-3.12 1.73-6.48 1.73-10 0-16.57-13.43-30-30-30" style="stroke-width:20;stroke-linecap:round;stroke-linejoin:round;stroke-miterlimit:10;stroke-dasharray:none;stroke-opacity:1" transform="translate(352 10)" fill="none" stroke="currentColor" stroke-width="20" stroke-linecap="round" stroke-linejoin="round" stroke-miterlimit="10" stroke-dasharray="none" stroke-opacity="" data-original="currentColor"></path><path d="M0 0h-135.44" style="stroke-width:20;stroke-linecap:round;stroke-linejoin:round;stroke-miterlimit:10;stroke-dasharray:none;stroke-opacity:1" transform="translate(323.72 50)" fill="none" stroke="currentColor" stroke-width="20" stroke-linecap="round" stroke-linejoin="round" stroke-miterlimit="10" stroke-dasharray="none" stroke-opacity="" data-original="currentColor"></path><path d="M0 0h-182.7" style="stroke-width:20;stroke-linecap:round;stroke-linejoin:round;stroke-miterlimit:10;stroke-dasharray:none;stroke-opacity:1" transform="translate(347.35 90)" fill="none" stroke="currentColor" stroke-width="20" stroke-linecap="round" stroke-linejoin="round" stroke-miterlimit="10" stroke-dasharray="none" stroke-opacity="" data-original="currentColor"></path><path d="M0 0c0-5.522-4.477-10-10-10S-20-5.522-20 0s4.477 10 10 10S0 5.522 0 0" style="fill-opacity:1;fill-rule:nonzero;stroke:none" transform="translate(136 410)" fill="currentColor" data-original="currentColor"></path><path d="m0 0-68.528-52.665c-8.88-6.77-13.88-18.37-11.05-30.88 2.89-12.78 11.13-21.39 26.21-22.85 7.98-.78 15.39 1.57 21.16 5.97.02.01 6.8 5.23 17.84 13.72 48.63 37.4 179.9 138.37 180 138.44l197.84-152.16a29.853 29.853 0 0 1 18.16-6.12c16.57 0 30 13.43 30 30 0 9.74-4.64 18.4-11.84 23.88l-216 166a29.853 29.853 0 0 1-18.16 6.12c-6.83 0-13.12-2.28-18.16-6.12L71.333 54.82" style="stroke-width:20;stroke-linecap:round;stroke-linejoin:round;stroke-miterlimit:10;stroke-dasharray:none;stroke-opacity:1" transform="translate(90.368 382.545)" fill="none" stroke="currentColor" stroke-width="20" stroke-linecap="round" stroke-linejoin="round" stroke-miterlimit="10" stroke-dasharray="none" stroke-opacity="" data-original="currentColor"></path></g></g></svg>