<svg xmlns="http://www.w3.org/2000/svg" version="1.1" xmlns:xlink="http://www.w3.org/1999/xlink" width="512" height="512" x="0" y="0" viewBox="0 0 33.867 33.867" style="enable-background:new 0 0 512 512" xml:space="preserve" class=""><g><g fill="currentColor" fill-rule="evenodd"><path d="M16.446 15.854c-.67 0-1.213.543-1.213 1.213s.499 1.945 1.17 1.945c.148 0 .32-.065.47-.137a.36.36 0 0 1 .279 0c.15.072.322.137.47.137.448 0 .814-.567 1.012-1.143a.915.915 0 0 1-.553-.84.915.915 0 0 1 .408-.762 1.21 1.21 0 0 0-.91-.413c-.156 0-.32.104-.465.157a.365.365 0 0 1-.224 0c-.144-.053-.287-.157-.444-.157zM17.611 15.483c-.234.269-.592.294-.592.294s-.025-.359.208-.627c.234-.27.593-.294.593-.294s.025.359-.209.627z" fill="currentColor" opacity="1" data-original="currentColor"></path><path d="M11.048 0a2.52 2.52 0 0 0-2.513 2.514v.882h.33v.198h-.33v1.19a.132.132 0 0 0-.003 0 .132.132 0 0 0-.13.133v.794a.132.132 0 0 0 .132.134v1.187a.132.132 0 0 0-.003 0 .132.132 0 0 0-.13.134v2.117a.132.132 0 0 0 .132.134v.79a.132.132 0 0 0-.002 0 .132.132 0 0 0-.13.134v1.985a.132.132 0 0 0 .132.134V30.25h.33v.199h-.33v.903a2.52 2.52 0 0 0 2.513 2.514H22.82a2.52 2.52 0 0 0 2.514-2.514v-.903h-.33v-.199h.33V11.81a.132.132 0 0 0 .132-.133V7.97a.132.132 0 0 0-.132-.133V3.594h-.33v-.198h.33v-.882A2.52 2.52 0 0 0 22.82 0zm0 1.059h1.585a.265.265 0 0 1 .265.264v.133a.794.794 0 0 0 .793.793h6.549a.794.794 0 0 0 .794-.793v-.133a.265.265 0 0 1 .264-.264h1.524c.815 0 1.455.64 1.455 1.455v28.84a1.44 1.44 0 0 1-1.455 1.455H11.048a1.44 1.44 0 0 1-1.455-1.456V2.513c0-.814.64-1.454 1.455-1.454z" fill="currentColor" opacity="1" data-original="currentColor"></path></g></g></svg>