<svg xmlns="http://www.w3.org/2000/svg" version="1.1" xmlns:xlink="http://www.w3.org/1999/xlink" width="512" height="512" x="0" y="0" viewBox="0 0 48 48" style="enable-background:new 0 0 512 512" xml:space="preserve" class=""><g><path d="M8.705 8.64a.773.773 0 0 0-1.095 0c-.265.283-6.519 7.015-7.49 12.735a7.271 7.271 0 0 0 1.56 6.019 8.558 8.558 0 0 0 6.507 2.89 8.483 8.483 0 0 0 6.45-2.862 7.309 7.309 0 0 0 1.563-6.047c-.975-5.72-7.229-12.452-7.495-12.735Zm4.786 17.815a6.971 6.971 0 0 1-5.3 2.329 7.043 7.043 0 0 1-5.361-2.358 5.727 5.727 0 0 1-1.228-4.8c.736-4.334 5.024-9.58 6.56-11.347 1.536 1.766 5.822 7.008 6.559 11.347a5.758 5.758 0 0 1-1.23 4.829Z" fill="currentColor" opacity="1" data-original="currentColor"></path><path d="M13.853 21.329a.75.75 0 1 0-1.455.364c.04.162.075.324.1.483a3.315 3.315 0 0 1-.684 2.78 3.9 3.9 0 0 1-1.76 1.155.75.75 0 0 0 .238 1.462.733.733 0 0 0 .238-.039 5.41 5.41 0 0 0 2.43-1.611 4.768 4.768 0 0 0 1.017-4 8.986 8.986 0 0 0-.124-.594ZM47.961 45.933l-.932-2.78a.75.75 0 0 0-1.422.476l.683 2.038-2.309.664-1.212-3.616 4.2-1.323a.75.75 0 0 0 .483-.96l-5.245-15.193 1.03-1.414a4.436 4.436 0 0 0-1.048-6.256L27.175 7.02a.749.749 0 0 0-1.017.144l-.722.9-5.919-4.841a.755.755 0 0 0-.232-.129L10.372.041a.747.747 0 0 0-.942.435L8.31 3.327a.75.75 0 0 0 .467.988L17.077 7l5.366 4.8-.775.967a.75.75 0 0 0 1.171.938l4.05-5.053L41.327 18.8a2.945 2.945 0 0 1 1.225 1.938 2.913 2.913 0 0 1-.527 2.207l-1.261 1.73a.753.753 0 0 0-.1.687l5.122 14.834-5.095 1.6-1.106-3.028a.753.753 0 0 0-.76-.491l-10.152.748a3.2 3.2 0 0 1-3.4-2.623l-2.177-9.289a2.472 2.472 0 0 1 .435-2.054l3.819-5.073a.749.749 0 0 0 .011-.887l-3.1-4.341a.75.75 0 1 0-1.221.871l2.777 3.894-3.487 4.635a3.965 3.965 0 0 0-.7 3.3l2.17 9.251a4.682 4.682 0 0 0 4.979 3.813l9.586-.706 1.158 3.169a.75.75 0 0 0 .931.458l.883-.278 1.448 4.323a.75.75 0 0 0 .918.483l3.752-1.079a.75.75 0 0 0 .5-.959Zm-30-40.159a.732.732 0 0 0-.269-.155L10 3.133l.566-1.441 8.105 2.778L24.5 9.236l-1.116 1.392Z" fill="currentColor" opacity="1" data-original="currentColor"></path><path d="M36.992 36.07a.75.75 0 1 0 1.409-.514L34.292 24.3a.751.751 0 0 0-.638-.489l-5.9-.533a.759.759 0 0 0-.633.256l-1.935 2.229a1.469 1.469 0 0 0-.323 1.287l1.828 8.021a2.9 2.9 0 0 0 2.821 2.229c.088 0 .177 0 .266-.012l5.5-.5a.751.751 0 0 0-.136-1.495l-5.5.505a1.384 1.384 0 0 1-1.487-1.06l-1.835-7.992L28 24.807l1.488.134 1.447 4.539-1.035 2.366a.75.75 0 0 0 1.374.6l1.149-2.624a.748.748 0 0 0 .028-.529l-1.341-4.207 1.934.175Z" fill="currentColor" opacity="1" data-original="currentColor"></path></g></svg>