<svg xmlns="http://www.w3.org/2000/svg" version="1.1" xmlns:xlink="http://www.w3.org/1999/xlink" width="512" height="512" x="0" y="0" viewBox="0 0 512 512" style="enable-background:new 0 0 512 512" xml:space="preserve" class=""><g><path d="M94 256.129c25.363 0 46-17.945 46-40 0-22.059-20.637-40-46-40s-46 17.941-46 40c0 22.055 20.637 40 46 40zm0-60c14.336 0 26 8.969 26 20 0 11.027-11.664 20-26 20s-26-8.973-26-20c0-11.031 11.664-20 26-20zM180 339.078c-2.629 0-5.21 1.07-7.07 2.934a10.07 10.07 0 0 0-2.93 7.066c0 2.64 1.07 5.211 2.93 7.07 1.86 1.872 4.441 2.93 7.07 2.93s5.21-1.058 7.07-2.93c1.86-1.859 2.93-4.43 2.93-7.07a10.07 10.07 0 0 0-2.93-7.066 10.067 10.067 0 0 0-7.07-2.934zm0 0" fill="currentColor" opacity="1" data-original="currentColor" class=""></path><path d="M510.723 101.996a9.999 9.999 0 0 0-8.22-8.219c-29.76-4.965-60.265 4.809-81.6 26.141l-26.844 26.844-78.063-7.446V122c0-23.16-18.84-42-42-42h-55V20h7.668c5.523 0 10-4.477 10-10s-4.477-10-10-10H89.332c-5.52 0-10 4.477-10 10s4.48 10 10 10H97v60H42C18.84 80 0 98.84 0 122v54.129c0 5.52 4.477 10 10 10s10-4.48 10-10V122c0-12.133 9.867-22 22-22h232c12.133 0 22 9.867 22 22v15.41l-65.957-6.293a10.01 10.01 0 0 0-8.02 2.887l-28.992 28.992a9.997 9.997 0 0 0-2.812 8.586 9.991 9.991 0 0 0 5.258 7.352l26.804 13.976-5.879 5.88c-3.906 3.905-3.906 10.237 0 14.144 1.953 1.953 4.512 2.925 7.07 2.925s5.122-.972 7.075-2.925l10.32-10.325 22.711 11.844-5.547 5.543c-3.902 3.906-3.902 10.238 0 14.145a9.976 9.976 0 0 0 7.074 2.93 9.968 9.968 0 0 0 7.07-2.93l9.993-9.993 22.68 11.829-42.04 42.039-36.492-8.383a9.999 9.999 0 0 0-9.312 2.672l-26.777 26.78H61c-5.523 0-10 4.478-10 10v65.708C51 397.516 69.484 416 92.207 416h131.586c22.21 0 40.363-17.668 41.168-39.688l19.602 40.083a9.994 9.994 0 0 0 8.984 5.605c.832 0 1.656-.117 2.453-.316V430c0 12.133-9.867 22-22 22H42c-12.133 0-22-9.867-22-22V256.129c0-5.524-4.477-10-10-10s-10 4.476-10 10V430c0 23.16 18.84 42 42 42h22v10c0 16.543 13.457 30 30 30s30-13.457 30-30v-10h68v10c0 16.543 13.457 30 30 30s30-13.457 30-30v-10h22c23.16 0 42-18.84 42-42v-26.312l16.195-16.196a10.004 10.004 0 0 0 2.672-9.324l-8.43-36.43 42.086-42.086 11.829 22.68-9.993 9.992c-3.906 3.903-3.906 10.235 0 14.14a9.968 9.968 0 0 0 7.07 2.93 9.976 9.976 0 0 0 7.075-2.93l5.543-5.542 11.844 22.707-10.325 10.324c-3.902 3.906-3.902 10.238 0 14.145a9.966 9.966 0 0 0 7.075 2.925 9.98 9.98 0 0 0 7.07-2.925l5.875-5.88 13.98 26.805a10.004 10.004 0 0 0 15.938 2.446l28.992-28.992a9.996 9.996 0 0 0 2.883-8.024l-15.645-164.015 26.844-26.844c21.336-21.336 31.11-51.84 26.145-81.598zM117 20h82v60h-82zm-13 462c0 5.516-4.484 10-10 10s-10-4.484-10-10v-10h20zm128 0c0 5.516-4.484 10-10 10s-10-4.484-10-10v-10h20zm-15.191-314.5 16.027-16.023 142.883 13.628-56.047 56.047zm6.984 228.5H92.207C80.516 396 71 386.484 71 374.793v-15.707h72c5.523 0 10-4.48 10-10 0-5.524-4.477-10-10-10H71v-20h115.707c.445.316.91.613 1.41.855L245 347.684v27.109c0 11.691-9.516 21.207-21.207 21.207zm229.23-24.336L437 387.691l-53.652-102.863 56.047-56.047zm-88.957-95.84c-.02.02-.043.043-.062.067L308.37 331.52a9.999 9.999 0 0 0-2.668 9.324l8.426 36.43-17.75 17.753-27.098-55.402a9.99 9.99 0 0 0-4.601-4.594l-55.196-26.922 17.746-17.746 36.493 8.383a10.005 10.005 0 0 0 9.312-2.672l162.012-162.012c15.02-15.019 35.82-22.753 56.797-21.406 1.344 20.985-6.387 41.778-21.406 56.797zm0 0" fill="currentColor" opacity="1" data-original="currentColor" class=""></path><path d="M10 226.129c2.629 0 5.21-1.07 7.07-2.93a10.093 10.093 0 0 0 2.93-7.07c0-2.629-1.07-5.207-2.93-7.07-1.86-1.868-4.441-2.93-7.07-2.93s-5.21 1.062-7.07 2.93a10.066 10.066 0 0 0-2.93 7.07c0 2.633 1.07 5.21 2.93 7.07a10.08 10.08 0 0 0 7.07 2.93zm0 0" fill="currentColor" opacity="1" data-original="currentColor" class=""></path></g></svg>