<svg xmlns="http://www.w3.org/2000/svg" version="1.1" xmlns:xlink="http://www.w3.org/1999/xlink" width="512" height="512" x="0" y="0" viewBox="0 0 70 70" style="enable-background:new 0 0 512 512" xml:space="preserve" class=""><g transform="matrix(-1,0,0,1,69.97654819488525,0)"><path d="M10.935 42.632c25.99 13.247 26.778 13.696 29.428 14.862a56.917 56.917 0 0 0 11.625 3.687c5.152 1.043 11.072.84 12.634-4.15a.728.728 0 0 0 .37-.228c.478-.582.696-1.387.631-2.321-.21-3.734-3.26-5.477-6.504-7.189-4.089-2.148-4.616-3.205-7.818-6.764.03-.283.04-.558.047-.804a.748.748 0 0 0-1.26-.566 49.17 49.17 0 0 1-1.663-2.023c.036-.31.047-.611.054-.88.015-.57-.614-.995-1.157-.633-.463-.691-.9-1.406-1.323-2.124.005-.128.01-.255.013-.373a.744.744 0 0 0-.671-.756 91.987 91.987 0 0 0-1.63-2.74c.523-1.034.59-2.115-.4-2.73-.057-1.128-.391-1.903-.482-2.753-.127-1.175-.625-2.26-1.33-2.904-.401-.365-.87-.6-1.284-.807-1.76-.878-4.278-2.073-6.046-1.208-.919.45-1.426 1.33-1.839 2.214-.6 1.291-1.106 2.663-1.226 3.094-1.86.151-4.717-.362-6.263-1.091-2.73-1.299-2.873-3.15-3.324-6.139-.092-.83-.179-1.615-.924-2.457-.688-.781-1.49-1.266-2.386-1.469.41-1.144-.214-2.12-1.166-2.868-.949-.745-3.324-1.94-4.415-2.134-.637-.113-1.535-.109-2.143.244-1.272.732-.653 2.594.69 3.243 1.267.614 2.949.377 3.718 2.013a5.178 5.178 0 0 0-2.013 1.104c-1.248 1.082-2.417 2.633-3.22 4.07a12.483 12.483 0 0 0-1.554 5.176c-.001.019-1.77.462-1.94.525-.59.222-1.24.506-1.759.861-1.435.984-2.452 3.828-1.225 6.508.605 1.739 1.92 2.993 2.687 4.651.459.99.698 2.083 1.286 3 .864 1.347 2.357 2.133 3.782 2.86zM59.882 59.47c-1.642.465-3.429.308-5.112.07-11.694-1.656-20.365-7.279-34.294-15.154.75-2.554-1.124-5.364-2.626-7.344-1.074-1.418-2.09-2.758-2.413-4.34a.749.749 0 1 0-1.469.3c.824 4.036 5.54 6.858 5.122 10.6l-3.752-2.121c-1.997-1.123-4.114-2.188-5.741-3.683-1.134-1.04-1.81-2.343-2.527-3.723-1.217-2.343-1.523-2.605-1.656-2.82-.232-.326-.452-.633-.569-.95-.328-.886.162-1.938.832-2.566.677 2.293 2.897 2.8 3.026 5.28a.75.75 0 0 0 .748.712l.039-.001a.75.75 0 0 0 .71-.787c-.17-3.336-3.143-4.168-3.169-6.124 1.538-.737 3.189-.605 4.743.03 11.71 4.78 19.737 16.339 30.74 23.067 5.7 3.486 12.731 6.017 20.387 7.346-.58 1.004-1.688 1.83-3.019 2.208zM33.69 22.075c.342-.733.666-1.269 1.138-1.5 1.397-.68 5.215 1.372 5.66 1.777.437.398.762 1.148.85 1.957.075.695.275 1.324.413 2.085-.15-.03-.302-.055-.453-.079-.276-.317-.54-.643-.842-.942-1.454-1.443-3.59-1.585-5.13-1.447-.75.072-1.512.21-2.553.391.277-.759.577-1.512.917-2.242zm-5.734 3.779c5.38.84 8.41-1.705 11.132.33-.149.005-.297.003-.446.014a.75.75 0 0 0-.693.802c.029.414.398.721.802.694.6-.046 1.2-.033 1.797.03.49.6.947 1.228 1.378 1.882-.295.346-.662.683-1.063 1.032-.522.453-.198 1.316.492 1.316.175 0 .35-.06.492-.185.282-.246.6-.526.908-.843.662 1.098 1.072 1.83 1.711 2.927-.056.459-.16.712-.444 1.063a3.501 3.501 0 0 1-1.225.958c-.72.337-.482 1.428.32 1.428.63 0 1.855-1.061 2.336-1.81a30.62 30.62 0 0 0 1.356 2.013c-.234.624-.932 1.21-1.545 1.498a.75.75 0 1 0 .637 1.358 4.875 4.875 0 0 0 1.905-1.582c.609.749 1.24 1.474 1.875 2.187-.232.624-.921 1.213-1.548 1.507a.75.75 0 1 0 .637 1.358 4.895 4.895 0 0 0 1.975-1.679c2.736 3.025 3.322 4.183 7.674 6.469 2.727 1.438 5.534 2.87 5.707 5.955.046.665-.1 1.02-.313 1.314-24.701-4.047-30.3-17.167-44.61-26.712a.736.736 0 0 0-.037-.24c-1.664-4.492-3.303-5.6-3.467-7.162-.2-1.852 1.88-3.973 4.41-3.662.59 4.352 1.81 6.75 7.847 7.74zm-8.071-9.265c-3.288-.152-5.968 2.623-5.679 5.346.193 1.8 1.393 2.639 2.878 5.905-1.798-1.06-4.822-2.689-6.894-2.955.164-3.46 2.113-6.368 4.642-8.714 2.047-1.895 2.645-1.27 3.113-1.314.862.218 1.729.977 1.94 1.732zm-6.277-5.553c-1.296-.41-2.066-.334-2.296-1.149.203-.067.615-.11 1.052-.032.935.167 4.736 1.932 4.464 2.925-.035.127-.106.234-.163.578a3.75 3.75 0 0 0-.338.088c-.465-1.144-1.38-1.985-2.72-2.41z" fill="currentColor" opacity="1" data-original="currentColor" class=""></path><path d="M26.203 31.359a20.801 20.801 0 0 1 8.747 6.862c.146.2.374.306.604.306.6 0 .974-.692.603-1.194a22.278 22.278 0 0 0-9.377-7.359.75.75 0 1 0-.576 1.385zM63.434 43.292c-.382 0-.76.313-.773.727a.751.751 0 0 0 .726.773l3.232.101a.751.751 0 0 0 .024-1.5zM64.187 38.373a.753.753 0 0 0-1.055-.118L60.98 39.98a.749.749 0 1 0 .935 1.172l2.156-1.724a.75.75 0 0 0 .117-1.054zM58.69 35.912l-.438 2.228a.75.75 0 0 0 1.473.29l.437-2.23a.751.751 0 0 0-.591-.88.757.757 0 0 0-.881.592z" fill="currentColor" opacity="1" data-original="currentColor" class=""></path></g></svg>