<svg xmlns="http://www.w3.org/2000/svg" version="1.1" xmlns:xlink="http://www.w3.org/1999/xlink" width="512" height="512" x="0" y="0" viewBox="0 0 682.667 682.667" style="enable-background:new 0 0 512 512" xml:space="preserve"><g><defs><clipPath id="a" clipPathUnits="userSpaceOnUse"><path d="M0 512h512V0H0Z" fill="currentColor" opacity="1" data-original="currentColor"></path></clipPath></defs><g clip-path="url(#a)" transform="matrix(1.33333 0 0 -1.33333 0 682.667)"><path d="M0 0c39.586 27.219 87.529 43.164 139.202 43.164 135.861 0 246-110.138 246-246s-110.139-246-246-246c-135.862 0-246 110.138-246 246 0 51.67 15.94 99.614 43.159 139.196" style="stroke-width:20;stroke-linecap:round;stroke-linejoin:round;stroke-miterlimit:22.926;stroke-dasharray:none;stroke-opacity:1" transform="translate(116.798 458.836)" fill="none" stroke="currentColor" stroke-width="20" stroke-linecap="round" stroke-linejoin="round" stroke-miterlimit="22.926" stroke-dasharray="none" stroke-opacity="" data-original="currentColor"></path><path d="M0 0c107.953 0 196 88.047 196 196 0 107.954-88.047 196-196 196-107.954 0-196-88.046-196-196C-196 88.047-107.954 0 0 0Z" style="stroke-width:20;stroke-linecap:round;stroke-linejoin:round;stroke-miterlimit:22.926;stroke-dasharray:none;stroke-opacity:1" transform="translate(256 60)" fill="none" stroke="currentColor" stroke-width="20" stroke-linecap="round" stroke-linejoin="round" stroke-miterlimit="22.926" stroke-dasharray="none" stroke-opacity="" data-original="currentColor"></path><path d="M0 0c22.031 0 40 17.969 40 40S22.031 79.999 0 79.999-40 62.031-40 40C-40 17.969-22.031 0 0 0Z" style="stroke-width:20;stroke-linecap:round;stroke-linejoin:round;stroke-miterlimit:22.926;stroke-dasharray:none;stroke-opacity:1" transform="translate(256 216)" fill="none" stroke="currentColor" stroke-width="20" stroke-linecap="round" stroke-linejoin="round" stroke-miterlimit="22.926" stroke-dasharray="none" stroke-opacity="" data-original="currentColor"></path><path d="M0 0c-8.394 36.59-2.372 75.365 16.942 107.639m171.764-213.333c-29.904-10.015-62.919-10.013-92.821.007m171.783 213.326c19.343-32.32 25.354-71.16 16.908-107.795" style="stroke-width:20;stroke-linecap:round;stroke-linejoin:round;stroke-miterlimit:22.926;stroke-dasharray:none;stroke-opacity:1" transform="translate(113.694 223.223)" fill="none" stroke="currentColor" stroke-width="20" stroke-linecap="round" stroke-linejoin="round" stroke-miterlimit="22.926" stroke-dasharray="none" stroke-opacity="" data-original="currentColor"></path><path d="M0 0c.49 4.969.744 10.007.744 15.105 0 83.947-68.053 152-152 152m388 0c-83.947 0-152-68.053-152-152 0-5.094.254-10.129.743-15.094m-227.814 255.043A858.778 858.778 0 0 0 42.744 275.22a858.818 858.818 0 0 0 185.304-20.217" style="stroke-width:20;stroke-linecap:round;stroke-linejoin:round;stroke-miterlimit:22.926;stroke-dasharray:none;stroke-opacity:1" transform="translate(213.256 64.895)" fill="none" stroke="currentColor" stroke-width="20" stroke-linecap="round" stroke-linejoin="round" stroke-miterlimit="22.926" stroke-dasharray="none" stroke-opacity="" data-original="currentColor"></path><path d="m0 0 .005.005" style="stroke-width:20;stroke-linecap:round;stroke-linejoin:round;stroke-miterlimit:2.613;stroke-dasharray:none;stroke-opacity:1" transform="translate(82.046 429.943)" fill="none" stroke="currentColor" stroke-width="20" stroke-linecap="round" stroke-linejoin="round" stroke-miterlimit="2.613" stroke-dasharray="none" stroke-opacity="" data-original="currentColor"></path></g></g></svg>