<svg xmlns="http://www.w3.org/2000/svg" version="1.1" xmlns:xlink="http://www.w3.org/1999/xlink" width="512" height="512" x="0" y="0" viewBox="0 0 682.667 682.667" style="enable-background:new 0 0 512 512" xml:space="preserve" class=""><g><defs><clipPath id="a" clipPathUnits="userSpaceOnUse"><path d="M0 512h512V0H0Z" fill="currentColor" opacity="1" data-original="currentColor"></path></clipPath></defs><path d="m0 0-.193 74.936" style="stroke-width:15;stroke-linecap:round;stroke-linejoin:round;stroke-miterlimit:10;stroke-dasharray:none;stroke-opacity:1" transform="matrix(1.33333 0 0 -1.33333 482.44 635.575)" fill="none" stroke="currentColor" stroke-width="15" stroke-linecap="round" stroke-linejoin="round" stroke-miterlimit="10" stroke-dasharray="none" stroke-opacity="" data-original="currentColor" class=""></path><path d="M0 0h-52.05" style="stroke-width:15;stroke-linecap:round;stroke-linejoin:round;stroke-miterlimit:10;stroke-dasharray:none;stroke-opacity:1" transform="matrix(1.33333 0 0 -1.33333 264.92 163.284)" fill="none" stroke="currentColor" stroke-width="15" stroke-linecap="round" stroke-linejoin="round" stroke-miterlimit="10" stroke-dasharray="none" stroke-opacity="" data-original="currentColor" class=""></path><g clip-path="url(#a)" transform="matrix(1.33333 0 0 -1.33333 0 682.667)"><path d="m0 0 .251-59.016c.029-6.807 5.556-12.31 12.363-12.31h85.362" style="stroke-width:15;stroke-linecap:round;stroke-linejoin:round;stroke-miterlimit:10;stroke-dasharray:none;stroke-opacity:1" transform="translate(151.444 118.75)" fill="none" stroke="currentColor" stroke-width="15" stroke-linecap="round" stroke-linejoin="round" stroke-miterlimit="10" stroke-dasharray="none" stroke-opacity="" data-original="currentColor" class=""></path><path d="m0 0-.017.017h-85.958c-6.848 0-12.392-5.568-12.363-12.416l.212-49.659" style="stroke-width:15;stroke-linecap:round;stroke-linejoin:round;stroke-miterlimit:10;stroke-dasharray:none;stroke-opacity:1" transform="translate(249.42 216.004)" fill="none" stroke="currentColor" stroke-width="15" stroke-linecap="round" stroke-linejoin="round" stroke-miterlimit="10" stroke-dasharray="none" stroke-opacity="" data-original="currentColor" class=""></path><path d="M0 0v18.687a6.637 6.637 0 0 1-6.637 6.637h-38.776a6.637 6.637 0 0 1-6.637-6.637V0" style="stroke-width:15;stroke-linecap:round;stroke-linejoin:round;stroke-miterlimit:10;stroke-dasharray:none;stroke-opacity:1" transform="translate(198.69 479.176)" fill="none" stroke="currentColor" stroke-width="15" stroke-linecap="round" stroke-linejoin="round" stroke-miterlimit="10" stroke-dasharray="none" stroke-opacity="" data-original="currentColor" class=""></path><path d="M0 0v-79.663c0-27.98-8.882-55.236-25.365-77.844a132.123 132.123 0 0 1-25.364-77.843v-194.089c0-7.961 6.453-14.415 14.413-14.415H88.366c7.96 0 14.413 6.454 14.413 14.415v194.089a132.13 132.13 0 0 1-25.364 77.843A132.134 132.134 0 0 0 52.05-79.663V0" style="stroke-width:15;stroke-linecap:round;stroke-linejoin:round;stroke-miterlimit:10;stroke-dasharray:none;stroke-opacity:1" transform="translate(146.64 451.353)" fill="none" stroke="currentColor" stroke-width="15" stroke-linecap="round" stroke-linejoin="round" stroke-miterlimit="10" stroke-dasharray="none" stroke-opacity="" data-original="currentColor" class=""></path><path d="M0 0h-52.067a4.143 4.143 0 0 0-4.144 4.143V23.68a4.143 4.143 0 0 0 4.144 4.142H0a4.143 4.143 0 0 0 4.144-4.142V4.143A4.143 4.143 0 0 0 0 0Z" style="stroke-width:15;stroke-linecap:round;stroke-linejoin:round;stroke-miterlimit:10;stroke-dasharray:none;stroke-opacity:1" transform="translate(198.7 451.353)" fill="none" stroke="currentColor" stroke-width="15" stroke-linecap="round" stroke-linejoin="round" stroke-miterlimit="10" stroke-dasharray="none" stroke-opacity="" data-original="currentColor" class=""></path><path d="m0 0-17.735-13.36a18.258 18.258 0 0 0-21.974 0L-57.444 0a64.29 64.29 0 0 0-24.617 62.577l13.841 78.011a7.671 7.671 0 0 0 7.554 6.331H3.223a7.67 7.67 0 0 0 7.552-6.331l13.841-78.011A64.284 64.284 0 0 0 0 0Z" style="stroke-width:15;stroke-linecap:round;stroke-linejoin:round;stroke-miterlimit:10;stroke-dasharray:none;stroke-opacity:1" transform="translate(390.482 127.288)" fill="none" stroke="currentColor" stroke-width="15" stroke-linecap="round" stroke-linejoin="round" stroke-miterlimit="10" stroke-dasharray="none" stroke-opacity="" data-original="currentColor" class=""></path><path d="m0 0-41.262 14.876a15.711 15.711 0 0 1-10.725-.023L-93.184-.206a6.107 6.107 0 0 1 2.111-11.843l89.015.197A6.106 6.106 0 0 1 0 0Z" style="stroke-width:15;stroke-linecap:round;stroke-linejoin:round;stroke-miterlimit:10;stroke-dasharray:none;stroke-opacity:1" transform="translate(408.45 19.549)" fill="none" stroke="currentColor" stroke-width="15" stroke-linecap="round" stroke-linejoin="round" stroke-miterlimit="10" stroke-dasharray="none" stroke-opacity="" data-original="currentColor" class=""></path><path d="M0 0h-17.91" style="stroke-width:15;stroke-linecap:round;stroke-linejoin:round;stroke-miterlimit:10;stroke-dasharray:none;stroke-opacity:1" transform="translate(328.968 204.718)" fill="none" stroke="currentColor" stroke-width="15" stroke-linecap="round" stroke-linejoin="round" stroke-miterlimit="10" stroke-dasharray="none" stroke-opacity="" data-original="currentColor" class=""></path><path d="M0 0h-48.433" style="stroke-width:15;stroke-linecap:round;stroke-linejoin:round;stroke-miterlimit:10;stroke-dasharray:none;stroke-opacity:1" transform="translate(412.464 204.718)" fill="none" stroke="currentColor" stroke-width="15" stroke-linecap="round" stroke-linejoin="round" stroke-miterlimit="10" stroke-dasharray="none" stroke-opacity="" data-original="currentColor" class=""></path></g></g></svg>