<svg xmlns="http://www.w3.org/2000/svg" version="1.1" xmlns:xlink="http://www.w3.org/1999/xlink" width="512" height="512" x="0" y="0" viewBox="0 0 128 128" style="enable-background:new 0 0 512 512" xml:space="preserve"><g><path d="m96.478 41.942-2.11-7.11a1.8 1.8 0 0 0-.061-.17L86.677 9A1.749 1.749 0 0 0 85 7.75H43A1.75 1.75 0 0 0 41.323 9l-9.8 32.939c-2.572 8.629.181 18.14 6.694 23.13A57.166 57.166 0 0 0 62.25 75.432v33.6l-12.8 7.986a1.75 1.75 0 0 0 .926 3.235h27.25a1.75 1.75 0 0 0 .926-3.235l-12.8-7.986v-33.6A57.166 57.166 0 0 0 89.783 65.07c6.517-4.99 9.266-14.501 6.695-23.128zM44.305 11.25h39.39l6.5 21.848a54.9 54.9 0 0 0-24.209 2.23c-11.891 3.68-21.3-.49-27.361-4.972zm12.181 105.5L64 112.063l7.514 4.688zm31.171-54.46A54.187 54.187 0 0 1 64 72.223a54.185 54.185 0 0 1-23.656-9.932c-5.3-4.06-7.6-12.2-5.467-19.351l2.687-9.031a33.773 33.773 0 0 0 19.324 6.346 34.119 34.119 0 0 0 10.128-1.582 50.318 50.318 0 0 1 24.3-1.813l1.8 6.081c2.138 7.151-.16 15.289-5.459 19.349z" fill="currentColor" opacity="1" data-original="currentColor"></path><path d="M87.3 40.606a1.75 1.75 0 0 0-1.178 2.177c1.6 5.375-.116 11.482-4.084 14.522a1.75 1.75 0 0 0 2.129 2.778c5.159-3.953 7.342-11.478 5.31-18.3a1.751 1.751 0 0 0-2.177-1.177z" fill="currentColor" opacity="1" data-original="currentColor"></path></g></svg>